<svg width="1000" height="200" viewBox="0 0 1000 200" fill="none" xmlns="http://www.w3.org/2000/svg">
<rect width="1000" height="200" fill="#1F222F"/>
<path fill-rule="evenodd" clip-rule="evenodd" d="M586.999 61.9388V51L499.489 51L499.489 61.9388H499.491V105.694H510.429V61.9388L586.999 61.9388Z" fill="#8D8A9B"/>
<path d="M349.273 102.587C345.762 102.751 342.808 103.063 340.413 103.523C338.017 103.949 336.097 104.507 334.653 105.196C333.209 105.885 332.176 106.689 331.552 107.608C330.929 108.527 330.617 109.528 330.617 110.611C330.617 112.744 331.24 114.27 332.488 115.189C333.767 116.108 335.425 116.567 337.459 116.567C339.953 116.567 342.103 116.124 343.908 115.238C345.745 114.319 347.534 112.941 349.273 111.103V102.587ZM321.412 80.6824C327.22 75.3661 334.21 72.708 342.382 72.708C345.335 72.708 347.977 73.2002 350.307 74.1847C352.637 75.1364 354.606 76.4819 356.214 78.2211C357.822 79.9276 359.036 81.9786 359.856 84.3742C360.71 86.7698 361.136 89.3951 361.136 92.2501V124.148H355.623C354.474 124.148 353.588 123.983 352.965 123.655C352.341 123.294 351.849 122.589 351.488 121.539L350.405 117.896C349.125 119.045 347.878 120.062 346.664 120.948C345.45 121.801 344.187 122.523 342.874 123.114C341.561 123.705 340.15 124.148 338.641 124.443C337.164 124.771 335.523 124.935 333.718 124.935C331.585 124.935 329.616 124.656 327.811 124.098C326.006 123.508 324.448 122.638 323.135 121.489C321.822 120.341 320.805 118.913 320.083 117.207C319.361 115.5 319 113.515 319 111.251C319 109.971 319.213 108.707 319.64 107.46C320.067 106.181 320.756 104.966 321.707 103.818C322.692 102.669 323.955 101.586 325.498 100.569C327.04 99.5517 328.927 98.6657 331.158 97.9109C333.423 97.1562 336.048 96.5491 339.034 96.0896C342.021 95.5974 345.434 95.302 349.273 95.2036V92.2501C349.273 88.87 348.551 86.376 347.107 84.768C345.663 83.1272 343.579 82.3068 340.856 82.3068C338.887 82.3068 337.246 82.5365 335.933 82.9959C334.653 83.4553 333.521 83.9804 332.537 84.5711C331.552 85.129 330.65 85.6376 329.829 86.0971C329.042 86.5565 328.156 86.7862 327.171 86.7862C326.318 86.7862 325.596 86.5729 325.005 86.1463C324.415 85.6869 323.939 85.1618 323.578 84.5711L321.412 80.6824Z" fill="white"/>
<path d="M408.767 84.325C408.406 84.7844 408.045 85.1454 407.684 85.4079C407.356 85.6704 406.864 85.8017 406.207 85.8017C405.584 85.8017 404.977 85.6212 404.386 85.2602C403.795 84.8664 403.09 84.4398 402.269 83.9804C401.449 83.4882 400.464 83.0615 399.316 82.7006C398.2 82.3068 396.805 82.1099 395.132 82.1099C392.999 82.1099 391.128 82.5037 389.52 83.2913C387.912 84.046 386.567 85.1454 385.484 86.5893C384.434 88.0332 383.646 89.7889 383.121 91.8563C382.596 93.8909 382.333 96.2045 382.333 98.797C382.333 101.488 382.612 103.884 383.17 105.984C383.761 108.084 384.598 109.856 385.681 111.3C386.764 112.711 388.076 113.794 389.619 114.549C391.161 115.271 392.9 115.632 394.836 115.632C396.773 115.632 398.331 115.402 399.513 114.943C400.727 114.45 401.744 113.925 402.565 113.367C403.385 112.777 404.091 112.252 404.681 111.792C405.305 111.3 405.994 111.054 406.749 111.054C407.733 111.054 408.472 111.431 408.964 112.186L412.459 116.616C411.113 118.191 409.653 119.52 408.078 120.603C406.503 121.654 404.862 122.507 403.155 123.163C401.482 123.787 399.743 124.23 397.938 124.492C396.166 124.755 394.393 124.886 392.621 124.886C389.504 124.886 386.567 124.312 383.81 123.163C381.054 121.982 378.642 120.275 376.574 118.044C374.507 115.812 372.866 113.088 371.652 109.872C370.47 106.624 369.88 102.932 369.88 98.797C369.88 95.0887 370.405 91.6594 371.455 88.5091C372.538 85.3259 374.113 82.5857 376.18 80.2886C378.248 77.9586 380.807 76.1373 383.859 74.8246C386.911 73.512 390.423 72.8557 394.393 72.8557C398.167 72.8557 401.465 73.4628 404.288 74.677C407.143 75.8912 409.702 77.6304 411.967 79.8948L408.767 84.325Z" fill="white"/>
<path d="M432.239 79.058C434.208 77.2202 436.374 75.7271 438.737 74.5785C441.1 73.43 443.873 72.8557 447.056 72.8557C449.813 72.8557 452.257 73.3315 454.39 74.2832C456.523 75.202 458.296 76.5147 459.707 78.2211C461.151 79.8948 462.234 81.913 462.955 84.2757C463.71 86.6057 464.088 89.1818 464.088 92.004V124.148H451.929V92.004C451.929 88.9193 451.224 86.5401 449.813 84.8664C448.401 83.16 446.252 82.3068 443.364 82.3068C441.264 82.3068 439.295 82.7826 437.457 83.7343C435.619 84.686 433.88 85.9822 432.239 87.623V124.148H420.081V51H432.239V79.058Z" fill="white"/>
<path d="M531.469 82.4052C533.044 79.3861 534.915 77.0233 537.081 75.3169C539.247 73.5776 541.806 72.708 544.76 72.708C547.09 72.708 548.96 73.2166 550.371 74.234L549.584 83.3405C549.42 83.9312 549.174 84.3578 548.846 84.6203C548.55 84.85 548.14 84.9649 547.615 84.9649C547.123 84.9649 546.384 84.8828 545.4 84.7188C544.448 84.5547 543.513 84.4726 542.594 84.4726C541.249 84.4726 540.051 84.6695 539.001 85.0633C537.95 85.4571 536.999 86.0314 536.146 86.7862C535.325 87.5082 534.587 88.3942 533.931 89.4443C533.307 90.4944 532.716 91.6922 532.158 93.0377V124.148H520V73.6433H527.138C528.385 73.6433 529.254 73.873 529.746 74.3324C530.239 74.759 530.567 75.5466 530.731 76.6952L531.469 82.4052Z" fill="white"/>
<path d="M587 105.694C587 116.266 578.429 124.837 567.857 124.837C557.285 124.837 548.714 116.266 548.714 105.694C548.714 95.1216 557.285 86.551 567.857 86.551C578.429 86.551 587 95.1216 587 105.694Z" fill="white"/>
<path d="M510.429 105.694C510.429 116.266 501.858 124.837 491.286 124.837C480.713 124.837 472.143 116.266 472.143 105.694C472.143 95.1216 480.713 86.551 491.286 86.551C501.858 86.551 510.429 95.1216 510.429 105.694Z" fill="white"/>
<rect x="576.061" y="51" width="10.9388" height="54.6939" fill="white"/>
<path d="M420.41 145V134.87H421.48C421.733 134.87 421.89 134.993 421.95 135.24L422.08 136.28C422.453 135.82 422.873 135.443 423.34 135.15C423.807 134.857 424.347 134.71 424.96 134.71C425.64 134.71 426.19 134.9 426.61 135.28C427.037 135.66 427.343 136.173 427.53 136.82C427.677 136.453 427.863 136.137 428.09 135.87C428.323 135.603 428.583 135.383 428.87 135.21C429.157 135.037 429.46 134.91 429.78 134.83C430.107 134.75 430.437 134.71 430.77 134.71C431.303 134.71 431.777 134.797 432.19 134.97C432.61 135.137 432.963 135.383 433.25 135.71C433.543 136.037 433.767 136.44 433.92 136.92C434.073 137.393 434.15 137.937 434.15 138.55V145H432.36V138.55C432.36 137.757 432.187 137.157 431.84 136.75C431.493 136.337 430.993 136.13 430.34 136.13C430.047 136.13 429.767 136.183 429.5 136.29C429.24 136.39 429.01 136.54 428.81 136.74C428.61 136.94 428.45 137.193 428.33 137.5C428.217 137.8 428.16 138.15 428.16 138.55V145H426.37V138.55C426.37 137.737 426.207 137.13 425.88 136.73C425.553 136.33 425.077 136.13 424.45 136.13C424.01 136.13 423.603 136.25 423.23 136.49C422.857 136.723 422.513 137.043 422.2 137.45V145H420.41ZM445.185 134.87V145H444.125C443.872 145 443.712 144.877 443.645 144.63L443.505 143.54C443.065 144.027 442.572 144.42 442.025 144.72C441.479 145.013 440.852 145.16 440.145 145.16C439.592 145.16 439.102 145.07 438.675 144.89C438.255 144.703 437.902 144.443 437.615 144.11C437.329 143.777 437.112 143.373 436.965 142.9C436.825 142.427 436.755 141.903 436.755 141.33V134.87H438.535V141.33C438.535 142.097 438.709 142.69 439.055 143.11C439.409 143.53 439.945 143.74 440.665 143.74C441.192 143.74 441.682 143.617 442.135 143.37C442.595 143.117 443.019 142.77 443.405 142.33V134.87H445.185ZM453.908 136.54C453.828 136.687 453.704 136.76 453.538 136.76C453.438 136.76 453.324 136.723 453.198 136.65C453.071 136.577 452.914 136.497 452.728 136.41C452.548 136.317 452.331 136.233 452.078 136.16C451.824 136.08 451.524 136.04 451.178 136.04C450.878 136.04 450.608 136.08 450.368 136.16C450.128 136.233 449.921 136.337 449.748 136.47C449.581 136.603 449.451 136.76 449.358 136.94C449.271 137.113 449.228 137.303 449.228 137.51C449.228 137.77 449.301 137.987 449.448 138.16C449.601 138.333 449.801 138.483 450.048 138.61C450.294 138.737 450.574 138.85 450.888 138.95C451.201 139.043 451.521 139.147 451.848 139.26C452.181 139.367 452.504 139.487 452.818 139.62C453.131 139.753 453.411 139.92 453.658 140.12C453.904 140.32 454.101 140.567 454.248 140.86C454.401 141.147 454.478 141.493 454.478 141.9C454.478 142.367 454.394 142.8 454.228 143.2C454.061 143.593 453.814 143.937 453.488 144.23C453.161 144.517 452.761 144.743 452.288 144.91C451.814 145.077 451.268 145.16 450.648 145.16C449.941 145.16 449.301 145.047 448.728 144.82C448.154 144.587 447.668 144.29 447.268 143.93L447.688 143.25C447.741 143.163 447.804 143.097 447.878 143.05C447.951 143.003 448.044 142.98 448.158 142.98C448.278 142.98 448.404 143.027 448.538 143.12C448.671 143.213 448.831 143.317 449.018 143.43C449.211 143.543 449.444 143.647 449.718 143.74C449.991 143.833 450.331 143.88 450.738 143.88C451.084 143.88 451.388 143.837 451.648 143.75C451.908 143.657 452.124 143.533 452.298 143.38C452.471 143.227 452.598 143.05 452.678 142.85C452.764 142.65 452.808 142.437 452.808 142.21C452.808 141.93 452.731 141.7 452.578 141.52C452.431 141.333 452.234 141.177 451.988 141.05C451.741 140.917 451.458 140.803 451.138 140.71C450.824 140.61 450.501 140.507 450.168 140.4C449.841 140.293 449.518 140.173 449.198 140.04C448.884 139.9 448.604 139.727 448.358 139.52C448.111 139.313 447.911 139.06 447.758 138.76C447.611 138.453 447.538 138.083 447.538 137.65C447.538 137.263 447.618 136.893 447.778 136.54C447.938 136.18 448.171 135.867 448.478 135.6C448.784 135.327 449.161 135.11 449.608 134.95C450.054 134.79 450.564 134.71 451.138 134.71C451.804 134.71 452.401 134.817 452.928 135.03C453.461 135.237 453.921 135.523 454.308 135.89L453.908 136.54ZM458.54 134.87V145H456.76V134.87H458.54ZM458.92 131.69C458.92 131.863 458.883 132.027 458.81 132.18C458.743 132.327 458.65 132.46 458.53 132.58C458.417 132.693 458.28 132.783 458.12 132.85C457.967 132.917 457.803 132.95 457.63 132.95C457.457 132.95 457.293 132.917 457.14 132.85C456.993 132.783 456.863 132.693 456.75 132.58C456.637 132.46 456.547 132.327 456.48 132.18C456.413 132.027 456.38 131.863 456.38 131.69C456.38 131.517 456.413 131.353 456.48 131.2C456.547 131.04 456.637 130.903 456.75 130.79C456.863 130.67 456.993 130.577 457.14 130.51C457.293 130.443 457.457 130.41 457.63 130.41C457.803 130.41 457.967 130.443 458.12 130.51C458.28 130.577 458.417 130.67 458.53 130.79C458.65 130.903 458.743 131.04 458.81 131.2C458.883 131.353 458.92 131.517 458.92 131.69ZM468.515 136.67C468.461 136.743 468.408 136.8 468.355 136.84C468.301 136.88 468.228 136.9 468.135 136.9C468.035 136.9 467.925 136.86 467.805 136.78C467.685 136.693 467.535 136.6 467.355 136.5C467.181 136.4 466.965 136.31 466.705 136.23C466.451 136.143 466.138 136.1 465.765 136.1C465.265 136.1 464.825 136.19 464.445 136.37C464.065 136.543 463.745 136.797 463.485 137.13C463.231 137.463 463.038 137.867 462.905 138.34C462.778 138.813 462.715 139.343 462.715 139.93C462.715 140.543 462.785 141.09 462.925 141.57C463.065 142.043 463.261 142.443 463.515 142.77C463.775 143.09 464.085 143.337 464.445 143.51C464.811 143.677 465.221 143.76 465.675 143.76C466.108 143.76 466.465 143.71 466.745 143.61C467.025 143.503 467.255 143.387 467.435 143.26C467.621 143.133 467.775 143.02 467.895 142.92C468.021 142.813 468.145 142.76 468.265 142.76C468.411 142.76 468.525 142.817 468.605 142.93L469.105 143.58C468.885 143.853 468.635 144.087 468.355 144.28C468.075 144.473 467.771 144.637 467.445 144.77C467.125 144.897 466.788 144.99 466.435 145.05C466.081 145.11 465.721 145.14 465.355 145.14C464.721 145.14 464.131 145.023 463.585 144.79C463.045 144.557 462.575 144.22 462.175 143.78C461.775 143.333 461.461 142.787 461.235 142.14C461.008 141.493 460.895 140.757 460.895 139.93C460.895 139.177 460.998 138.48 461.205 137.84C461.418 137.2 461.725 136.65 462.125 136.19C462.531 135.723 463.028 135.36 463.615 135.1C464.208 134.84 464.888 134.71 465.655 134.71C466.368 134.71 466.995 134.827 467.535 135.06C468.081 135.287 468.565 135.61 468.985 136.03L468.515 136.67ZM482.033 136.54C481.953 136.687 481.829 136.76 481.663 136.76C481.563 136.76 481.449 136.723 481.323 136.65C481.196 136.577 481.039 136.497 480.853 136.41C480.673 136.317 480.456 136.233 480.203 136.16C479.949 136.08 479.649 136.04 479.303 136.04C479.003 136.04 478.733 136.08 478.493 136.16C478.253 136.233 478.046 136.337 477.873 136.47C477.706 136.603 477.576 136.76 477.483 136.94C477.396 137.113 477.353 137.303 477.353 137.51C477.353 137.77 477.426 137.987 477.573 138.16C477.726 138.333 477.926 138.483 478.173 138.61C478.419 138.737 478.699 138.85 479.013 138.95C479.326 139.043 479.646 139.147 479.973 139.26C480.306 139.367 480.629 139.487 480.943 139.62C481.256 139.753 481.536 139.92 481.783 140.12C482.029 140.32 482.226 140.567 482.373 140.86C482.526 141.147 482.603 141.493 482.603 141.9C482.603 142.367 482.519 142.8 482.353 143.2C482.186 143.593 481.939 143.937 481.613 144.23C481.286 144.517 480.886 144.743 480.413 144.91C479.939 145.077 479.393 145.16 478.773 145.16C478.066 145.16 477.426 145.047 476.853 144.82C476.279 144.587 475.793 144.29 475.393 143.93L475.813 143.25C475.866 143.163 475.929 143.097 476.003 143.05C476.076 143.003 476.169 142.98 476.283 142.98C476.403 142.98 476.529 143.027 476.663 143.12C476.796 143.213 476.956 143.317 477.143 143.43C477.336 143.543 477.569 143.647 477.843 143.74C478.116 143.833 478.456 143.88 478.863 143.88C479.209 143.88 479.513 143.837 479.773 143.75C480.033 143.657 480.249 143.533 480.423 143.38C480.596 143.227 480.723 143.05 480.803 142.85C480.889 142.65 480.933 142.437 480.933 142.21C480.933 141.93 480.856 141.7 480.703 141.52C480.556 141.333 480.359 141.177 480.113 141.05C479.866 140.917 479.583 140.803 479.263 140.71C478.949 140.61 478.626 140.507 478.293 140.4C477.966 140.293 477.643 140.173 477.323 140.04C477.009 139.9 476.729 139.727 476.483 139.52C476.236 139.313 476.036 139.06 475.883 138.76C475.736 138.453 475.663 138.083 475.663 137.65C475.663 137.263 475.743 136.893 475.903 136.54C476.063 136.18 476.296 135.867 476.603 135.6C476.909 135.327 477.286 135.11 477.733 134.95C478.179 134.79 478.689 134.71 479.263 134.71C479.929 134.71 480.526 134.817 481.053 135.03C481.586 135.237 482.046 135.523 482.433 135.89L482.033 136.54ZM489.055 134.71C489.795 134.71 490.462 134.833 491.055 135.08C491.648 135.327 492.155 135.677 492.575 136.13C492.995 136.583 493.315 137.133 493.535 137.78C493.762 138.42 493.875 139.137 493.875 139.93C493.875 140.73 493.762 141.45 493.535 142.09C493.315 142.73 492.995 143.277 492.575 143.73C492.155 144.183 491.648 144.533 491.055 144.78C490.462 145.02 489.795 145.14 489.055 145.14C488.308 145.14 487.635 145.02 487.035 144.78C486.442 144.533 485.935 144.183 485.515 143.73C485.095 143.277 484.772 142.73 484.545 142.09C484.325 141.45 484.215 140.73 484.215 139.93C484.215 139.137 484.325 138.42 484.545 137.78C484.772 137.133 485.095 136.583 485.515 136.13C485.935 135.677 486.442 135.327 487.035 135.08C487.635 134.833 488.308 134.71 489.055 134.71ZM489.055 143.75C490.055 143.75 490.802 143.417 491.295 142.75C491.788 142.077 492.035 141.14 492.035 139.94C492.035 138.733 491.788 137.793 491.295 137.12C490.802 136.447 490.055 136.11 489.055 136.11C488.548 136.11 488.105 136.197 487.725 136.37C487.352 136.543 487.038 136.793 486.785 137.12C486.538 137.447 486.352 137.85 486.225 138.33C486.105 138.803 486.045 139.34 486.045 139.94C486.045 141.14 486.292 142.077 486.785 142.75C487.285 143.417 488.042 143.75 489.055 143.75ZM504.463 134.87V145H503.403C503.149 145 502.989 144.877 502.923 144.63L502.783 143.54C502.343 144.027 501.849 144.42 501.303 144.72C500.756 145.013 500.129 145.16 499.423 145.16C498.869 145.16 498.379 145.07 497.953 144.89C497.533 144.703 497.179 144.443 496.893 144.11C496.606 143.777 496.389 143.373 496.243 142.9C496.103 142.427 496.033 141.903 496.033 141.33V134.87H497.813V141.33C497.813 142.097 497.986 142.69 498.333 143.11C498.686 143.53 499.223 143.74 499.943 143.74C500.469 143.74 500.959 143.617 501.413 143.37C501.873 143.117 502.296 142.77 502.683 142.33V134.87H504.463ZM508.965 136.34C509.185 136.093 509.418 135.87 509.665 135.67C509.912 135.47 510.172 135.3 510.445 135.16C510.725 135.013 511.018 134.903 511.325 134.83C511.638 134.75 511.975 134.71 512.335 134.71C512.888 134.71 513.375 134.803 513.795 134.99C514.222 135.17 514.575 135.43 514.855 135.77C515.142 136.103 515.358 136.507 515.505 136.98C515.652 137.453 515.725 137.977 515.725 138.55V145H513.935V138.55C513.935 137.783 513.758 137.19 513.405 136.77C513.058 136.343 512.528 136.13 511.815 136.13C511.288 136.13 510.795 136.257 510.335 136.51C509.882 136.763 509.462 137.107 509.075 137.54V145H507.285V134.87H508.355C508.608 134.87 508.765 134.993 508.825 135.24L508.965 136.34ZM525.037 137.28C524.704 136.833 524.344 136.523 523.957 136.35C523.571 136.17 523.137 136.08 522.657 136.08C521.717 136.08 520.994 136.417 520.487 137.09C519.981 137.763 519.727 138.723 519.727 139.97C519.727 140.63 519.784 141.197 519.897 141.67C520.011 142.137 520.177 142.523 520.397 142.83C520.617 143.13 520.887 143.35 521.207 143.49C521.527 143.63 521.891 143.7 522.297 143.7C522.884 143.7 523.394 143.567 523.827 143.3C524.267 143.033 524.671 142.657 525.037 142.17V137.28ZM526.817 130.27V145H525.757C525.504 145 525.344 144.877 525.277 144.63L525.117 143.4C524.684 143.92 524.191 144.34 523.637 144.66C523.084 144.98 522.444 145.14 521.717 145.14C521.137 145.14 520.611 145.03 520.137 144.81C519.664 144.583 519.261 144.253 518.927 143.82C518.594 143.387 518.337 142.847 518.157 142.2C517.977 141.553 517.887 140.81 517.887 139.97C517.887 139.223 517.987 138.53 518.187 137.89C518.387 137.243 518.674 136.683 519.047 136.21C519.421 135.737 519.877 135.367 520.417 135.1C520.964 134.827 521.577 134.69 522.257 134.69C522.877 134.69 523.407 134.797 523.847 135.01C524.294 135.217 524.691 135.507 525.037 135.88V130.27H526.817ZM535.529 136.54C535.449 136.687 535.325 136.76 535.159 136.76C535.059 136.76 534.945 136.723 534.819 136.65C534.692 136.577 534.535 136.497 534.349 136.41C534.169 136.317 533.952 136.233 533.699 136.16C533.445 136.08 533.145 136.04 532.799 136.04C532.499 136.04 532.229 136.08 531.989 136.16C531.749 136.233 531.542 136.337 531.369 136.47C531.202 136.603 531.072 136.76 530.979 136.94C530.892 137.113 530.849 137.303 530.849 137.51C530.849 137.77 530.922 137.987 531.069 138.16C531.222 138.333 531.422 138.483 531.669 138.61C531.915 138.737 532.195 138.85 532.509 138.95C532.822 139.043 533.142 139.147 533.469 139.26C533.802 139.367 534.125 139.487 534.439 139.62C534.752 139.753 535.032 139.92 535.279 140.12C535.525 140.32 535.722 140.567 535.869 140.86C536.022 141.147 536.099 141.493 536.099 141.9C536.099 142.367 536.015 142.8 535.849 143.2C535.682 143.593 535.435 143.937 535.109 144.23C534.782 144.517 534.382 144.743 533.909 144.91C533.435 145.077 532.889 145.16 532.269 145.16C531.562 145.16 530.922 145.047 530.349 144.82C529.775 144.587 529.289 144.29 528.889 143.93L529.309 143.25C529.362 143.163 529.425 143.097 529.499 143.05C529.572 143.003 529.665 142.98 529.779 142.98C529.899 142.98 530.025 143.027 530.159 143.12C530.292 143.213 530.452 143.317 530.639 143.43C530.832 143.543 531.065 143.647 531.339 143.74C531.612 143.833 531.952 143.88 532.359 143.88C532.705 143.88 533.009 143.837 533.269 143.75C533.529 143.657 533.745 143.533 533.919 143.38C534.092 143.227 534.219 143.05 534.299 142.85C534.385 142.65 534.429 142.437 534.429 142.21C534.429 141.93 534.352 141.7 534.199 141.52C534.052 141.333 533.855 141.177 533.609 141.05C533.362 140.917 533.079 140.803 532.759 140.71C532.445 140.61 532.122 140.507 531.789 140.4C531.462 140.293 531.139 140.173 530.819 140.04C530.505 139.9 530.225 139.727 529.979 139.52C529.732 139.313 529.532 139.06 529.379 138.76C529.232 138.453 529.159 138.083 529.159 137.65C529.159 137.263 529.239 136.893 529.399 136.54C529.559 136.18 529.792 135.867 530.099 135.6C530.405 135.327 530.782 135.11 531.229 134.95C531.675 134.79 532.185 134.71 532.759 134.71C533.425 134.71 534.022 134.817 534.549 135.03C535.082 135.237 535.542 135.523 535.929 135.89L535.529 136.54ZM545.188 142.56C545.515 143 545.872 143.31 546.258 143.49C546.652 143.67 547.082 143.76 547.548 143.76C548.502 143.76 549.232 143.423 549.738 142.75C550.245 142.077 550.498 141.073 550.498 139.74C550.498 138.5 550.272 137.59 549.818 137.01C549.372 136.423 548.732 136.13 547.898 136.13C547.318 136.13 546.812 136.263 546.378 136.53C545.952 136.797 545.555 137.173 545.188 137.66V142.56ZM545.188 136.33C545.615 135.837 546.095 135.443 546.628 135.15C547.168 134.857 547.788 134.71 548.488 134.71C549.082 134.71 549.615 134.823 550.088 135.05C550.568 135.277 550.975 135.607 551.308 136.04C551.642 136.467 551.895 136.987 552.068 137.6C552.248 138.213 552.338 138.903 552.338 139.67C552.338 140.49 552.238 141.237 552.038 141.91C551.838 142.583 551.548 143.16 551.168 143.64C550.795 144.113 550.338 144.483 549.798 144.75C549.258 145.01 548.652 145.14 547.978 145.14C547.312 145.14 546.748 145.017 546.288 144.77C545.835 144.517 545.438 144.16 545.098 143.7L545.008 144.62C544.955 144.873 544.802 145 544.548 145H543.398V130.27H545.188V136.33ZM561.37 138.83C561.37 138.417 561.31 138.04 561.19 137.7C561.076 137.353 560.906 137.057 560.68 136.81C560.46 136.557 560.19 136.363 559.87 136.23C559.55 136.09 559.186 136.02 558.78 136.02C557.926 136.02 557.25 136.27 556.75 136.77C556.256 137.263 555.95 137.95 555.83 138.83H561.37ZM562.81 143.58C562.59 143.847 562.326 144.08 562.02 144.28C561.713 144.473 561.383 144.633 561.03 144.76C560.683 144.887 560.323 144.98 559.95 145.04C559.576 145.107 559.206 145.14 558.84 145.14C558.14 145.14 557.493 145.023 556.9 144.79C556.313 144.55 555.803 144.203 555.37 143.75C554.943 143.29 554.61 142.723 554.37 142.05C554.13 141.377 554.01 140.603 554.01 139.73C554.01 139.023 554.116 138.363 554.33 137.75C554.55 137.137 554.863 136.607 555.27 136.16C555.676 135.707 556.173 135.353 556.76 135.1C557.346 134.84 558.006 134.71 558.74 134.71C559.346 134.71 559.906 134.813 560.42 135.02C560.94 135.22 561.386 135.513 561.76 135.9C562.14 136.28 562.436 136.753 562.65 137.32C562.863 137.88 562.97 138.52 562.97 139.24C562.97 139.52 562.94 139.707 562.88 139.8C562.82 139.893 562.706 139.94 562.54 139.94H555.77C555.79 140.58 555.876 141.137 556.03 141.61C556.19 142.083 556.41 142.48 556.69 142.8C556.97 143.113 557.303 143.35 557.69 143.51C558.076 143.663 558.51 143.74 558.99 143.74C559.436 143.74 559.82 143.69 560.14 143.59C560.466 143.483 560.746 143.37 560.98 143.25C561.213 143.13 561.406 143.02 561.56 142.92C561.72 142.813 561.856 142.76 561.97 142.76C562.116 142.76 562.23 142.817 562.31 142.93L562.81 143.58ZM568.188 145.16C567.388 145.16 566.771 144.937 566.338 144.49C565.911 144.043 565.698 143.4 565.698 142.56V136.36H564.478C564.371 136.36 564.281 136.33 564.208 136.27C564.135 136.203 564.098 136.103 564.098 135.97V135.26L565.758 135.05L566.168 131.92C566.188 131.82 566.231 131.74 566.298 131.68C566.371 131.613 566.465 131.58 566.578 131.58H567.478V135.07H572.248L572.658 131.92C572.678 131.82 572.721 131.74 572.788 131.68C572.861 131.613 572.955 131.58 573.068 131.58H573.968V135.07H576.898V136.36H573.968V142.44C573.968 142.867 574.071 143.183 574.278 143.39C574.491 143.597 574.758 143.7 575.078 143.7C575.265 143.7 575.425 143.677 575.558 143.63C575.698 143.577 575.818 143.52 575.918 143.46C576.018 143.4 576.101 143.347 576.168 143.3C576.241 143.247 576.305 143.22 576.358 143.22C576.458 143.22 576.541 143.277 576.608 143.39L577.138 144.24C576.825 144.527 576.451 144.753 576.018 144.92C575.585 145.08 575.138 145.16 574.678 145.16C573.885 145.16 573.271 144.937 572.838 144.49C572.405 144.043 572.188 143.4 572.188 142.56V136.36H567.478V142.44C567.478 142.867 567.581 143.183 567.788 143.39C567.995 143.597 568.261 143.7 568.588 143.7C568.775 143.7 568.935 143.677 569.068 143.63C569.208 143.577 569.328 143.52 569.428 143.46C569.528 143.4 569.611 143.347 569.678 143.3C569.751 143.247 569.815 143.22 569.868 143.22C569.961 143.22 570.045 143.277 570.118 143.39L570.638 144.24C570.331 144.527 569.961 144.753 569.528 144.92C569.095 145.08 568.648 145.16 568.188 145.16ZM585.452 138.83C585.452 138.417 585.392 138.04 585.272 137.7C585.158 137.353 584.988 137.057 584.762 136.81C584.542 136.557 584.272 136.363 583.952 136.23C583.632 136.09 583.268 136.02 582.862 136.02C582.008 136.02 581.332 136.27 580.832 136.77C580.338 137.263 580.032 137.95 579.912 138.83H585.452ZM586.892 143.58C586.672 143.847 586.408 144.08 586.102 144.28C585.795 144.473 585.465 144.633 585.112 144.76C584.765 144.887 584.405 144.98 584.032 145.04C583.658 145.107 583.288 145.14 582.922 145.14C582.222 145.14 581.575 145.023 580.982 144.79C580.395 144.55 579.885 144.203 579.452 143.75C579.025 143.29 578.692 142.723 578.452 142.05C578.212 141.377 578.092 140.603 578.092 139.73C578.092 139.023 578.198 138.363 578.412 137.75C578.632 137.137 578.945 136.607 579.352 136.16C579.758 135.707 580.255 135.353 580.842 135.1C581.428 134.84 582.088 134.71 582.822 134.71C583.428 134.71 583.988 134.813 584.502 135.02C585.022 135.22 585.468 135.513 585.842 135.9C586.222 136.28 586.518 136.753 586.732 137.32C586.945 137.88 587.052 138.52 587.052 139.24C587.052 139.52 587.022 139.707 586.962 139.8C586.902 139.893 586.788 139.94 586.622 139.94H579.852C579.872 140.58 579.958 141.137 580.112 141.61C580.272 142.083 580.492 142.48 580.772 142.8C581.052 143.113 581.385 143.35 581.772 143.51C582.158 143.663 582.592 143.74 583.072 143.74C583.518 143.74 583.902 143.69 584.222 143.59C584.548 143.483 584.828 143.37 585.062 143.25C585.295 143.13 585.488 143.02 585.642 142.92C585.802 142.813 585.938 142.76 586.052 142.76C586.198 142.76 586.312 142.817 586.392 142.93L586.892 143.58ZM590.928 136.9C591.248 136.207 591.641 135.667 592.108 135.28C592.575 134.887 593.145 134.69 593.818 134.69C594.031 134.69 594.235 134.713 594.428 134.76C594.628 134.807 594.805 134.88 594.958 134.98L594.828 136.31C594.788 136.477 594.688 136.56 594.528 136.56C594.435 136.56 594.298 136.54 594.118 136.5C593.938 136.46 593.735 136.44 593.508 136.44C593.188 136.44 592.901 136.487 592.648 136.58C592.401 136.673 592.178 136.813 591.978 137C591.785 137.18 591.608 137.407 591.448 137.68C591.295 137.947 591.155 138.253 591.028 138.6V145H589.238V134.87H590.258C590.451 134.87 590.585 134.907 590.658 134.98C590.731 135.053 590.781 135.18 590.808 135.36L590.928 136.9ZM604.321 145.16C603.521 145.16 602.904 144.937 602.471 144.49C602.044 144.043 601.831 143.4 601.831 142.56V136.36H600.611C600.504 136.36 600.414 136.33 600.341 136.27C600.267 136.203 600.231 136.103 600.231 135.97V135.26L601.891 135.05L602.301 131.92C602.321 131.82 602.364 131.74 602.431 131.68C602.504 131.613 602.597 131.58 602.711 131.58H603.611V135.07H606.541V136.36H603.611V142.44C603.611 142.867 603.714 143.183 603.921 143.39C604.127 143.597 604.394 143.7 604.721 143.7C604.907 143.7 605.067 143.677 605.201 143.63C605.341 143.577 605.461 143.52 605.561 143.46C605.661 143.4 605.744 143.347 605.811 143.3C605.884 143.247 605.947 143.22 606.001 143.22C606.094 143.22 606.177 143.277 606.251 143.39L606.771 144.24C606.464 144.527 606.094 144.753 605.661 144.92C605.227 145.08 604.781 145.16 604.321 145.16ZM612.59 134.71C613.33 134.71 613.997 134.833 614.59 135.08C615.183 135.327 615.69 135.677 616.11 136.13C616.53 136.583 616.85 137.133 617.07 137.78C617.297 138.42 617.41 139.137 617.41 139.93C617.41 140.73 617.297 141.45 617.07 142.09C616.85 142.73 616.53 143.277 616.11 143.73C615.69 144.183 615.183 144.533 614.59 144.78C613.997 145.02 613.33 145.14 612.59 145.14C611.843 145.14 611.17 145.02 610.57 144.78C609.977 144.533 609.47 144.183 609.05 143.73C608.63 143.277 608.307 142.73 608.08 142.09C607.86 141.45 607.75 140.73 607.75 139.93C607.75 139.137 607.86 138.42 608.08 137.78C608.307 137.133 608.63 136.583 609.05 136.13C609.47 135.677 609.977 135.327 610.57 135.08C611.17 134.833 611.843 134.71 612.59 134.71ZM612.59 143.75C613.59 143.75 614.337 143.417 614.83 142.75C615.323 142.077 615.57 141.14 615.57 139.94C615.57 138.733 615.323 137.793 614.83 137.12C614.337 136.447 613.59 136.11 612.59 136.11C612.083 136.11 611.64 136.197 611.26 136.37C610.887 136.543 610.573 136.793 610.32 137.12C610.073 137.447 609.887 137.85 609.76 138.33C609.64 138.803 609.58 139.34 609.58 139.94C609.58 141.14 609.827 142.077 610.32 142.75C610.82 143.417 611.577 143.75 612.59 143.75ZM623.139 140.05C623.499 140.05 623.816 140 624.089 139.9C624.363 139.8 624.593 139.66 624.779 139.48C624.966 139.3 625.106 139.087 625.199 138.84C625.293 138.587 625.339 138.31 625.339 138.01C625.339 137.39 625.149 136.897 624.769 136.53C624.396 136.163 623.853 135.98 623.139 135.98C622.419 135.98 621.869 136.163 621.489 136.53C621.116 136.897 620.929 137.39 620.929 138.01C620.929 138.31 620.976 138.587 621.069 138.84C621.169 139.087 621.313 139.3 621.499 139.48C621.686 139.66 621.916 139.8 622.189 139.9C622.463 140 622.779 140.05 623.139 140.05ZM626.349 145.55C626.349 145.303 626.279 145.103 626.139 144.95C625.999 144.797 625.809 144.677 625.569 144.59C625.336 144.503 625.063 144.443 624.749 144.41C624.436 144.37 624.103 144.34 623.749 144.32C623.403 144.3 623.049 144.28 622.689 144.26C622.329 144.24 621.983 144.207 621.649 144.16C621.276 144.333 620.969 144.553 620.729 144.82C620.496 145.08 620.379 145.387 620.379 145.74C620.379 145.967 620.436 146.177 620.549 146.37C620.669 146.57 620.849 146.74 621.089 146.88C621.329 147.027 621.629 147.14 621.989 147.22C622.356 147.307 622.786 147.35 623.279 147.35C623.759 147.35 624.189 147.307 624.569 147.22C624.949 147.133 625.269 147.01 625.529 146.85C625.796 146.69 625.999 146.5 626.139 146.28C626.279 146.06 626.349 145.817 626.349 145.55ZM628.159 135.27V135.93C628.159 136.15 628.019 136.29 627.739 136.35L626.589 136.5C626.816 136.94 626.929 137.427 626.929 137.96C626.929 138.453 626.833 138.903 626.639 139.31C626.453 139.71 626.193 140.053 625.859 140.34C625.526 140.627 625.126 140.847 624.659 141C624.193 141.153 623.686 141.23 623.139 141.23C622.666 141.23 622.219 141.173 621.799 141.06C621.586 141.193 621.423 141.337 621.309 141.49C621.196 141.637 621.139 141.787 621.139 141.94C621.139 142.18 621.236 142.363 621.429 142.49C621.629 142.61 621.889 142.697 622.209 142.75C622.529 142.803 622.893 142.837 623.299 142.85C623.713 142.863 624.133 142.887 624.559 142.92C624.993 142.947 625.413 142.997 625.819 143.07C626.233 143.143 626.599 143.263 626.919 143.43C627.239 143.597 627.496 143.827 627.689 144.12C627.889 144.413 627.989 144.793 627.989 145.26C627.989 145.693 627.879 146.113 627.659 146.52C627.446 146.927 627.136 147.287 626.729 147.6C626.323 147.92 625.823 148.173 625.229 148.36C624.643 148.553 623.979 148.65 623.239 148.65C622.499 148.65 621.853 148.577 621.299 148.43C620.746 148.283 620.286 148.087 619.919 147.84C619.553 147.593 619.276 147.307 619.089 146.98C618.909 146.66 618.819 146.323 618.819 145.97C618.819 145.47 618.976 145.047 619.289 144.7C619.603 144.353 620.033 144.077 620.579 143.87C620.279 143.737 620.039 143.56 619.859 143.34C619.686 143.113 619.599 142.81 619.599 142.43C619.599 142.283 619.626 142.133 619.679 141.98C619.733 141.82 619.813 141.663 619.919 141.51C620.033 141.35 620.169 141.2 620.329 141.06C620.489 140.92 620.676 140.797 620.889 140.69C620.389 140.41 619.999 140.04 619.719 139.58C619.439 139.113 619.299 138.573 619.299 137.96C619.299 137.467 619.393 137.02 619.579 136.62C619.773 136.213 620.039 135.87 620.379 135.59C620.719 135.303 621.123 135.083 621.589 134.93C622.063 134.777 622.579 134.7 623.139 134.7C623.579 134.7 623.989 134.75 624.369 134.85C624.749 134.943 625.096 135.083 625.409 135.27H628.159ZM636.624 138.83C636.624 138.417 636.564 138.04 636.444 137.7C636.33 137.353 636.16 137.057 635.934 136.81C635.714 136.557 635.444 136.363 635.124 136.23C634.804 136.09 634.44 136.02 634.034 136.02C633.18 136.02 632.504 136.27 632.004 136.77C631.51 137.263 631.204 137.95 631.084 138.83H636.624ZM638.064 143.58C637.844 143.847 637.58 144.08 637.274 144.28C636.967 144.473 636.637 144.633 636.284 144.76C635.937 144.887 635.577 144.98 635.204 145.04C634.83 145.107 634.46 145.14 634.094 145.14C633.394 145.14 632.747 145.023 632.154 144.79C631.567 144.55 631.057 144.203 630.624 143.75C630.197 143.29 629.864 142.723 629.624 142.05C629.384 141.377 629.264 140.603 629.264 139.73C629.264 139.023 629.37 138.363 629.584 137.75C629.804 137.137 630.117 136.607 630.524 136.16C630.93 135.707 631.427 135.353 632.014 135.1C632.6 134.84 633.26 134.71 633.994 134.71C634.6 134.71 635.16 134.813 635.674 135.02C636.194 135.22 636.64 135.513 637.014 135.9C637.394 136.28 637.69 136.753 637.904 137.32C638.117 137.88 638.224 138.52 638.224 139.24C638.224 139.52 638.194 139.707 638.134 139.8C638.074 139.893 637.96 139.94 637.794 139.94H631.024C631.044 140.58 631.13 141.137 631.284 141.61C631.444 142.083 631.664 142.48 631.944 142.8C632.224 143.113 632.557 143.35 632.944 143.51C633.33 143.663 633.764 143.74 634.244 143.74C634.69 143.74 635.074 143.69 635.394 143.59C635.72 143.483 636 143.37 636.234 143.25C636.467 143.13 636.66 143.02 636.814 142.92C636.974 142.813 637.11 142.76 637.224 142.76C637.37 142.76 637.484 142.817 637.564 142.93L638.064 143.58ZM643.442 145.16C642.642 145.16 642.025 144.937 641.592 144.49C641.165 144.043 640.952 143.4 640.952 142.56V136.36H639.732C639.625 136.36 639.535 136.33 639.462 136.27C639.389 136.203 639.352 136.103 639.352 135.97V135.26L641.012 135.05L641.422 131.92C641.442 131.82 641.485 131.74 641.552 131.68C641.625 131.613 641.719 131.58 641.832 131.58H642.732V135.07H645.662V136.36H642.732V142.44C642.732 142.867 642.835 143.183 643.042 143.39C643.249 143.597 643.515 143.7 643.842 143.7C644.029 143.7 644.189 143.677 644.322 143.63C644.462 143.577 644.582 143.52 644.682 143.46C644.782 143.4 644.865 143.347 644.932 143.3C645.005 143.247 645.069 143.22 645.122 143.22C645.215 143.22 645.299 143.277 645.372 143.39L645.892 144.24C645.585 144.527 645.215 144.753 644.782 144.92C644.349 145.08 643.902 145.16 643.442 145.16ZM649.29 136.22C649.723 135.76 650.203 135.393 650.73 135.12C651.257 134.847 651.863 134.71 652.55 134.71C653.103 134.71 653.59 134.803 654.01 134.99C654.437 135.17 654.79 135.43 655.07 135.77C655.357 136.103 655.573 136.507 655.72 136.98C655.867 137.453 655.94 137.977 655.94 138.55V145H654.15V138.55C654.15 137.783 653.973 137.19 653.62 136.77C653.273 136.343 652.743 136.13 652.03 136.13C651.503 136.13 651.01 136.257 650.55 136.51C650.097 136.763 649.677 137.107 649.29 137.54V145H647.5V130.27H649.29V136.22ZM665.432 138.83C665.432 138.417 665.372 138.04 665.252 137.7C665.139 137.353 664.969 137.057 664.742 136.81C664.522 136.557 664.252 136.363 663.932 136.23C663.612 136.09 663.249 136.02 662.842 136.02C661.989 136.02 661.312 136.27 660.812 136.77C660.319 137.263 660.012 137.95 659.892 138.83H665.432ZM666.872 143.58C666.652 143.847 666.389 144.08 666.082 144.28C665.776 144.473 665.446 144.633 665.092 144.76C664.746 144.887 664.386 144.98 664.012 145.04C663.639 145.107 663.269 145.14 662.902 145.14C662.202 145.14 661.556 145.023 660.962 144.79C660.376 144.55 659.866 144.203 659.432 143.75C659.006 143.29 658.672 142.723 658.432 142.05C658.192 141.377 658.072 140.603 658.072 139.73C658.072 139.023 658.179 138.363 658.392 137.75C658.612 137.137 658.926 136.607 659.332 136.16C659.739 135.707 660.236 135.353 660.822 135.1C661.409 134.84 662.069 134.71 662.802 134.71C663.409 134.71 663.969 134.813 664.482 135.02C665.002 135.22 665.449 135.513 665.822 135.9C666.202 136.28 666.499 136.753 666.712 137.32C666.926 137.88 667.032 138.52 667.032 139.24C667.032 139.52 667.002 139.707 666.942 139.8C666.882 139.893 666.769 139.94 666.602 139.94H659.832C659.852 140.58 659.939 141.137 660.092 141.61C660.252 142.083 660.472 142.48 660.752 142.8C661.032 143.113 661.366 143.35 661.752 143.51C662.139 143.663 662.572 143.74 663.052 143.74C663.499 143.74 663.882 143.69 664.202 143.59C664.529 143.483 664.809 143.37 665.042 143.25C665.276 143.13 665.469 143.02 665.622 142.92C665.782 142.813 665.919 142.76 666.032 142.76C666.179 142.76 666.292 142.817 666.372 142.93L666.872 143.58ZM670.909 136.9C671.229 136.207 671.622 135.667 672.089 135.28C672.555 134.887 673.125 134.69 673.799 134.69C674.012 134.69 674.215 134.713 674.409 134.76C674.609 134.807 674.785 134.88 674.939 134.98L674.809 136.31C674.769 136.477 674.669 136.56 674.509 136.56C674.415 136.56 674.279 136.54 674.099 136.5C673.919 136.46 673.715 136.44 673.489 136.44C673.169 136.44 672.882 136.487 672.629 136.58C672.382 136.673 672.159 136.813 671.959 137C671.765 137.18 671.589 137.407 671.429 137.68C671.275 137.947 671.135 138.253 671.009 138.6V145H669.219V134.87H670.239C670.432 134.87 670.565 134.907 670.639 134.98C670.712 135.053 670.762 135.18 670.789 135.36L670.909 136.9ZM675.423 143.9C675.423 143.727 675.453 143.563 675.513 143.41C675.579 143.257 675.666 143.123 675.773 143.01C675.886 142.897 676.019 142.807 676.173 142.74C676.326 142.673 676.489 142.64 676.663 142.64C676.836 142.64 676.999 142.673 677.153 142.74C677.306 142.807 677.439 142.897 677.553 143.01C677.666 143.123 677.756 143.257 677.823 143.41C677.889 143.563 677.923 143.727 677.923 143.9C677.923 144.08 677.889 144.247 677.823 144.4C677.756 144.547 677.666 144.677 677.553 144.79C677.439 144.903 677.306 144.99 677.153 145.05C676.999 145.117 676.836 145.15 676.663 145.15C676.489 145.15 676.326 145.117 676.173 145.05C676.019 144.99 675.886 144.903 675.773 144.79C675.666 144.677 675.579 144.547 675.513 144.4C675.453 144.247 675.423 144.08 675.423 143.9Z" fill="#8D8A9B"/>
</svg>
