<svg width="1000" height="200" viewBox="0 0 1000 200" fill="none" xmlns="http://www.w3.org/2000/svg">
<rect width="1000" height="200" fill="#1F222F"/>
<path fill-rule="evenodd" clip-rule="evenodd" d="M581 47.551V32L456.592 32L456.592 47.551H456.593V109.755H472.144V47.551L581 47.551Z" fill="#8D8A9B"/>
<path d="M243.037 105.339C238.046 105.572 233.847 106.015 230.441 106.668C227.035 107.275 224.306 108.068 222.254 109.048C220.201 110.027 218.731 111.17 217.845 112.477C216.958 113.783 216.515 115.206 216.515 116.745C216.515 119.778 217.402 121.947 219.174 123.253C220.994 124.56 223.35 125.213 226.242 125.213C229.788 125.213 232.844 124.583 235.41 123.323C238.022 122.017 240.565 120.058 243.037 117.445V105.339ZM203.429 74.1977C211.687 66.6399 221.624 62.861 233.24 62.861C237.439 62.861 241.195 63.5608 244.507 64.9604C247.819 66.3133 250.619 68.2261 252.905 70.6987C255.191 73.1247 256.917 76.0405 258.083 79.4461C259.296 82.8518 259.903 86.5841 259.903 90.6429V135.99H252.065C250.432 135.99 249.172 135.756 248.286 135.29C247.399 134.777 246.7 133.774 246.187 132.281L244.647 127.102C242.828 128.735 241.055 130.181 239.329 131.441C237.602 132.654 235.806 133.68 233.94 134.52C232.074 135.36 230.068 135.99 227.922 136.41C225.822 136.876 223.49 137.109 220.924 137.109C217.891 137.109 215.092 136.713 212.526 135.92C209.96 135.08 207.744 133.844 205.878 132.211C204.012 130.578 202.566 128.548 201.54 126.123C200.513 123.697 200 120.874 200 117.655C200 115.836 200.303 114.039 200.91 112.267C201.516 110.447 202.496 108.721 203.849 107.088C205.248 105.455 207.045 103.916 209.237 102.469C211.43 101.023 214.113 99.7635 217.285 98.6905C220.504 97.6175 224.236 96.7544 228.482 96.1013C232.727 95.4015 237.579 94.9816 243.037 94.8417V90.6429C243.037 85.8376 242.011 82.292 239.958 80.006C237.906 77.6733 234.943 76.507 231.071 76.507C228.272 76.507 225.939 76.8336 224.073 77.4867C222.254 78.1399 220.644 78.8863 219.244 79.7261C217.845 80.5192 216.562 81.2423 215.396 81.8954C214.276 82.5486 213.016 82.8751 211.617 82.8751C210.404 82.8751 209.377 82.5719 208.538 81.9654C207.698 81.3123 207.021 80.5658 206.508 79.7261L203.429 74.1977Z" fill="white"/>
<path d="M327.617 79.3762C327.103 80.0293 326.59 80.5425 326.077 80.9157C325.61 81.2889 324.911 81.4756 323.978 81.4756C323.091 81.4756 322.228 81.219 321.388 80.7058C320.549 80.1459 319.546 79.5395 318.379 78.8863C317.213 78.1865 315.813 77.58 314.18 77.0668C312.594 76.507 310.611 76.2271 308.232 76.2271C305.2 76.2271 302.54 76.7869 300.254 77.9066C297.968 78.9796 296.056 80.5425 294.516 82.5952C293.023 84.648 291.904 87.1439 291.157 90.083C290.411 92.9755 290.037 96.2646 290.037 99.9502C290.037 103.776 290.434 107.181 291.227 110.167C292.067 113.153 293.257 115.672 294.796 117.725C296.336 119.731 298.202 121.271 300.394 122.344C302.587 123.37 305.06 123.883 307.812 123.883C310.565 123.883 312.781 123.557 314.46 122.903C316.187 122.204 317.633 121.457 318.799 120.664C319.965 119.824 320.968 119.078 321.808 118.425C322.695 117.725 323.674 117.375 324.747 117.375C326.147 117.375 327.197 117.912 327.896 118.985L332.865 125.283C330.952 127.522 328.876 129.412 326.637 130.951C324.397 132.444 322.065 133.657 319.639 134.59C317.26 135.476 314.787 136.106 312.221 136.479C309.702 136.853 307.182 137.039 304.663 137.039C300.231 137.039 296.056 136.223 292.137 134.59C288.218 132.911 284.789 130.485 281.85 127.312C278.911 124.14 276.578 120.268 274.852 115.696C273.172 111.077 272.333 105.828 272.333 99.9502C272.333 94.6784 273.079 89.8031 274.572 85.3244C276.112 80.7991 278.351 76.9036 281.29 73.6378C284.229 70.3255 287.868 67.7362 292.207 65.8701C296.546 64.004 301.537 63.0709 307.182 63.0709C312.548 63.0709 317.236 63.934 321.248 65.6602C325.307 67.3863 328.946 69.8589 332.165 73.078L327.617 79.3762Z" fill="white"/>
<path d="M360.986 71.8884C363.785 69.2758 366.864 67.1531 370.223 65.5202C373.582 63.8874 377.524 63.0709 382.05 63.0709C385.969 63.0709 389.444 63.7474 392.477 65.1003C395.509 66.4066 398.028 68.2727 400.034 70.6987C402.087 73.078 403.627 75.9472 404.653 79.3062C405.726 82.6186 406.263 86.2808 406.263 90.293V135.99H388.978V90.293C388.978 85.9076 387.975 82.5253 385.969 80.1459C383.962 77.72 380.907 76.507 376.801 76.507C373.815 76.507 371.016 77.1835 368.404 78.5364C365.791 79.8894 363.318 81.7321 360.986 84.0648V135.99H343.701V32H360.986V71.8884Z" fill="white"/>
<path d="M502.055 76.647C504.295 72.3549 506.954 68.9959 510.033 66.5699C513.112 64.0973 516.751 62.861 520.95 62.861C524.262 62.861 526.921 63.5841 528.927 65.0304L527.808 77.9766C527.574 78.8163 527.225 79.4228 526.758 79.796C526.338 80.1226 525.755 80.2859 525.008 80.2859C524.309 80.2859 523.259 80.1693 521.859 79.936C520.506 79.7027 519.177 79.5861 517.871 79.5861C515.958 79.5861 514.255 79.866 512.762 80.4259C511.269 80.9857 509.916 81.8021 508.703 82.8751C507.537 83.9015 506.487 85.1611 505.554 86.654C504.668 88.1469 503.828 89.8498 503.035 91.7625V135.99H485.75V64.1906H495.897C497.67 64.1906 498.906 64.5172 499.606 65.1703C500.306 65.7768 500.772 66.8965 501.005 68.5293L502.055 76.647Z" fill="white"/>
<path d="M581 109.755C581 124.785 568.816 136.969 553.786 136.969C538.756 136.969 526.571 124.785 526.571 109.755C526.571 94.725 538.756 82.5408 553.786 82.5408C568.816 82.5408 581 94.725 581 109.755Z" fill="white"/>
<path d="M472.143 109.755C472.143 124.785 459.959 136.969 444.929 136.969C429.899 136.969 417.714 124.785 417.714 109.755C417.714 94.725 429.899 82.5408 444.929 82.5408C459.959 82.5408 472.143 94.725 472.143 109.755Z" fill="white"/>
<rect x="565.449" y="32" width="15.551" height="77.7551" fill="white"/>
<path d="M427.974 165V150.818H429.472C429.827 150.818 430.046 150.991 430.13 151.336L430.312 152.792C430.835 152.148 431.423 151.621 432.076 151.21C432.729 150.799 433.485 150.594 434.344 150.594C435.296 150.594 436.066 150.86 436.654 151.392C437.251 151.924 437.681 152.643 437.942 153.548C438.147 153.035 438.409 152.591 438.726 152.218C439.053 151.845 439.417 151.537 439.818 151.294C440.219 151.051 440.644 150.874 441.092 150.762C441.549 150.65 442.011 150.594 442.478 150.594C443.225 150.594 443.887 150.715 444.466 150.958C445.054 151.191 445.549 151.537 445.95 151.994C446.361 152.451 446.673 153.016 446.888 153.688C447.103 154.351 447.21 155.111 447.21 155.97V165H444.704V155.97C444.704 154.859 444.461 154.019 443.976 153.45C443.491 152.871 442.791 152.582 441.876 152.582C441.465 152.582 441.073 152.657 440.7 152.806C440.336 152.946 440.014 153.156 439.734 153.436C439.454 153.716 439.23 154.071 439.062 154.5C438.903 154.92 438.824 155.41 438.824 155.97V165H436.318V155.97C436.318 154.831 436.089 153.982 435.632 153.422C435.175 152.862 434.507 152.582 433.63 152.582C433.014 152.582 432.445 152.75 431.922 153.086C431.399 153.413 430.919 153.861 430.48 154.43V165H427.974ZM462.659 150.818V165H461.175C460.821 165 460.597 164.827 460.503 164.482L460.307 162.956C459.691 163.637 459.001 164.188 458.235 164.608C457.47 165.019 456.593 165.224 455.603 165.224C454.829 165.224 454.143 165.098 453.545 164.846C452.957 164.585 452.463 164.221 452.061 163.754C451.66 163.287 451.357 162.723 451.151 162.06C450.955 161.397 450.857 160.665 450.857 159.862V150.818H453.349V159.862C453.349 160.935 453.592 161.766 454.077 162.354C454.572 162.942 455.323 163.236 456.331 163.236C457.069 163.236 457.755 163.063 458.389 162.718C459.033 162.363 459.626 161.878 460.167 161.262V150.818H462.659ZM474.871 153.156C474.759 153.361 474.586 153.464 474.353 153.464C474.213 153.464 474.054 153.413 473.877 153.31C473.699 153.207 473.48 153.095 473.219 152.974C472.967 152.843 472.663 152.727 472.309 152.624C471.954 152.512 471.534 152.456 471.049 152.456C470.629 152.456 470.251 152.512 469.915 152.624C469.579 152.727 469.289 152.871 469.047 153.058C468.813 153.245 468.631 153.464 468.501 153.716C468.379 153.959 468.319 154.225 468.319 154.514C468.319 154.878 468.421 155.181 468.627 155.424C468.841 155.667 469.121 155.877 469.467 156.054C469.812 156.231 470.204 156.39 470.643 156.53C471.081 156.661 471.529 156.805 471.987 156.964C472.453 157.113 472.906 157.281 473.345 157.468C473.783 157.655 474.175 157.888 474.521 158.168C474.866 158.448 475.141 158.793 475.347 159.204C475.561 159.605 475.669 160.091 475.669 160.66C475.669 161.313 475.552 161.92 475.319 162.48C475.085 163.031 474.74 163.511 474.283 163.922C473.825 164.323 473.265 164.641 472.603 164.874C471.94 165.107 471.175 165.224 470.307 165.224C469.317 165.224 468.421 165.065 467.619 164.748C466.816 164.421 466.135 164.006 465.575 163.502L466.163 162.55C466.237 162.429 466.326 162.335 466.429 162.27C466.531 162.205 466.662 162.172 466.821 162.172C466.989 162.172 467.166 162.237 467.353 162.368C467.539 162.499 467.763 162.643 468.025 162.802C468.295 162.961 468.622 163.105 469.005 163.236C469.387 163.367 469.863 163.432 470.433 163.432C470.918 163.432 471.343 163.371 471.707 163.25C472.071 163.119 472.374 162.947 472.617 162.732C472.859 162.517 473.037 162.27 473.149 161.99C473.27 161.71 473.331 161.411 473.331 161.094C473.331 160.702 473.223 160.38 473.009 160.128C472.803 159.867 472.528 159.647 472.183 159.47C471.837 159.283 471.441 159.125 470.993 158.994C470.554 158.854 470.101 158.709 469.635 158.56C469.177 158.411 468.725 158.243 468.277 158.056C467.838 157.86 467.446 157.617 467.101 157.328C466.755 157.039 466.475 156.684 466.261 156.264C466.055 155.835 465.953 155.317 465.953 154.71C465.953 154.169 466.065 153.651 466.289 153.156C466.513 152.652 466.839 152.213 467.269 151.84C467.698 151.457 468.225 151.154 468.851 150.93C469.476 150.706 470.19 150.594 470.993 150.594C471.926 150.594 472.761 150.743 473.499 151.042C474.245 151.331 474.889 151.733 475.431 152.246L474.871 153.156ZM481.356 150.818V165H478.864V150.818H481.356ZM481.888 146.366C481.888 146.609 481.837 146.837 481.734 147.052C481.641 147.257 481.51 147.444 481.342 147.612C481.183 147.771 480.992 147.897 480.768 147.99C480.553 148.083 480.325 148.13 480.082 148.13C479.839 148.13 479.611 148.083 479.396 147.99C479.191 147.897 479.009 147.771 478.85 147.612C478.691 147.444 478.565 147.257 478.472 147.052C478.379 146.837 478.332 146.609 478.332 146.366C478.332 146.123 478.379 145.895 478.472 145.68C478.565 145.456 478.691 145.265 478.85 145.106C479.009 144.938 479.191 144.807 479.396 144.714C479.611 144.621 479.839 144.574 480.082 144.574C480.325 144.574 480.553 144.621 480.768 144.714C480.992 144.807 481.183 144.938 481.342 145.106C481.51 145.265 481.641 145.456 481.734 145.68C481.837 145.895 481.888 146.123 481.888 146.366ZM495.321 153.338C495.246 153.441 495.171 153.52 495.097 153.576C495.022 153.632 494.919 153.66 494.789 153.66C494.649 153.66 494.495 153.604 494.327 153.492C494.159 153.371 493.949 153.24 493.697 153.1C493.454 152.96 493.151 152.834 492.787 152.722C492.432 152.601 491.993 152.54 491.471 152.54C490.771 152.54 490.155 152.666 489.623 152.918C489.091 153.161 488.643 153.515 488.279 153.982C487.924 154.449 487.653 155.013 487.467 155.676C487.289 156.339 487.201 157.081 487.201 157.902C487.201 158.761 487.299 159.526 487.495 160.198C487.691 160.861 487.966 161.421 488.321 161.878C488.685 162.326 489.119 162.671 489.623 162.914C490.136 163.147 490.71 163.264 491.345 163.264C491.951 163.264 492.451 163.194 492.843 163.054C493.235 162.905 493.557 162.741 493.809 162.564C494.07 162.387 494.285 162.228 494.453 162.088C494.63 161.939 494.803 161.864 494.971 161.864C495.176 161.864 495.335 161.943 495.447 162.102L496.147 163.012C495.839 163.395 495.489 163.721 495.097 163.992C494.705 164.263 494.28 164.491 493.823 164.678C493.375 164.855 492.903 164.986 492.409 165.07C491.914 165.154 491.41 165.196 490.897 165.196C490.01 165.196 489.184 165.033 488.419 164.706C487.663 164.379 487.005 163.908 486.445 163.292C485.885 162.667 485.446 161.901 485.129 160.996C484.811 160.091 484.653 159.059 484.653 157.902C484.653 156.847 484.797 155.872 485.087 154.976C485.385 154.08 485.815 153.31 486.375 152.666C486.944 152.013 487.639 151.504 488.461 151.14C489.291 150.776 490.243 150.594 491.317 150.594C492.315 150.594 493.193 150.757 493.949 151.084C494.714 151.401 495.391 151.854 495.979 152.442L495.321 153.338ZM514.246 153.156C514.134 153.361 513.961 153.464 513.728 153.464C513.588 153.464 513.429 153.413 513.252 153.31C513.074 153.207 512.855 153.095 512.594 152.974C512.342 152.843 512.038 152.727 511.684 152.624C511.329 152.512 510.909 152.456 510.424 152.456C510.004 152.456 509.626 152.512 509.29 152.624C508.954 152.727 508.664 152.871 508.422 153.058C508.188 153.245 508.006 153.464 507.876 153.716C507.754 153.959 507.694 154.225 507.694 154.514C507.694 154.878 507.796 155.181 508.002 155.424C508.216 155.667 508.496 155.877 508.842 156.054C509.187 156.231 509.579 156.39 510.018 156.53C510.456 156.661 510.904 156.805 511.362 156.964C511.828 157.113 512.281 157.281 512.72 157.468C513.158 157.655 513.55 157.888 513.896 158.168C514.241 158.448 514.516 158.793 514.722 159.204C514.936 159.605 515.044 160.091 515.044 160.66C515.044 161.313 514.927 161.92 514.694 162.48C514.46 163.031 514.115 163.511 513.658 163.922C513.2 164.323 512.64 164.641 511.978 164.874C511.315 165.107 510.55 165.224 509.682 165.224C508.692 165.224 507.796 165.065 506.994 164.748C506.191 164.421 505.51 164.006 504.95 163.502L505.538 162.55C505.612 162.429 505.701 162.335 505.804 162.27C505.906 162.205 506.037 162.172 506.196 162.172C506.364 162.172 506.541 162.237 506.728 162.368C506.914 162.499 507.138 162.643 507.4 162.802C507.67 162.961 507.997 163.105 508.38 163.236C508.762 163.367 509.238 163.432 509.808 163.432C510.293 163.432 510.718 163.371 511.082 163.25C511.446 163.119 511.749 162.947 511.992 162.732C512.234 162.517 512.412 162.27 512.524 161.99C512.645 161.71 512.706 161.411 512.706 161.094C512.706 160.702 512.598 160.38 512.384 160.128C512.178 159.867 511.903 159.647 511.558 159.47C511.212 159.283 510.816 159.125 510.368 158.994C509.929 158.854 509.476 158.709 509.01 158.56C508.552 158.411 508.1 158.243 507.652 158.056C507.213 157.86 506.821 157.617 506.476 157.328C506.13 157.039 505.85 156.684 505.636 156.264C505.43 155.835 505.328 155.317 505.328 154.71C505.328 154.169 505.44 153.651 505.664 153.156C505.888 152.652 506.214 152.213 506.644 151.84C507.073 151.457 507.6 151.154 508.226 150.93C508.851 150.706 509.565 150.594 510.368 150.594C511.301 150.594 512.136 150.743 512.874 151.042C513.62 151.331 514.264 151.733 514.806 152.246L514.246 153.156ZM524.077 150.594C525.113 150.594 526.046 150.767 526.877 151.112C527.708 151.457 528.417 151.947 529.005 152.582C529.593 153.217 530.041 153.987 530.349 154.892C530.666 155.788 530.825 156.791 530.825 157.902C530.825 159.022 530.666 160.03 530.349 160.926C530.041 161.822 529.593 162.587 529.005 163.222C528.417 163.857 527.708 164.347 526.877 164.692C526.046 165.028 525.113 165.196 524.077 165.196C523.032 165.196 522.089 165.028 521.249 164.692C520.418 164.347 519.709 163.857 519.121 163.222C518.533 162.587 518.08 161.822 517.763 160.926C517.455 160.03 517.301 159.022 517.301 157.902C517.301 156.791 517.455 155.788 517.763 154.892C518.08 153.987 518.533 153.217 519.121 152.582C519.709 151.947 520.418 151.457 521.249 151.112C522.089 150.767 523.032 150.594 524.077 150.594ZM524.077 163.25C525.477 163.25 526.522 162.783 527.213 161.85C527.904 160.907 528.249 159.596 528.249 157.916C528.249 156.227 527.904 154.911 527.213 153.968C526.522 153.025 525.477 152.554 524.077 152.554C523.368 152.554 522.747 152.675 522.215 152.918C521.692 153.161 521.254 153.511 520.899 153.968C520.554 154.425 520.292 154.99 520.115 155.662C519.947 156.325 519.863 157.076 519.863 157.916C519.863 159.596 520.208 160.907 520.899 161.85C521.599 162.783 522.658 163.25 524.077 163.25ZM545.648 150.818V165H544.164C543.809 165 543.585 164.827 543.492 164.482L543.296 162.956C542.68 163.637 541.989 164.188 541.224 164.608C540.458 165.019 539.581 165.224 538.592 165.224C537.817 165.224 537.131 165.098 536.534 164.846C535.946 164.585 535.451 164.221 535.05 163.754C534.648 163.287 534.345 162.723 534.14 162.06C533.944 161.397 533.846 160.665 533.846 159.862V150.818H536.338V159.862C536.338 160.935 536.58 161.766 537.066 162.354C537.56 162.942 538.312 163.236 539.32 163.236C540.057 163.236 540.743 163.063 541.378 162.718C542.022 162.363 542.614 161.878 543.156 161.262V150.818H545.648ZM551.951 152.876C552.259 152.531 552.586 152.218 552.931 151.938C553.276 151.658 553.64 151.42 554.023 151.224C554.415 151.019 554.826 150.865 555.255 150.762C555.694 150.65 556.165 150.594 556.669 150.594C557.444 150.594 558.125 150.725 558.713 150.986C559.31 151.238 559.805 151.602 560.197 152.078C560.598 152.545 560.902 153.109 561.107 153.772C561.312 154.435 561.415 155.167 561.415 155.97V165H558.909V155.97C558.909 154.897 558.662 154.066 558.167 153.478C557.682 152.881 556.94 152.582 555.941 152.582C555.204 152.582 554.513 152.759 553.869 153.114C553.234 153.469 552.646 153.949 552.105 154.556V165H549.599V150.818H551.097C551.452 150.818 551.671 150.991 551.755 151.336L551.951 152.876ZM574.452 154.192C573.986 153.567 573.482 153.133 572.94 152.89C572.399 152.638 571.792 152.512 571.12 152.512C569.804 152.512 568.792 152.983 568.082 153.926C567.373 154.869 567.018 156.213 567.018 157.958C567.018 158.882 567.098 159.675 567.256 160.338C567.415 160.991 567.648 161.533 567.956 161.962C568.264 162.382 568.642 162.69 569.09 162.886C569.538 163.082 570.047 163.18 570.616 163.18C571.438 163.18 572.152 162.993 572.758 162.62C573.374 162.247 573.939 161.719 574.452 161.038V154.192ZM576.944 144.378V165H575.46C575.106 165 574.882 164.827 574.788 164.482L574.564 162.76C573.958 163.488 573.267 164.076 572.492 164.524C571.718 164.972 570.822 165.196 569.804 165.196C568.992 165.196 568.255 165.042 567.592 164.734C566.93 164.417 566.365 163.955 565.898 163.348C565.432 162.741 565.072 161.985 564.82 161.08C564.568 160.175 564.442 159.134 564.442 157.958C564.442 156.913 564.582 155.942 564.862 155.046C565.142 154.141 565.544 153.357 566.066 152.694C566.589 152.031 567.228 151.513 567.984 151.14C568.75 150.757 569.608 150.566 570.56 150.566C571.428 150.566 572.17 150.715 572.786 151.014C573.412 151.303 573.967 151.709 574.452 152.232V144.378H576.944ZM589.14 153.156C589.028 153.361 588.856 153.464 588.622 153.464C588.482 153.464 588.324 153.413 588.146 153.31C587.969 153.207 587.75 153.095 587.488 152.974C587.236 152.843 586.933 152.727 586.578 152.624C586.224 152.512 585.804 152.456 585.318 152.456C584.898 152.456 584.52 152.512 584.184 152.624C583.848 152.727 583.559 152.871 583.316 153.058C583.083 153.245 582.901 153.464 582.77 153.716C582.649 153.959 582.588 154.225 582.588 154.514C582.588 154.878 582.691 155.181 582.896 155.424C583.111 155.667 583.391 155.877 583.736 156.054C584.082 156.231 584.474 156.39 584.912 156.53C585.351 156.661 585.799 156.805 586.256 156.964C586.723 157.113 587.176 157.281 587.614 157.468C588.053 157.655 588.445 157.888 588.79 158.168C589.136 158.448 589.411 158.793 589.616 159.204C589.831 159.605 589.938 160.091 589.938 160.66C589.938 161.313 589.822 161.92 589.588 162.48C589.355 163.031 589.01 163.511 588.552 163.922C588.095 164.323 587.535 164.641 586.872 164.874C586.21 165.107 585.444 165.224 584.576 165.224C583.587 165.224 582.691 165.065 581.888 164.748C581.086 164.421 580.404 164.006 579.844 163.502L580.432 162.55C580.507 162.429 580.596 162.335 580.698 162.27C580.801 162.205 580.932 162.172 581.09 162.172C581.258 162.172 581.436 162.237 581.622 162.368C581.809 162.499 582.033 162.643 582.294 162.802C582.565 162.961 582.892 163.105 583.274 163.236C583.657 163.367 584.133 163.432 584.702 163.432C585.188 163.432 585.612 163.371 585.976 163.25C586.34 163.119 586.644 162.947 586.886 162.732C587.129 162.517 587.306 162.27 587.418 161.99C587.54 161.71 587.6 161.411 587.6 161.094C587.6 160.702 587.493 160.38 587.278 160.128C587.073 159.867 586.798 159.647 586.452 159.47C586.107 159.283 585.71 159.125 585.262 158.994C584.824 158.854 584.371 158.709 583.904 158.56C583.447 158.411 582.994 158.243 582.546 158.056C582.108 157.86 581.716 157.617 581.37 157.328C581.025 157.039 580.745 156.684 580.53 156.264C580.325 155.835 580.222 155.317 580.222 154.71C580.222 154.169 580.334 153.651 580.558 153.156C580.782 152.652 581.109 152.213 581.538 151.84C581.968 151.457 582.495 151.154 583.12 150.93C583.746 150.706 584.46 150.594 585.262 150.594C586.196 150.594 587.031 150.743 587.768 151.042C588.515 151.331 589.159 151.733 589.7 152.246L589.14 153.156ZM602.664 161.584C603.121 162.2 603.62 162.634 604.162 162.886C604.712 163.138 605.314 163.264 605.968 163.264C607.302 163.264 608.324 162.793 609.034 161.85C609.743 160.907 610.098 159.503 610.098 157.636C610.098 155.9 609.78 154.626 609.146 153.814C608.52 152.993 607.624 152.582 606.458 152.582C605.646 152.582 604.936 152.769 604.33 153.142C603.732 153.515 603.177 154.043 602.664 154.724V161.584ZM602.664 152.862C603.261 152.171 603.933 151.621 604.68 151.21C605.436 150.799 606.304 150.594 607.284 150.594C608.114 150.594 608.861 150.753 609.524 151.07C610.196 151.387 610.765 151.849 611.232 152.456C611.698 153.053 612.053 153.781 612.296 154.64C612.548 155.499 612.674 156.465 612.674 157.538C612.674 158.686 612.534 159.731 612.254 160.674C611.974 161.617 611.568 162.424 611.036 163.096C610.513 163.759 609.874 164.277 609.118 164.65C608.362 165.014 607.512 165.196 606.57 165.196C605.636 165.196 604.848 165.023 604.204 164.678C603.569 164.323 603.014 163.824 602.538 163.18L602.412 164.468C602.337 164.823 602.122 165 601.768 165H600.158V144.378H602.664V152.862ZM625.318 156.362C625.318 155.783 625.234 155.256 625.066 154.78C624.907 154.295 624.669 153.879 624.352 153.534C624.044 153.179 623.666 152.909 623.218 152.722C622.77 152.526 622.261 152.428 621.692 152.428C620.497 152.428 619.55 152.778 618.85 153.478C618.159 154.169 617.73 155.13 617.562 156.362H625.318ZM627.334 163.012C627.026 163.385 626.657 163.712 626.228 163.992C625.798 164.263 625.336 164.487 624.842 164.664C624.356 164.841 623.852 164.972 623.33 165.056C622.807 165.149 622.289 165.196 621.776 165.196C620.796 165.196 619.89 165.033 619.06 164.706C618.238 164.37 617.524 163.885 616.918 163.25C616.32 162.606 615.854 161.813 615.518 160.87C615.182 159.927 615.014 158.845 615.014 157.622C615.014 156.633 615.163 155.709 615.462 154.85C615.77 153.991 616.208 153.249 616.778 152.624C617.347 151.989 618.042 151.495 618.864 151.14C619.685 150.776 620.609 150.594 621.636 150.594C622.485 150.594 623.269 150.739 623.988 151.028C624.716 151.308 625.341 151.719 625.864 152.26C626.396 152.792 626.811 153.455 627.11 154.248C627.408 155.032 627.558 155.928 627.558 156.936C627.558 157.328 627.516 157.589 627.432 157.72C627.348 157.851 627.189 157.916 626.956 157.916H617.478C617.506 158.812 617.627 159.591 617.842 160.254C618.066 160.917 618.374 161.472 618.766 161.92C619.158 162.359 619.624 162.69 620.166 162.914C620.707 163.129 621.314 163.236 621.986 163.236C622.611 163.236 623.148 163.166 623.596 163.026C624.053 162.877 624.445 162.718 624.772 162.55C625.098 162.382 625.369 162.228 625.584 162.088C625.808 161.939 625.999 161.864 626.158 161.864C626.363 161.864 626.522 161.943 626.634 162.102L627.334 163.012ZM634.863 165.224C633.743 165.224 632.88 164.911 632.273 164.286C631.676 163.661 631.377 162.76 631.377 161.584V152.904H629.669C629.52 152.904 629.394 152.862 629.291 152.778C629.188 152.685 629.137 152.545 629.137 152.358V151.364L631.461 151.07L632.035 146.688C632.063 146.548 632.124 146.436 632.217 146.352C632.32 146.259 632.45 146.212 632.609 146.212H633.869V151.098H640.547L641.121 146.688C641.149 146.548 641.21 146.436 641.303 146.352C641.406 146.259 641.536 146.212 641.695 146.212H642.955V151.098H647.057V152.904H642.955V161.416C642.955 162.013 643.1 162.457 643.389 162.746C643.688 163.035 644.061 163.18 644.509 163.18C644.77 163.18 644.994 163.147 645.181 163.082C645.377 163.007 645.545 162.928 645.685 162.844C645.825 162.76 645.942 162.685 646.035 162.62C646.138 162.545 646.226 162.508 646.301 162.508C646.441 162.508 646.558 162.587 646.651 162.746L647.393 163.936C646.954 164.337 646.432 164.655 645.825 164.888C645.218 165.112 644.593 165.224 643.949 165.224C642.838 165.224 641.98 164.911 641.373 164.286C640.766 163.661 640.463 162.76 640.463 161.584V152.904H633.869V161.416C633.869 162.013 634.014 162.457 634.303 162.746C634.592 163.035 634.966 163.18 635.423 163.18C635.684 163.18 635.908 163.147 636.095 163.082C636.291 163.007 636.459 162.928 636.599 162.844C636.739 162.76 636.856 162.685 636.949 162.62C637.052 162.545 637.14 162.508 637.215 162.508C637.346 162.508 637.462 162.587 637.565 162.746L638.293 163.936C637.864 164.337 637.346 164.655 636.739 164.888C636.132 165.112 635.507 165.224 634.863 165.224ZM659.032 156.362C659.032 155.783 658.948 155.256 658.78 154.78C658.622 154.295 658.384 153.879 658.066 153.534C657.758 153.179 657.38 152.909 656.932 152.722C656.484 152.526 655.976 152.428 655.406 152.428C654.212 152.428 653.264 152.778 652.564 153.478C651.874 154.169 651.444 155.13 651.276 156.362H659.032ZM661.048 163.012C660.74 163.385 660.372 163.712 659.942 163.992C659.513 164.263 659.051 164.487 658.556 164.664C658.071 164.841 657.567 164.972 657.044 165.056C656.522 165.149 656.004 165.196 655.49 165.196C654.51 165.196 653.605 165.033 652.774 164.706C651.953 164.37 651.239 163.885 650.632 163.25C650.035 162.606 649.568 161.813 649.232 160.87C648.896 159.927 648.728 158.845 648.728 157.622C648.728 156.633 648.878 155.709 649.176 154.85C649.484 153.991 649.923 153.249 650.492 152.624C651.062 151.989 651.757 151.495 652.578 151.14C653.4 150.776 654.324 150.594 655.35 150.594C656.2 150.594 656.984 150.739 657.702 151.028C658.43 151.308 659.056 151.719 659.578 152.26C660.11 152.792 660.526 153.455 660.824 154.248C661.123 155.032 661.272 155.928 661.272 156.936C661.272 157.328 661.23 157.589 661.146 157.72C661.062 157.851 660.904 157.916 660.67 157.916H651.192C651.22 158.812 651.342 159.591 651.556 160.254C651.78 160.917 652.088 161.472 652.48 161.92C652.872 162.359 653.339 162.69 653.88 162.914C654.422 163.129 655.028 163.236 655.7 163.236C656.326 163.236 656.862 163.166 657.31 163.026C657.768 162.877 658.16 162.718 658.486 162.55C658.813 162.382 659.084 162.228 659.298 162.088C659.522 161.939 659.714 161.864 659.872 161.864C660.078 161.864 660.236 161.943 660.348 162.102L661.048 163.012ZM666.699 153.66C667.147 152.689 667.698 151.933 668.351 151.392C669.005 150.841 669.803 150.566 670.745 150.566C671.044 150.566 671.329 150.599 671.599 150.664C671.879 150.729 672.127 150.832 672.341 150.972L672.159 152.834C672.103 153.067 671.963 153.184 671.739 153.184C671.609 153.184 671.417 153.156 671.165 153.1C670.913 153.044 670.629 153.016 670.311 153.016C669.863 153.016 669.462 153.081 669.107 153.212C668.762 153.343 668.449 153.539 668.169 153.8C667.899 154.052 667.651 154.369 667.427 154.752C667.213 155.125 667.017 155.555 666.839 156.04V165H664.333V150.818H665.761C666.032 150.818 666.219 150.869 666.321 150.972C666.424 151.075 666.494 151.252 666.531 151.504L666.699 153.66ZM685.449 165.224C684.329 165.224 683.466 164.911 682.859 164.286C682.262 163.661 681.963 162.76 681.963 161.584V152.904H680.255C680.106 152.904 679.98 152.862 679.877 152.778C679.774 152.685 679.723 152.545 679.723 152.358V151.364L682.047 151.07L682.621 146.688C682.649 146.548 682.71 146.436 682.803 146.352C682.906 146.259 683.036 146.212 683.195 146.212H684.455V151.098H688.557V152.904H684.455V161.416C684.455 162.013 684.6 162.457 684.889 162.746C685.178 163.035 685.552 163.18 686.009 163.18C686.27 163.18 686.494 163.147 686.681 163.082C686.877 163.007 687.045 162.928 687.185 162.844C687.325 162.76 687.442 162.685 687.535 162.62C687.638 162.545 687.726 162.508 687.801 162.508C687.932 162.508 688.048 162.587 688.151 162.746L688.879 163.936C688.45 164.337 687.932 164.655 687.325 164.888C686.718 165.112 686.093 165.224 685.449 165.224ZM697.026 150.594C698.062 150.594 698.996 150.767 699.826 151.112C700.657 151.457 701.366 151.947 701.954 152.582C702.542 153.217 702.99 153.987 703.298 154.892C703.616 155.788 703.774 156.791 703.774 157.902C703.774 159.022 703.616 160.03 703.298 160.926C702.99 161.822 702.542 162.587 701.954 163.222C701.366 163.857 700.657 164.347 699.826 164.692C698.996 165.028 698.062 165.196 697.026 165.196C695.981 165.196 695.038 165.028 694.198 164.692C693.368 164.347 692.658 163.857 692.07 163.222C691.482 162.587 691.03 161.822 690.712 160.926C690.404 160.03 690.25 159.022 690.25 157.902C690.25 156.791 690.404 155.788 690.712 154.892C691.03 153.987 691.482 153.217 692.07 152.582C692.658 151.947 693.368 151.457 694.198 151.112C695.038 150.767 695.981 150.594 697.026 150.594ZM697.026 163.25C698.426 163.25 699.472 162.783 700.162 161.85C700.853 160.907 701.198 159.596 701.198 157.916C701.198 156.227 700.853 154.911 700.162 153.968C699.472 153.025 698.426 152.554 697.026 152.554C696.317 152.554 695.696 152.675 695.164 152.918C694.642 153.161 694.203 153.511 693.848 153.968C693.503 154.425 693.242 154.99 693.064 155.662C692.896 156.325 692.812 157.076 692.812 157.916C692.812 159.596 693.158 160.907 693.848 161.85C694.548 162.783 695.608 163.25 697.026 163.25ZM711.795 158.07C712.299 158.07 712.742 158 713.125 157.86C713.508 157.72 713.83 157.524 714.091 157.272C714.352 157.02 714.548 156.721 714.679 156.376C714.81 156.021 714.875 155.634 714.875 155.214C714.875 154.346 714.609 153.655 714.077 153.142C713.554 152.629 712.794 152.372 711.795 152.372C710.787 152.372 710.017 152.629 709.485 153.142C708.962 153.655 708.701 154.346 708.701 155.214C708.701 155.634 708.766 156.021 708.897 156.376C709.037 156.721 709.238 157.02 709.499 157.272C709.76 157.524 710.082 157.72 710.465 157.86C710.848 158 711.291 158.07 711.795 158.07ZM716.289 165.77C716.289 165.425 716.191 165.145 715.995 164.93C715.799 164.715 715.533 164.547 715.197 164.426C714.87 164.305 714.488 164.221 714.049 164.174C713.61 164.118 713.144 164.076 712.649 164.048C712.164 164.02 711.669 163.992 711.165 163.964C710.661 163.936 710.176 163.889 709.709 163.824C709.186 164.067 708.757 164.375 708.421 164.748C708.094 165.112 707.931 165.541 707.931 166.036C707.931 166.353 708.01 166.647 708.169 166.918C708.337 167.198 708.589 167.436 708.925 167.632C709.261 167.837 709.681 167.996 710.185 168.108C710.698 168.229 711.3 168.29 711.991 168.29C712.663 168.29 713.265 168.229 713.797 168.108C714.329 167.987 714.777 167.814 715.141 167.59C715.514 167.366 715.799 167.1 715.995 166.792C716.191 166.484 716.289 166.143 716.289 165.77ZM718.823 151.378V152.302C718.823 152.61 718.627 152.806 718.235 152.89L716.625 153.1C716.942 153.716 717.101 154.397 717.101 155.144C717.101 155.835 716.966 156.465 716.695 157.034C716.434 157.594 716.07 158.075 715.603 158.476C715.136 158.877 714.576 159.185 713.923 159.4C713.27 159.615 712.56 159.722 711.795 159.722C711.132 159.722 710.507 159.643 709.919 159.484C709.62 159.671 709.392 159.871 709.233 160.086C709.074 160.291 708.995 160.501 708.995 160.716C708.995 161.052 709.13 161.309 709.401 161.486C709.681 161.654 710.045 161.775 710.493 161.85C710.941 161.925 711.45 161.971 712.019 161.99C712.598 162.009 713.186 162.041 713.783 162.088C714.39 162.125 714.978 162.195 715.547 162.298C716.126 162.401 716.639 162.569 717.087 162.802C717.535 163.035 717.894 163.357 718.165 163.768C718.445 164.179 718.585 164.711 718.585 165.364C718.585 165.971 718.431 166.559 718.123 167.128C717.824 167.697 717.39 168.201 716.821 168.64C716.252 169.088 715.552 169.443 714.721 169.704C713.9 169.975 712.971 170.11 711.935 170.11C710.899 170.11 709.994 170.007 709.219 169.802C708.444 169.597 707.8 169.321 707.287 168.976C706.774 168.631 706.386 168.229 706.125 167.772C705.873 167.324 705.747 166.853 705.747 166.358C705.747 165.658 705.966 165.065 706.405 164.58C706.844 164.095 707.446 163.707 708.211 163.418C707.791 163.231 707.455 162.984 707.203 162.676C706.96 162.359 706.839 161.934 706.839 161.402C706.839 161.197 706.876 160.987 706.951 160.772C707.026 160.548 707.138 160.329 707.287 160.114C707.446 159.89 707.637 159.68 707.861 159.484C708.085 159.288 708.346 159.115 708.645 158.966C707.945 158.574 707.399 158.056 707.007 157.412C706.615 156.759 706.419 156.003 706.419 155.144C706.419 154.453 706.55 153.828 706.811 153.268C707.082 152.699 707.455 152.218 707.931 151.826C708.407 151.425 708.972 151.117 709.625 150.902C710.288 150.687 711.011 150.58 711.795 150.58C712.411 150.58 712.985 150.65 713.517 150.79C714.049 150.921 714.534 151.117 714.973 151.378H718.823ZM730.673 156.362C730.673 155.783 730.589 155.256 730.421 154.78C730.262 154.295 730.024 153.879 729.707 153.534C729.399 153.179 729.021 152.909 728.573 152.722C728.125 152.526 727.616 152.428 727.047 152.428C725.852 152.428 724.905 152.778 724.205 153.478C723.514 154.169 723.085 155.13 722.917 156.362H730.673ZM732.689 163.012C732.381 163.385 732.012 163.712 731.583 163.992C731.154 164.263 730.692 164.487 730.197 164.664C729.712 164.841 729.208 164.972 728.685 165.056C728.162 165.149 727.644 165.196 727.131 165.196C726.151 165.196 725.246 165.033 724.415 164.706C723.594 164.37 722.88 163.885 722.273 163.25C721.676 162.606 721.209 161.813 720.873 160.87C720.537 159.927 720.369 158.845 720.369 157.622C720.369 156.633 720.518 155.709 720.817 154.85C721.125 153.991 721.564 153.249 722.133 152.624C722.702 151.989 723.398 151.495 724.219 151.14C725.04 150.776 725.964 150.594 726.991 150.594C727.84 150.594 728.624 150.739 729.343 151.028C730.071 151.308 730.696 151.719 731.219 152.26C731.751 152.792 732.166 153.455 732.465 154.248C732.764 155.032 732.913 155.928 732.913 156.936C732.913 157.328 732.871 157.589 732.787 157.72C732.703 157.851 732.544 157.916 732.311 157.916H722.833C722.861 158.812 722.982 159.591 723.197 160.254C723.421 160.917 723.729 161.472 724.121 161.92C724.513 162.359 724.98 162.69 725.521 162.914C726.062 163.129 726.669 163.236 727.341 163.236C727.966 163.236 728.503 163.166 728.951 163.026C729.408 162.877 729.8 162.718 730.127 162.55C730.454 162.382 730.724 162.228 730.939 162.088C731.163 161.939 731.354 161.864 731.513 161.864C731.718 161.864 731.877 161.943 731.989 162.102L732.689 163.012ZM740.219 165.224C739.099 165.224 738.235 164.911 737.629 164.286C737.031 163.661 736.733 162.76 736.733 161.584V152.904H735.025C734.875 152.904 734.749 152.862 734.647 152.778C734.544 152.685 734.493 152.545 734.493 152.358V151.364L736.817 151.07L737.391 146.688C737.419 146.548 737.479 146.436 737.573 146.352C737.675 146.259 737.806 146.212 737.965 146.212H739.225V151.098H743.327V152.904H739.225V161.416C739.225 162.013 739.369 162.457 739.659 162.746C739.948 163.035 740.321 163.18 740.779 163.18C741.04 163.18 741.264 163.147 741.451 163.082C741.647 163.007 741.815 162.928 741.955 162.844C742.095 162.76 742.211 162.685 742.305 162.62C742.407 162.545 742.496 162.508 742.571 162.508C742.701 162.508 742.818 162.587 742.921 162.746L743.649 163.936C743.219 164.337 742.701 164.655 742.095 164.888C741.488 165.112 740.863 165.224 740.219 165.224ZM748.406 152.708C749.012 152.064 749.684 151.551 750.422 151.168C751.159 150.785 752.008 150.594 752.97 150.594C753.744 150.594 754.426 150.725 755.014 150.986C755.611 151.238 756.106 151.602 756.498 152.078C756.899 152.545 757.202 153.109 757.408 153.772C757.613 154.435 757.716 155.167 757.716 155.97V165H755.21V155.97C755.21 154.897 754.962 154.066 754.468 153.478C753.982 152.881 753.24 152.582 752.242 152.582C751.504 152.582 750.814 152.759 750.17 153.114C749.535 153.469 748.947 153.949 748.406 154.556V165H745.9V144.378H748.406V152.708ZM771.005 156.362C771.005 155.783 770.921 155.256 770.753 154.78C770.594 154.295 770.356 153.879 770.039 153.534C769.731 153.179 769.353 152.909 768.905 152.722C768.457 152.526 767.948 152.428 767.379 152.428C766.184 152.428 765.237 152.778 764.537 153.478C763.846 154.169 763.417 155.13 763.249 156.362H771.005ZM773.021 163.012C772.713 163.385 772.344 163.712 771.915 163.992C771.486 164.263 771.024 164.487 770.529 164.664C770.044 164.841 769.54 164.972 769.017 165.056C768.494 165.149 767.976 165.196 767.463 165.196C766.483 165.196 765.578 165.033 764.747 164.706C763.926 164.37 763.212 163.885 762.605 163.25C762.008 162.606 761.541 161.813 761.205 160.87C760.869 159.927 760.701 158.845 760.701 157.622C760.701 156.633 760.85 155.709 761.149 154.85C761.457 153.991 761.896 153.249 762.465 152.624C763.034 151.989 763.73 151.495 764.551 151.14C765.372 150.776 766.296 150.594 767.323 150.594C768.172 150.594 768.956 150.739 769.675 151.028C770.403 151.308 771.028 151.719 771.551 152.26C772.083 152.792 772.498 153.455 772.797 154.248C773.096 155.032 773.245 155.928 773.245 156.936C773.245 157.328 773.203 157.589 773.119 157.72C773.035 157.851 772.876 157.916 772.643 157.916H763.165C763.193 158.812 763.314 159.591 763.529 160.254C763.753 160.917 764.061 161.472 764.453 161.92C764.845 162.359 765.312 162.69 765.853 162.914C766.394 163.129 767.001 163.236 767.673 163.236C768.298 163.236 768.835 163.166 769.283 163.026C769.74 162.877 770.132 162.718 770.459 162.55C770.786 162.382 771.056 162.228 771.271 162.088C771.495 161.939 771.686 161.864 771.845 161.864C772.05 161.864 772.209 161.943 772.321 162.102L773.021 163.012ZM778.672 153.66C779.12 152.689 779.671 151.933 780.324 151.392C780.977 150.841 781.775 150.566 782.718 150.566C783.017 150.566 783.301 150.599 783.572 150.664C783.852 150.729 784.099 150.832 784.314 150.972L784.132 152.834C784.076 153.067 783.936 153.184 783.712 153.184C783.581 153.184 783.39 153.156 783.138 153.1C782.886 153.044 782.601 153.016 782.284 153.016C781.836 153.016 781.435 153.081 781.08 153.212C780.735 153.343 780.422 153.539 780.142 153.8C779.871 154.052 779.624 154.369 779.4 154.752C779.185 155.125 778.989 155.555 778.812 156.04V165H776.306V150.818H777.734C778.005 150.818 778.191 150.869 778.294 150.972C778.397 151.075 778.467 151.252 778.504 151.504L778.672 153.66ZM784.992 163.46C784.992 163.217 785.034 162.989 785.118 162.774C785.211 162.559 785.332 162.373 785.482 162.214C785.64 162.055 785.827 161.929 786.042 161.836C786.256 161.743 786.485 161.696 786.728 161.696C786.97 161.696 787.199 161.743 787.414 161.836C787.628 161.929 787.815 162.055 787.974 162.214C788.132 162.373 788.258 162.559 788.352 162.774C788.445 162.989 788.492 163.217 788.492 163.46C788.492 163.712 788.445 163.945 788.352 164.16C788.258 164.365 788.132 164.547 787.974 164.706C787.815 164.865 787.628 164.986 787.414 165.07C787.199 165.163 786.97 165.21 786.728 165.21C786.485 165.21 786.256 165.163 786.042 165.07C785.827 164.986 785.64 164.865 785.482 164.706C785.332 164.547 785.211 164.365 785.118 164.16C785.034 163.945 784.992 163.712 784.992 163.46Z" fill="#8D8A9B"/>
</svg>
