<svg width="293" height="1036" viewBox="0 0 293 1036" fill="none" xmlns="http://www.w3.org/2000/svg">
<g filter="url(#filter0_d)">
<rect x="4" y="151" width="134" height="134" fill="#EEE380"/>
</g>
<path d="M46.3496 218.197C45.3848 217.92 44.6816 217.58 44.2402 217.178C43.8027 216.771 43.584 216.271 43.584 215.678C43.584 215.006 43.8516 214.451 44.3867 214.014C44.9258 213.572 45.625 213.352 46.4844 213.352C47.0703 213.352 47.5918 213.465 48.0488 213.691C48.5098 213.918 48.8652 214.23 49.1152 214.629C49.3691 215.027 49.4961 215.463 49.4961 215.936H48.3652C48.3652 215.42 48.2012 215.016 47.873 214.723C47.5449 214.426 47.082 214.277 46.4844 214.277C45.9297 214.277 45.4961 214.4 45.1836 214.646C44.875 214.889 44.7207 215.227 44.7207 215.66C44.7207 216.008 44.8672 216.303 45.1602 216.545C45.457 216.783 45.959 217.002 46.666 217.201C47.377 217.4 47.9316 217.621 48.3301 217.863C48.7324 218.102 49.0293 218.381 49.2207 218.701C49.416 219.021 49.5137 219.398 49.5137 219.832C49.5137 220.523 49.2441 221.078 48.7051 221.496C48.166 221.91 47.4453 222.117 46.543 222.117C45.957 222.117 45.4102 222.006 44.9023 221.783C44.3945 221.557 44.002 221.248 43.7246 220.857C43.4512 220.467 43.3145 220.023 43.3145 219.527H44.4453C44.4453 220.043 44.6348 220.451 45.0137 220.752C45.3965 221.049 45.9062 221.197 46.543 221.197C47.1367 221.197 47.5918 221.076 47.9082 220.834C48.2246 220.592 48.3828 220.262 48.3828 219.844C48.3828 219.426 48.2363 219.104 47.9434 218.877C47.6504 218.646 47.1191 218.42 46.3496 218.197ZM51.875 216.428C52.3555 215.838 52.9805 215.543 53.75 215.543C55.0898 215.543 55.7656 216.299 55.7773 217.811V222H54.6934V217.805C54.6895 217.348 54.584 217.01 54.377 216.791C54.1738 216.572 53.8555 216.463 53.4219 216.463C53.0703 216.463 52.7617 216.557 52.4961 216.744C52.2305 216.932 52.0234 217.178 51.875 217.482V222H50.791V213H51.875V216.428ZM57.1133 218.771C57.1133 218.15 57.2344 217.592 57.4766 217.096C57.7227 216.6 58.0625 216.217 58.4961 215.947C58.9336 215.678 59.4316 215.543 59.9902 215.543C60.8535 215.543 61.5508 215.842 62.082 216.439C62.6172 217.037 62.8848 217.832 62.8848 218.824V218.9C62.8848 219.518 62.7656 220.072 62.5273 220.564C62.293 221.053 61.9551 221.434 61.5137 221.707C61.0762 221.98 60.5723 222.117 60.002 222.117C59.1426 222.117 58.4453 221.818 57.9102 221.221C57.3789 220.623 57.1133 219.832 57.1133 218.848V218.771ZM58.2031 218.9C58.2031 219.604 58.3652 220.168 58.6895 220.594C59.0176 221.02 59.4551 221.232 60.002 221.232C60.5527 221.232 60.9902 221.018 61.3145 220.588C61.6387 220.154 61.8008 219.549 61.8008 218.771C61.8008 218.076 61.6348 217.514 61.3027 217.084C60.9746 216.65 60.5371 216.434 59.9902 216.434C59.4551 216.434 59.0234 216.646 58.6953 217.072C58.3672 217.498 58.2031 218.107 58.2031 218.9ZM69.8574 220.506L71.0762 215.66H72.1602L70.3145 222H69.4355L67.8945 217.195L66.3945 222H65.5156L63.6758 215.66H64.7539L66.002 220.406L67.4785 215.66H68.3516L69.8574 220.506ZM75.8984 222.117C75.0391 222.117 74.3398 221.836 73.8008 221.273C73.2617 220.707 72.9922 219.951 72.9922 219.006V218.807C72.9922 218.178 73.1113 217.617 73.3496 217.125C73.5918 216.629 73.9277 216.242 74.3574 215.965C74.791 215.684 75.2598 215.543 75.7637 215.543C76.5879 215.543 77.2285 215.814 77.6855 216.357C78.1426 216.9 78.3711 217.678 78.3711 218.689V219.141H74.0762C74.0918 219.766 74.2734 220.271 74.6211 220.658C74.9727 221.041 75.418 221.232 75.957 221.232C76.3398 221.232 76.6641 221.154 76.9297 220.998C77.1953 220.842 77.4277 220.635 77.627 220.377L78.2891 220.893C77.7578 221.709 76.9609 222.117 75.8984 222.117ZM75.7637 216.434C75.3262 216.434 74.959 216.594 74.6621 216.914C74.3652 217.23 74.1816 217.676 74.1113 218.25H77.2871V218.168C77.2559 217.617 77.1074 217.191 76.8418 216.891C76.5762 216.586 76.2168 216.434 75.7637 216.434ZM82.6953 216.633C82.5312 216.605 82.3535 216.592 82.1621 216.592C81.4512 216.592 80.9688 216.895 80.7148 217.5V222H79.6309V215.66H80.6855L80.7031 216.393C81.0586 215.826 81.5625 215.543 82.2148 215.543C82.4258 215.543 82.5859 215.57 82.6953 215.625V216.633ZM84.875 222H83.791V215.66H84.875V222ZM83.7031 213.979C83.7031 213.803 83.7559 213.654 83.8613 213.533C83.9707 213.412 84.1309 213.352 84.3418 213.352C84.5527 213.352 84.7129 213.412 84.8223 213.533C84.9316 213.654 84.9863 213.803 84.9863 213.979C84.9863 214.154 84.9316 214.301 84.8223 214.418C84.7129 214.535 84.5527 214.594 84.3418 214.594C84.1309 214.594 83.9707 214.535 83.8613 214.418C83.7559 214.301 83.7031 214.154 83.7031 213.979ZM87.6406 215.66L87.6758 216.457C88.1602 215.848 88.793 215.543 89.5742 215.543C90.9141 215.543 91.5898 216.299 91.6016 217.811V222H90.5176V217.805C90.5137 217.348 90.4082 217.01 90.2012 216.791C89.998 216.572 89.6797 216.463 89.2461 216.463C88.8945 216.463 88.5859 216.557 88.3203 216.744C88.0547 216.932 87.8477 217.178 87.6992 217.482V222H86.6152V215.66H87.6406ZM92.9785 218.777C92.9785 217.789 93.207 217.004 93.6641 216.422C94.1211 215.836 94.7266 215.543 95.4805 215.543C96.2539 215.543 96.8574 215.816 97.291 216.363L97.3438 215.66H98.334V221.848C98.334 222.668 98.0898 223.314 97.6016 223.787C97.1172 224.26 96.4648 224.496 95.6445 224.496C95.1875 224.496 94.7402 224.398 94.3027 224.203C93.8652 224.008 93.5312 223.74 93.3008 223.4L93.8633 222.75C94.3281 223.324 94.8965 223.611 95.5684 223.611C96.0957 223.611 96.5059 223.463 96.7988 223.166C97.0957 222.869 97.2441 222.451 97.2441 221.912V221.367C96.8105 221.867 96.2188 222.117 95.4688 222.117C94.7266 222.117 94.125 221.818 93.6641 221.221C93.207 220.623 92.9785 219.809 92.9785 218.777ZM94.0684 218.9C94.0684 219.615 94.2148 220.178 94.5078 220.588C94.8008 220.994 95.2109 221.197 95.7383 221.197C96.4219 221.197 96.9238 220.887 97.2441 220.266V217.371C96.9121 216.766 96.4141 216.463 95.75 216.463C95.2227 216.463 94.8105 216.668 94.5137 217.078C94.2168 217.488 94.0684 218.096 94.0684 218.9Z" fill="black"/>
<g filter="url(#filter1_d)">
<rect x="4" y="300" width="134" height="134" fill="#EEE380"/>
</g>
<path d="M30.418 361.293C30.3125 362.195 29.9785 362.893 29.416 363.385C28.8574 363.873 28.1133 364.117 27.1836 364.117C26.1758 364.117 25.3672 363.756 24.7578 363.033C24.1523 362.311 23.8496 361.344 23.8496 360.133V359.312C23.8496 358.52 23.9902 357.822 24.2715 357.221C24.5566 356.619 24.959 356.158 25.4785 355.838C25.998 355.514 26.5996 355.352 27.2832 355.352C28.1895 355.352 28.916 355.605 29.4629 356.113C30.0098 356.617 30.3281 357.316 30.418 358.211H29.2871C29.1895 357.531 28.9766 357.039 28.6484 356.734C28.3242 356.43 27.8691 356.277 27.2832 356.277C26.5645 356.277 26 356.543 25.5898 357.074C25.1836 357.605 24.9805 358.361 24.9805 359.342V360.168C24.9805 361.094 25.1738 361.83 25.5605 362.377C25.9473 362.924 26.4883 363.197 27.1836 363.197C27.8086 363.197 28.2871 363.057 28.6191 362.775C28.9551 362.49 29.1777 361.996 29.2871 361.293H30.418ZM32.873 358.428C33.3535 357.838 33.9785 357.543 34.748 357.543C36.0879 357.543 36.7637 358.299 36.7754 359.811V364H35.6914V359.805C35.6875 359.348 35.582 359.01 35.375 358.791C35.1719 358.572 34.8535 358.463 34.4199 358.463C34.0684 358.463 33.7598 358.557 33.4941 358.744C33.2285 358.932 33.0215 359.178 32.873 359.482V364H31.7891V355H32.873V358.428ZM39.5762 364H38.4922V357.66H39.5762V364ZM38.4043 355.979C38.4043 355.803 38.457 355.654 38.5625 355.533C38.6719 355.412 38.832 355.352 39.043 355.352C39.2539 355.352 39.4141 355.412 39.5234 355.533C39.6328 355.654 39.6875 355.803 39.6875 355.979C39.6875 356.154 39.6328 356.301 39.5234 356.418C39.4141 356.535 39.2539 356.594 39.043 356.594C38.832 356.594 38.6719 356.535 38.5625 356.418C38.457 356.301 38.4043 356.154 38.4043 355.979ZM42.4941 364H41.4102V355H42.4941V364ZM45.4121 364H44.3281V355H45.4121V364ZM48.3301 364H47.2461V357.66H48.3301V364ZM47.1582 355.979C47.1582 355.803 47.2109 355.654 47.3164 355.533C47.4258 355.412 47.5859 355.352 47.7969 355.352C48.0078 355.352 48.168 355.412 48.2773 355.533C48.3867 355.654 48.4414 355.803 48.4414 355.979C48.4414 356.154 48.3867 356.301 48.2773 356.418C48.168 356.535 48.0078 356.594 47.7969 356.594C47.5859 356.594 47.4258 356.535 47.3164 356.418C47.2109 356.301 47.1582 356.154 47.1582 355.979ZM51.0957 357.66L51.1309 358.457C51.6152 357.848 52.248 357.543 53.0293 357.543C54.3691 357.543 55.0449 358.299 55.0566 359.811V364H53.9727V359.805C53.9688 359.348 53.8633 359.01 53.6562 358.791C53.4531 358.572 53.1348 358.463 52.7012 358.463C52.3496 358.463 52.041 358.557 51.7754 358.744C51.5098 358.932 51.3027 359.178 51.1543 359.482V364H50.0703V357.66H51.0957ZM56.4336 360.777C56.4336 359.789 56.6621 359.004 57.1191 358.422C57.5762 357.836 58.1816 357.543 58.9355 357.543C59.709 357.543 60.3125 357.816 60.7461 358.363L60.7988 357.66H61.7891V363.848C61.7891 364.668 61.5449 365.314 61.0566 365.787C60.5723 366.26 59.9199 366.496 59.0996 366.496C58.6426 366.496 58.1953 366.398 57.7578 366.203C57.3203 366.008 56.9863 365.74 56.7559 365.4L57.3184 364.75C57.7832 365.324 58.3516 365.611 59.0234 365.611C59.5508 365.611 59.9609 365.463 60.2539 365.166C60.5508 364.869 60.6992 364.451 60.6992 363.912V363.367C60.2656 363.867 59.6738 364.117 58.9238 364.117C58.1816 364.117 57.5801 363.818 57.1191 363.221C56.6621 362.623 56.4336 361.809 56.4336 360.777ZM57.5234 360.9C57.5234 361.615 57.6699 362.178 57.9629 362.588C58.2559 362.994 58.666 363.197 59.1934 363.197C59.877 363.197 60.3789 362.887 60.6992 362.266V359.371C60.3672 358.766 59.8691 358.463 59.2051 358.463C58.6777 358.463 58.2656 358.668 57.9688 359.078C57.6719 359.488 57.5234 360.096 57.5234 360.9ZM72.0195 362.506L73.2383 357.66H74.3223L72.4766 364H71.5977L70.0566 359.195L68.5566 364H67.6777L65.8379 357.66H66.916L68.1641 362.406L69.6406 357.66H70.5137L72.0195 362.506ZM76.6074 364H75.5234V357.66H76.6074V364ZM75.4355 355.979C75.4355 355.803 75.4883 355.654 75.5938 355.533C75.7031 355.412 75.8633 355.352 76.0742 355.352C76.2852 355.352 76.4453 355.412 76.5547 355.533C76.6641 355.654 76.7188 355.803 76.7188 355.979C76.7188 356.154 76.6641 356.301 76.5547 356.418C76.4453 356.535 76.2852 356.594 76.0742 356.594C75.8633 356.594 75.7031 356.535 75.5938 356.418C75.4883 356.301 75.4355 356.154 75.4355 355.979ZM79.8184 356.125V357.66H81.002V358.498H79.8184V362.43C79.8184 362.684 79.8711 362.875 79.9766 363.004C80.082 363.129 80.2617 363.191 80.5156 363.191C80.6406 363.191 80.8125 363.168 81.0312 363.121V364C80.7461 364.078 80.4688 364.117 80.1992 364.117C79.7148 364.117 79.3496 363.971 79.1035 363.678C78.8574 363.385 78.7344 362.969 78.7344 362.43V358.498H77.5801V357.66H78.7344V356.125H79.8184ZM83.3574 358.428C83.8379 357.838 84.4629 357.543 85.2324 357.543C86.5723 357.543 87.248 358.299 87.2598 359.811V364H86.1758V359.805C86.1719 359.348 86.0664 359.01 85.8594 358.791C85.6562 358.572 85.3379 358.463 84.9043 358.463C84.5527 358.463 84.2441 358.557 83.9785 358.744C83.7129 358.932 83.5059 359.178 83.3574 359.482V364H82.2734V355H83.3574V358.428ZM91.5723 360.771C91.5723 360.15 91.6934 359.592 91.9355 359.096C92.1816 358.6 92.5215 358.217 92.9551 357.947C93.3926 357.678 93.8906 357.543 94.4492 357.543C95.3125 357.543 96.0098 357.842 96.541 358.439C97.0762 359.037 97.3438 359.832 97.3438 360.824V360.9C97.3438 361.518 97.2246 362.072 96.9863 362.564C96.752 363.053 96.4141 363.434 95.9727 363.707C95.5352 363.98 95.0312 364.117 94.4609 364.117C93.6016 364.117 92.9043 363.818 92.3691 363.221C91.8379 362.623 91.5723 361.832 91.5723 360.848V360.771ZM92.6621 360.9C92.6621 361.604 92.8242 362.168 93.1484 362.594C93.4766 363.02 93.9141 363.232 94.4609 363.232C95.0117 363.232 95.4492 363.018 95.7734 362.588C96.0977 362.154 96.2598 361.549 96.2598 360.771C96.2598 360.076 96.0938 359.514 95.7617 359.084C95.4336 358.65 94.9961 358.434 94.4492 358.434C93.9141 358.434 93.4824 358.646 93.1543 359.072C92.8262 359.498 92.6621 360.107 92.6621 360.9ZM100.174 356.125V357.66H101.357V358.498H100.174V362.43C100.174 362.684 100.227 362.875 100.332 363.004C100.438 363.129 100.617 363.191 100.871 363.191C100.996 363.191 101.168 363.168 101.387 363.121V364C101.102 364.078 100.824 364.117 100.555 364.117C100.07 364.117 99.7051 363.971 99.459 363.678C99.2129 363.385 99.0898 362.969 99.0898 362.43V358.498H97.9355V357.66H99.0898V356.125H100.174ZM103.713 358.428C104.193 357.838 104.818 357.543 105.588 357.543C106.928 357.543 107.604 358.299 107.615 359.811V364H106.531V359.805C106.527 359.348 106.422 359.01 106.215 358.791C106.012 358.572 105.693 358.463 105.26 358.463C104.908 358.463 104.6 358.557 104.334 358.744C104.068 358.932 103.861 359.178 103.713 359.482V364H102.629V355H103.713V358.428ZM111.869 364.117C111.01 364.117 110.311 363.836 109.771 363.273C109.232 362.707 108.963 361.951 108.963 361.006V360.807C108.963 360.178 109.082 359.617 109.32 359.125C109.562 358.629 109.898 358.242 110.328 357.965C110.762 357.684 111.23 357.543 111.734 357.543C112.559 357.543 113.199 357.814 113.656 358.357C114.113 358.9 114.342 359.678 114.342 360.689V361.141H110.047C110.062 361.766 110.244 362.271 110.592 362.658C110.943 363.041 111.389 363.232 111.928 363.232C112.311 363.232 112.635 363.154 112.9 362.998C113.166 362.842 113.398 362.635 113.598 362.377L114.26 362.893C113.729 363.709 112.932 364.117 111.869 364.117ZM111.734 358.434C111.297 358.434 110.93 358.594 110.633 358.914C110.336 359.23 110.152 359.676 110.082 360.25H113.258V360.168C113.227 359.617 113.078 359.191 112.812 358.891C112.547 358.586 112.188 358.434 111.734 358.434ZM118.666 358.633C118.502 358.605 118.324 358.592 118.133 358.592C117.422 358.592 116.939 358.895 116.686 359.5V364H115.602V357.66H116.656L116.674 358.393C117.029 357.826 117.533 357.543 118.186 357.543C118.396 357.543 118.557 357.57 118.666 357.625V358.633ZM59.1934 374.9C59.1934 375.865 58.9727 376.643 58.5312 377.232C58.0898 377.822 57.4922 378.117 56.7383 378.117C55.9688 378.117 55.3633 377.873 54.9219 377.385V380.438H53.8379V371.66H54.8281L54.8809 372.363C55.3223 371.816 55.9355 371.543 56.7207 371.543C57.4824 371.543 58.084 371.83 58.5254 372.404C58.9707 372.979 59.1934 373.777 59.1934 374.801V374.9ZM58.1094 374.777C58.1094 374.062 57.957 373.498 57.6523 373.084C57.3477 372.67 56.9297 372.463 56.3984 372.463C55.7422 372.463 55.25 372.754 54.9219 373.336V376.365C55.2461 376.943 55.7422 377.232 56.4102 377.232C56.9297 377.232 57.3418 377.027 57.6465 376.617C57.9551 376.203 58.1094 375.59 58.1094 374.777ZM63.207 378.117C62.3477 378.117 61.6484 377.836 61.1094 377.273C60.5703 376.707 60.3008 375.951 60.3008 375.006V374.807C60.3008 374.178 60.4199 373.617 60.6582 373.125C60.9004 372.629 61.2363 372.242 61.666 371.965C62.0996 371.684 62.5684 371.543 63.0723 371.543C63.8965 371.543 64.5371 371.814 64.9941 372.357C65.4512 372.9 65.6797 373.678 65.6797 374.689V375.141H61.3848C61.4004 375.766 61.582 376.271 61.9297 376.658C62.2812 377.041 62.7266 377.232 63.2656 377.232C63.6484 377.232 63.9727 377.154 64.2383 376.998C64.5039 376.842 64.7363 376.635 64.9355 376.377L65.5977 376.893C65.0664 377.709 64.2695 378.117 63.207 378.117ZM63.0723 372.434C62.6348 372.434 62.2676 372.594 61.9707 372.914C61.6738 373.23 61.4902 373.676 61.4199 374.25H64.5957V374.168C64.5645 373.617 64.416 373.191 64.1504 372.891C63.8848 372.586 63.5254 372.434 63.0723 372.434ZM66.6523 374.771C66.6523 374.15 66.7734 373.592 67.0156 373.096C67.2617 372.6 67.6016 372.217 68.0352 371.947C68.4727 371.678 68.9707 371.543 69.5293 371.543C70.3926 371.543 71.0898 371.842 71.6211 372.439C72.1562 373.037 72.4238 373.832 72.4238 374.824V374.9C72.4238 375.518 72.3047 376.072 72.0664 376.564C71.832 377.053 71.4941 377.434 71.0527 377.707C70.6152 377.98 70.1113 378.117 69.541 378.117C68.6816 378.117 67.9844 377.818 67.4492 377.221C66.918 376.623 66.6523 375.832 66.6523 374.848V374.771ZM67.7422 374.9C67.7422 375.604 67.9043 376.168 68.2285 376.594C68.5566 377.02 68.9941 377.232 69.541 377.232C70.0918 377.232 70.5293 377.018 70.8535 376.588C71.1777 376.154 71.3398 375.549 71.3398 374.771C71.3398 374.076 71.1738 373.514 70.8418 373.084C70.5137 372.65 70.0762 372.434 69.5293 372.434C68.9941 372.434 68.5625 372.646 68.2344 373.072C67.9062 373.498 67.7422 374.107 67.7422 374.9ZM79.1387 374.9C79.1387 375.865 78.918 376.643 78.4766 377.232C78.0352 377.822 77.4375 378.117 76.6836 378.117C75.9141 378.117 75.3086 377.873 74.8672 377.385V380.438H73.7832V371.66H74.7734L74.8262 372.363C75.2676 371.816 75.8809 371.543 76.666 371.543C77.4277 371.543 78.0293 371.83 78.4707 372.404C78.916 372.979 79.1387 373.777 79.1387 374.801V374.9ZM78.0547 374.777C78.0547 374.062 77.9023 373.498 77.5977 373.084C77.293 372.67 76.875 372.463 76.3438 372.463C75.6875 372.463 75.1953 372.754 74.8672 373.336V376.365C75.1914 376.943 75.6875 377.232 76.3555 377.232C76.875 377.232 77.2871 377.027 77.5918 376.617C77.9004 376.203 78.0547 375.59 78.0547 374.777ZM81.6992 378H80.6152V369H81.6992V378ZM86.0703 378.117C85.2109 378.117 84.5117 377.836 83.9727 377.273C83.4336 376.707 83.1641 375.951 83.1641 375.006V374.807C83.1641 374.178 83.2832 373.617 83.5215 373.125C83.7637 372.629 84.0996 372.242 84.5293 371.965C84.9629 371.684 85.4316 371.543 85.9355 371.543C86.7598 371.543 87.4004 371.814 87.8574 372.357C88.3145 372.9 88.543 373.678 88.543 374.689V375.141H84.248C84.2637 375.766 84.4453 376.271 84.793 376.658C85.1445 377.041 85.5898 377.232 86.1289 377.232C86.5117 377.232 86.8359 377.154 87.1016 376.998C87.3672 376.842 87.5996 376.635 87.7988 376.377L88.4609 376.893C87.9297 377.709 87.1328 378.117 86.0703 378.117ZM85.9355 372.434C85.498 372.434 85.1309 372.594 84.834 372.914C84.5371 373.23 84.3535 373.676 84.2832 374.25H87.459V374.168C87.4277 373.617 87.2793 373.191 87.0137 372.891C86.748 372.586 86.3887 372.434 85.9355 372.434Z" fill="black"/>
<g filter="url(#filter2_d)">
<rect x="4" y="449" width="134" height="134" fill="#EEE380"/>
</g>
<path d="M48.0605 517.773H44.4863L43.6836 520H42.5234L45.7812 511.469H46.7656L50.0293 520H48.875L48.0605 517.773ZM44.8262 516.848H47.7266L46.2734 512.857L44.8262 516.848ZM52.1855 520H51.1016V511H52.1855V520ZM53.6387 516.771C53.6387 516.15 53.7598 515.592 54.002 515.096C54.248 514.6 54.5879 514.217 55.0215 513.947C55.459 513.678 55.957 513.543 56.5156 513.543C57.3789 513.543 58.0762 513.842 58.6074 514.439C59.1426 515.037 59.4102 515.832 59.4102 516.824V516.9C59.4102 517.518 59.291 518.072 59.0527 518.564C58.8184 519.053 58.4805 519.434 58.0391 519.707C57.6016 519.98 57.0977 520.117 56.5273 520.117C55.668 520.117 54.9707 519.818 54.4355 519.221C53.9043 518.623 53.6387 517.832 53.6387 516.848V516.771ZM54.7285 516.9C54.7285 517.604 54.8906 518.168 55.2148 518.594C55.543 519.02 55.9805 519.232 56.5273 519.232C57.0781 519.232 57.5156 519.018 57.8398 518.588C58.1641 518.154 58.3262 517.549 58.3262 516.771C58.3262 516.076 58.1602 515.514 57.8281 515.084C57.5 514.65 57.0625 514.434 56.5156 514.434C55.9805 514.434 55.5488 514.646 55.2207 515.072C54.8926 515.498 54.7285 516.107 54.7285 516.9ZM61.7949 513.66L61.8301 514.457C62.3145 513.848 62.9473 513.543 63.7285 513.543C65.0684 513.543 65.7441 514.299 65.7559 515.811V520H64.6719V515.805C64.668 515.348 64.5625 515.01 64.3555 514.791C64.1523 514.572 63.834 514.463 63.4004 514.463C63.0488 514.463 62.7402 514.557 62.4746 514.744C62.209 514.932 62.002 515.178 61.8535 515.482V520H60.7695V513.66H61.7949ZM70.0215 520.117C69.1621 520.117 68.4629 519.836 67.9238 519.273C67.3848 518.707 67.1152 517.951 67.1152 517.006V516.807C67.1152 516.178 67.2344 515.617 67.4727 515.125C67.7148 514.629 68.0508 514.242 68.4805 513.965C68.9141 513.684 69.3828 513.543 69.8867 513.543C70.7109 513.543 71.3516 513.814 71.8086 514.357C72.2656 514.9 72.4941 515.678 72.4941 516.689V517.141H68.1992C68.2148 517.766 68.3965 518.271 68.7441 518.658C69.0957 519.041 69.541 519.232 70.0801 519.232C70.4629 519.232 70.7871 519.154 71.0527 518.998C71.3184 518.842 71.5508 518.635 71.75 518.377L72.4121 518.893C71.8809 519.709 71.084 520.117 70.0215 520.117ZM69.8867 514.434C69.4492 514.434 69.082 514.594 68.7852 514.914C68.4883 515.23 68.3047 515.676 68.2344 516.25H71.4102V516.168C71.3789 515.617 71.2305 515.191 70.9648 514.891C70.6992 514.586 70.3398 514.434 69.8867 514.434ZM78.2012 512.125V513.66H79.3848V514.498H78.2012V518.43C78.2012 518.684 78.2539 518.875 78.3594 519.004C78.4648 519.129 78.6445 519.191 78.8984 519.191C79.0234 519.191 79.1953 519.168 79.4141 519.121V520C79.1289 520.078 78.8516 520.117 78.582 520.117C78.0977 520.117 77.7324 519.971 77.4863 519.678C77.2402 519.385 77.1172 518.969 77.1172 518.43V514.498H75.9629V513.66H77.1172V512.125H78.2012ZM81.834 520H80.75V513.66H81.834V520ZM80.6621 511.979C80.6621 511.803 80.7148 511.654 80.8203 511.533C80.9297 511.412 81.0898 511.352 81.3008 511.352C81.5117 511.352 81.6719 511.412 81.7812 511.533C81.8906 511.654 81.9453 511.803 81.9453 511.979C81.9453 512.154 81.8906 512.301 81.7812 512.418C81.6719 512.535 81.5117 512.594 81.3008 512.594C81.0898 512.594 80.9297 512.535 80.8203 512.418C80.7148 512.301 80.6621 512.154 80.6621 511.979ZM84.5938 513.66L84.623 514.363C85.0879 513.816 85.7148 513.543 86.5039 513.543C87.3906 513.543 87.9941 513.883 88.3145 514.562C88.5254 514.258 88.7988 514.012 89.1348 513.824C89.4746 513.637 89.875 513.543 90.3359 513.543C91.7266 513.543 92.4336 514.279 92.457 515.752V520H91.373V515.816C91.373 515.363 91.2695 515.025 91.0625 514.803C90.8555 514.576 90.5078 514.463 90.0195 514.463C89.6172 514.463 89.2832 514.584 89.0176 514.826C88.752 515.064 88.5977 515.387 88.5547 515.793V520H87.4648V515.846C87.4648 514.924 87.0137 514.463 86.1113 514.463C85.4004 514.463 84.9141 514.766 84.6523 515.371V520H83.5684V513.66H84.5938ZM96.7285 520.117C95.8691 520.117 95.1699 519.836 94.6309 519.273C94.0918 518.707 93.8223 517.951 93.8223 517.006V516.807C93.8223 516.178 93.9414 515.617 94.1797 515.125C94.4219 514.629 94.7578 514.242 95.1875 513.965C95.6211 513.684 96.0898 513.543 96.5938 513.543C97.418 513.543 98.0586 513.814 98.5156 514.357C98.9727 514.9 99.2012 515.678 99.2012 516.689V517.141H94.9062C94.9219 517.766 95.1035 518.271 95.4512 518.658C95.8027 519.041 96.248 519.232 96.7871 519.232C97.1699 519.232 97.4941 519.154 97.7598 518.998C98.0254 518.842 98.2578 518.635 98.457 518.377L99.1191 518.893C98.5879 519.709 97.791 520.117 96.7285 520.117ZM96.5938 514.434C96.1562 514.434 95.7891 514.594 95.4922 514.914C95.1953 515.23 95.0117 515.676 94.9414 516.25H98.1172V516.168C98.0859 515.617 97.9375 515.191 97.6719 514.891C97.4062 514.586 97.0469 514.434 96.5938 514.434Z" fill="black"/>
<g filter="url(#filter3_d)">
<rect x="155" y="598" width="134" height="134" fill="#EEE380"/>
</g>
<path d="M203.701 666.311L203.865 667.436L204.105 666.422L205.793 660.469H206.742L208.389 666.422L208.623 667.453L208.805 666.305L210.129 660.469H211.26L209.191 669H208.166L206.408 662.783L206.273 662.133L206.139 662.783L204.316 669H203.291L201.229 660.469H202.354L203.701 666.311ZM216.059 669C215.996 668.875 215.945 668.652 215.906 668.332C215.402 668.855 214.801 669.117 214.102 669.117C213.477 669.117 212.963 668.941 212.561 668.59C212.162 668.234 211.963 667.785 211.963 667.242C211.963 666.582 212.213 666.07 212.713 665.707C213.217 665.34 213.924 665.156 214.834 665.156H215.889V664.658C215.889 664.279 215.775 663.979 215.549 663.756C215.322 663.529 214.988 663.416 214.547 663.416C214.16 663.416 213.836 663.514 213.574 663.709C213.312 663.904 213.182 664.141 213.182 664.418H212.092C212.092 664.102 212.203 663.797 212.426 663.504C212.652 663.207 212.957 662.973 213.34 662.801C213.727 662.629 214.15 662.543 214.611 662.543C215.342 662.543 215.914 662.727 216.328 663.094C216.742 663.457 216.957 663.959 216.973 664.6V667.518C216.973 668.1 217.047 668.562 217.195 668.906V669H216.059ZM214.26 668.174C214.6 668.174 214.922 668.086 215.227 667.91C215.531 667.734 215.752 667.506 215.889 667.225V665.924H215.039C213.711 665.924 213.047 666.312 213.047 667.09C213.047 667.43 213.16 667.695 213.387 667.887C213.613 668.078 213.904 668.174 214.26 668.174ZM219.85 669H218.766V660H219.85V669ZM223.359 666.064L222.68 666.773V669H221.596V660H222.68V665.443L223.26 664.746L225.234 662.66H226.553L224.086 665.309L226.84 669H225.568L223.359 666.064ZM228.85 669H227.766V662.66H228.85V669ZM227.678 660.979C227.678 660.803 227.73 660.654 227.836 660.533C227.945 660.412 228.105 660.352 228.316 660.352C228.527 660.352 228.688 660.412 228.797 660.533C228.906 660.654 228.961 660.803 228.961 660.979C228.961 661.154 228.906 661.301 228.797 661.418C228.688 661.535 228.527 661.594 228.316 661.594C228.105 661.594 227.945 661.535 227.836 661.418C227.73 661.301 227.678 661.154 227.678 660.979ZM231.615 662.66L231.65 663.457C232.135 662.848 232.768 662.543 233.549 662.543C234.889 662.543 235.564 663.299 235.576 664.811V669H234.492V664.805C234.488 664.348 234.383 664.01 234.176 663.791C233.973 663.572 233.654 663.463 233.221 663.463C232.869 663.463 232.561 663.557 232.295 663.744C232.029 663.932 231.822 664.178 231.674 664.482V669H230.59V662.66H231.615ZM236.953 665.777C236.953 664.789 237.182 664.004 237.639 663.422C238.096 662.836 238.701 662.543 239.455 662.543C240.229 662.543 240.832 662.816 241.266 663.363L241.318 662.66H242.309V668.848C242.309 669.668 242.064 670.314 241.576 670.787C241.092 671.26 240.439 671.496 239.619 671.496C239.162 671.496 238.715 671.398 238.277 671.203C237.84 671.008 237.506 670.74 237.275 670.4L237.838 669.75C238.303 670.324 238.871 670.611 239.543 670.611C240.07 670.611 240.48 670.463 240.773 670.166C241.07 669.869 241.219 669.451 241.219 668.912V668.367C240.785 668.867 240.193 669.117 239.443 669.117C238.701 669.117 238.1 668.818 237.639 668.221C237.182 667.623 236.953 666.809 236.953 665.777ZM238.043 665.9C238.043 666.615 238.189 667.178 238.482 667.588C238.775 667.994 239.186 668.197 239.713 668.197C240.396 668.197 240.898 667.887 241.219 667.266V664.371C240.887 663.766 240.389 663.463 239.725 663.463C239.197 663.463 238.785 663.668 238.488 664.078C238.191 664.488 238.043 665.096 238.043 665.9Z" fill="black"/>
<g filter="url(#filter4_d)">
<rect x="155" y="747" width="134" height="134" fill="#EEE380"/>
</g>
<path d="M187.119 818V809.469H189.527C190.27 809.469 190.926 809.633 191.496 809.961C192.066 810.289 192.506 810.756 192.814 811.361C193.127 811.967 193.285 812.662 193.289 813.447V813.992C193.289 814.797 193.133 815.502 192.82 816.107C192.512 816.713 192.068 817.178 191.49 817.502C190.916 817.826 190.246 817.992 189.48 818H187.119ZM188.244 810.395V817.08H189.428C190.295 817.08 190.969 816.811 191.449 816.271C191.934 815.732 192.176 814.965 192.176 813.969V813.471C192.176 812.502 191.947 811.75 191.49 811.215C191.037 810.676 190.393 810.402 189.557 810.395H188.244ZM194.537 814.771C194.537 814.15 194.658 813.592 194.9 813.096C195.146 812.6 195.486 812.217 195.92 811.947C196.357 811.678 196.855 811.543 197.414 811.543C198.277 811.543 198.975 811.842 199.506 812.439C200.041 813.037 200.309 813.832 200.309 814.824V814.9C200.309 815.518 200.189 816.072 199.951 816.564C199.717 817.053 199.379 817.434 198.938 817.707C198.5 817.98 197.996 818.117 197.426 818.117C196.566 818.117 195.869 817.818 195.334 817.221C194.803 816.623 194.537 815.832 194.537 814.848V814.771ZM195.627 814.9C195.627 815.604 195.789 816.168 196.113 816.594C196.441 817.02 196.879 817.232 197.426 817.232C197.977 817.232 198.414 817.018 198.738 816.588C199.062 816.154 199.225 815.549 199.225 814.771C199.225 814.076 199.059 813.514 198.727 813.084C198.398 812.65 197.961 812.434 197.414 812.434C196.879 812.434 196.447 812.646 196.119 813.072C195.791 813.498 195.627 814.107 195.627 814.9ZM202.846 818H201.762V811.66H202.846V818ZM201.674 809.979C201.674 809.803 201.727 809.654 201.832 809.533C201.941 809.412 202.102 809.352 202.312 809.352C202.523 809.352 202.684 809.412 202.793 809.533C202.902 809.654 202.957 809.803 202.957 809.979C202.957 810.154 202.902 810.301 202.793 810.418C202.684 810.535 202.523 810.594 202.312 810.594C202.102 810.594 201.941 810.535 201.832 810.418C201.727 810.301 201.674 810.154 201.674 809.979ZM205.611 811.66L205.646 812.457C206.131 811.848 206.764 811.543 207.545 811.543C208.885 811.543 209.561 812.299 209.572 813.811V818H208.488V813.805C208.484 813.348 208.379 813.01 208.172 812.791C207.969 812.572 207.65 812.463 207.217 812.463C206.865 812.463 206.557 812.557 206.291 812.744C206.025 812.932 205.818 813.178 205.67 813.482V818H204.586V811.66H205.611ZM210.949 814.777C210.949 813.789 211.178 813.004 211.635 812.422C212.092 811.836 212.697 811.543 213.451 811.543C214.225 811.543 214.828 811.816 215.262 812.363L215.314 811.66H216.305V817.848C216.305 818.668 216.061 819.314 215.572 819.787C215.088 820.26 214.436 820.496 213.615 820.496C213.158 820.496 212.711 820.398 212.273 820.203C211.836 820.008 211.502 819.74 211.271 819.4L211.834 818.75C212.299 819.324 212.867 819.611 213.539 819.611C214.066 819.611 214.477 819.463 214.77 819.166C215.066 818.869 215.215 818.451 215.215 817.912V817.367C214.781 817.867 214.189 818.117 213.439 818.117C212.697 818.117 212.096 817.818 211.635 817.221C211.178 816.623 210.949 815.809 210.949 814.777ZM212.039 814.9C212.039 815.615 212.186 816.178 212.479 816.588C212.771 816.994 213.182 817.197 213.709 817.197C214.393 817.197 214.895 816.887 215.215 816.266V813.371C214.883 812.766 214.385 812.463 213.721 812.463C213.193 812.463 212.781 812.668 212.484 813.078C212.188 813.488 212.039 814.096 212.039 814.9ZM227.367 815.293C227.262 816.195 226.928 816.893 226.365 817.385C225.807 817.873 225.062 818.117 224.133 818.117C223.125 818.117 222.316 817.756 221.707 817.033C221.102 816.311 220.799 815.344 220.799 814.133V813.312C220.799 812.52 220.939 811.822 221.221 811.221C221.506 810.619 221.908 810.158 222.428 809.838C222.947 809.514 223.549 809.352 224.232 809.352C225.139 809.352 225.865 809.605 226.412 810.113C226.959 810.617 227.277 811.316 227.367 812.211H226.236C226.139 811.531 225.926 811.039 225.598 810.734C225.273 810.43 224.818 810.277 224.232 810.277C223.514 810.277 222.949 810.543 222.539 811.074C222.133 811.605 221.93 812.361 221.93 813.342V814.168C221.93 815.094 222.123 815.83 222.51 816.377C222.896 816.924 223.438 817.197 224.133 817.197C224.758 817.197 225.236 817.057 225.568 816.775C225.904 816.49 226.127 815.996 226.236 815.293H227.367ZM229.822 812.428C230.303 811.838 230.928 811.543 231.697 811.543C233.037 811.543 233.713 812.299 233.725 813.811V818H232.641V813.805C232.637 813.348 232.531 813.01 232.324 812.791C232.121 812.572 231.803 812.463 231.369 812.463C231.018 812.463 230.709 812.557 230.443 812.744C230.178 812.932 229.971 813.178 229.822 813.482V818H228.738V809H229.822V812.428ZM235.061 814.771C235.061 814.15 235.182 813.592 235.424 813.096C235.67 812.6 236.01 812.217 236.443 811.947C236.881 811.678 237.379 811.543 237.938 811.543C238.801 811.543 239.498 811.842 240.029 812.439C240.564 813.037 240.832 813.832 240.832 814.824V814.9C240.832 815.518 240.713 816.072 240.475 816.564C240.24 817.053 239.902 817.434 239.461 817.707C239.023 817.98 238.52 818.117 237.949 818.117C237.09 818.117 236.393 817.818 235.857 817.221C235.326 816.623 235.061 815.832 235.061 814.848V814.771ZM236.15 814.9C236.15 815.604 236.312 816.168 236.637 816.594C236.965 817.02 237.402 817.232 237.949 817.232C238.5 817.232 238.938 817.018 239.262 816.588C239.586 816.154 239.748 815.549 239.748 814.771C239.748 814.076 239.582 813.514 239.25 813.084C238.922 812.65 238.484 812.434 237.938 812.434C237.402 812.434 236.971 812.646 236.643 813.072C236.314 813.498 236.15 814.107 236.15 814.9ZM245.256 812.633C245.092 812.605 244.914 812.592 244.723 812.592C244.012 812.592 243.529 812.895 243.275 813.5V818H242.191V811.66H243.246L243.264 812.393C243.619 811.826 244.123 811.543 244.775 811.543C244.986 811.543 245.146 811.57 245.256 811.625V812.633ZM248.771 818.117C247.912 818.117 247.213 817.836 246.674 817.273C246.135 816.707 245.865 815.951 245.865 815.006V814.807C245.865 814.178 245.984 813.617 246.223 813.125C246.465 812.629 246.801 812.242 247.23 811.965C247.664 811.684 248.133 811.543 248.637 811.543C249.461 811.543 250.102 811.814 250.559 812.357C251.016 812.9 251.244 813.678 251.244 814.689V815.141H246.949C246.965 815.766 247.146 816.271 247.494 816.658C247.846 817.041 248.291 817.232 248.83 817.232C249.213 817.232 249.537 817.154 249.803 816.998C250.068 816.842 250.301 816.635 250.5 816.377L251.162 816.893C250.631 817.709 249.834 818.117 248.771 818.117ZM248.637 812.434C248.199 812.434 247.832 812.594 247.535 812.914C247.238 813.23 247.055 813.676 246.984 814.25H250.16V814.168C250.129 813.617 249.98 813.191 249.715 812.891C249.449 812.586 249.09 812.434 248.637 812.434ZM256.195 816.318C256.195 816.025 256.084 815.799 255.861 815.639C255.643 815.475 255.258 815.334 254.707 815.217C254.16 815.1 253.725 814.959 253.4 814.795C253.08 814.631 252.842 814.436 252.686 814.209C252.533 813.982 252.457 813.713 252.457 813.4C252.457 812.881 252.676 812.441 253.113 812.082C253.555 811.723 254.117 811.543 254.801 811.543C255.52 811.543 256.102 811.729 256.547 812.1C256.996 812.471 257.221 812.945 257.221 813.523H256.131C256.131 813.227 256.004 812.971 255.75 812.756C255.5 812.541 255.184 812.434 254.801 812.434C254.406 812.434 254.098 812.52 253.875 812.691C253.652 812.863 253.541 813.088 253.541 813.365C253.541 813.627 253.645 813.824 253.852 813.957C254.059 814.09 254.432 814.217 254.971 814.338C255.514 814.459 255.953 814.604 256.289 814.771C256.625 814.939 256.873 815.143 257.033 815.381C257.197 815.615 257.279 815.902 257.279 816.242C257.279 816.809 257.053 817.264 256.6 817.607C256.146 817.947 255.559 818.117 254.836 818.117C254.328 818.117 253.879 818.027 253.488 817.848C253.098 817.668 252.791 817.418 252.568 817.098C252.35 816.773 252.24 816.424 252.24 816.049H253.324C253.344 816.412 253.488 816.701 253.758 816.916C254.031 817.127 254.391 817.232 254.836 817.232C255.246 817.232 255.574 817.15 255.82 816.986C256.07 816.818 256.195 816.596 256.195 816.318Z" fill="black"/>
<g filter="url(#filter5_d)">
<rect x="4" y="598" width="134" height="134" fill="#EEE380"/>
</g>
<path d="M53.5156 669V660.469H55.9238C56.666 660.469 57.3223 660.633 57.8926 660.961C58.4629 661.289 58.9023 661.756 59.2109 662.361C59.5234 662.967 59.6816 663.662 59.6855 664.447V664.992C59.6855 665.797 59.5293 666.502 59.2168 667.107C58.9082 667.713 58.4648 668.178 57.8867 668.502C57.3125 668.826 56.6426 668.992 55.877 669H53.5156ZM54.6406 661.395V668.08H55.8242C56.6914 668.08 57.3652 667.811 57.8457 667.271C58.3301 666.732 58.5723 665.965 58.5723 664.969V664.471C58.5723 663.502 58.3438 662.75 57.8867 662.215C57.4336 661.676 56.7891 661.402 55.9531 661.395H54.6406ZM64.2852 663.633C64.1211 663.605 63.9434 663.592 63.752 663.592C63.041 663.592 62.5586 663.895 62.3047 664.5V669H61.2207V662.66H62.2754L62.293 663.393C62.6484 662.826 63.1523 662.543 63.8047 662.543C64.0156 662.543 64.1758 662.57 64.2852 662.625V663.633ZM66.4648 669H65.3809V662.66H66.4648V669ZM65.293 660.979C65.293 660.803 65.3457 660.654 65.4512 660.533C65.5605 660.412 65.7207 660.352 65.9316 660.352C66.1426 660.352 66.3027 660.412 66.4121 660.533C66.5215 660.654 66.5762 660.803 66.5762 660.979C66.5762 661.154 66.5215 661.301 66.4121 661.418C66.3027 661.535 66.1426 661.594 65.9316 661.594C65.7207 661.594 65.5605 661.535 65.4512 661.418C65.3457 661.301 65.293 661.154 65.293 660.979ZM70.2969 667.529L71.8672 662.66H72.9746L70.7012 669H69.875L67.5781 662.66H68.6855L70.2969 667.529ZM75.1953 669H74.1113V662.66H75.1953V669ZM74.0234 660.979C74.0234 660.803 74.0762 660.654 74.1816 660.533C74.291 660.412 74.4512 660.352 74.6621 660.352C74.873 660.352 75.0332 660.412 75.1426 660.533C75.252 660.654 75.3066 660.803 75.3066 660.979C75.3066 661.154 75.252 661.301 75.1426 661.418C75.0332 661.535 74.873 661.594 74.6621 661.594C74.4512 661.594 74.291 661.535 74.1816 661.418C74.0762 661.301 74.0234 661.154 74.0234 660.979ZM77.9609 662.66L77.9961 663.457C78.4805 662.848 79.1133 662.543 79.8945 662.543C81.2344 662.543 81.9102 663.299 81.9219 664.811V669H80.8379V664.805C80.834 664.348 80.7285 664.01 80.5215 663.791C80.3184 663.572 80 663.463 79.5664 663.463C79.2148 663.463 78.9062 663.557 78.6406 663.744C78.375 663.932 78.168 664.178 78.0195 664.482V669H76.9355V662.66H77.9609ZM83.2988 665.777C83.2988 664.789 83.5273 664.004 83.9844 663.422C84.4414 662.836 85.0469 662.543 85.8008 662.543C86.5742 662.543 87.1777 662.816 87.6113 663.363L87.6641 662.66H88.6543V668.848C88.6543 669.668 88.4102 670.314 87.9219 670.787C87.4375 671.26 86.7852 671.496 85.9648 671.496C85.5078 671.496 85.0605 671.398 84.623 671.203C84.1855 671.008 83.8516 670.74 83.6211 670.4L84.1836 669.75C84.6484 670.324 85.2168 670.611 85.8887 670.611C86.416 670.611 86.8262 670.463 87.1191 670.166C87.416 669.869 87.5645 669.451 87.5645 668.912V668.367C87.1309 668.867 86.5391 669.117 85.7891 669.117C85.0469 669.117 84.4453 668.818 83.9844 668.221C83.5273 667.623 83.2988 666.809 83.2988 665.777ZM84.3887 665.9C84.3887 666.615 84.5352 667.178 84.8281 667.588C85.1211 667.994 85.5312 668.197 86.0586 668.197C86.7422 668.197 87.2441 667.887 87.5645 667.266V664.371C87.2324 663.766 86.7344 663.463 86.0703 663.463C85.543 663.463 85.1309 663.668 84.834 664.078C84.5371 664.488 84.3887 665.096 84.3887 665.9Z" fill="black"/>
<g filter="url(#filter6_d)">
<rect x="4" y="747" width="134" height="134" fill="#EEE380"/>
</g>
<path d="M41.0762 815.311L41.2402 816.436L41.4805 815.422L43.168 809.469H44.1172L45.7637 815.422L45.998 816.453L46.1797 815.305L47.5039 809.469H48.6348L46.5664 818H45.541L43.7832 811.783L43.6484 811.133L43.5137 811.783L41.6914 818H40.666L38.6035 809.469H39.7285L41.0762 815.311ZM49.2441 814.771C49.2441 814.15 49.3652 813.592 49.6074 813.096C49.8535 812.6 50.1934 812.217 50.627 811.947C51.0645 811.678 51.5625 811.543 52.1211 811.543C52.9844 811.543 53.6816 811.842 54.2129 812.439C54.748 813.037 55.0156 813.832 55.0156 814.824V814.9C55.0156 815.518 54.8965 816.072 54.6582 816.564C54.4238 817.053 54.0859 817.434 53.6445 817.707C53.207 817.98 52.7031 818.117 52.1328 818.117C51.2734 818.117 50.5762 817.818 50.041 817.221C49.5098 816.623 49.2441 815.832 49.2441 814.848V814.771ZM50.334 814.9C50.334 815.604 50.4961 816.168 50.8203 816.594C51.1484 817.02 51.5859 817.232 52.1328 817.232C52.6836 817.232 53.1211 817.018 53.4453 816.588C53.7695 816.154 53.9316 815.549 53.9316 814.771C53.9316 814.076 53.7656 813.514 53.4336 813.084C53.1055 812.65 52.668 812.434 52.1211 812.434C51.5859 812.434 51.1543 812.646 50.8262 813.072C50.498 813.498 50.334 814.107 50.334 814.9ZM59.4395 812.633C59.2754 812.605 59.0977 812.592 58.9062 812.592C58.1953 812.592 57.7129 812.895 57.459 813.5V818H56.375V811.66H57.4297L57.4473 812.393C57.8027 811.826 58.3066 811.543 58.959 811.543C59.1699 811.543 59.3301 811.57 59.4395 811.625V812.633ZM62.2109 815.064L61.5312 815.773V818H60.4473V809H61.5312V814.443L62.1113 813.746L64.0859 811.66H65.4043L62.9375 814.309L65.6914 818H64.4199L62.2109 815.064ZM67.7012 818H66.6172V811.66H67.7012V818ZM66.5293 809.979C66.5293 809.803 66.582 809.654 66.6875 809.533C66.7969 809.412 66.957 809.352 67.168 809.352C67.3789 809.352 67.5391 809.412 67.6484 809.533C67.7578 809.654 67.8125 809.803 67.8125 809.979C67.8125 810.154 67.7578 810.301 67.6484 810.418C67.5391 810.535 67.3789 810.594 67.168 810.594C66.957 810.594 66.7969 810.535 66.6875 810.418C66.582 810.301 66.5293 810.154 66.5293 809.979ZM70.4668 811.66L70.502 812.457C70.9863 811.848 71.6191 811.543 72.4004 811.543C73.7402 811.543 74.416 812.299 74.4277 813.811V818H73.3438V813.805C73.3398 813.348 73.2344 813.01 73.0273 812.791C72.8242 812.572 72.5059 812.463 72.0723 812.463C71.7207 812.463 71.4121 812.557 71.1465 812.744C70.8809 812.932 70.6738 813.178 70.5254 813.482V818H69.4414V811.66H70.4668ZM75.8047 814.777C75.8047 813.789 76.0332 813.004 76.4902 812.422C76.9473 811.836 77.5527 811.543 78.3066 811.543C79.0801 811.543 79.6836 811.816 80.1172 812.363L80.1699 811.66H81.1602V817.848C81.1602 818.668 80.916 819.314 80.4277 819.787C79.9434 820.26 79.291 820.496 78.4707 820.496C78.0137 820.496 77.5664 820.398 77.1289 820.203C76.6914 820.008 76.3574 819.74 76.127 819.4L76.6895 818.75C77.1543 819.324 77.7227 819.611 78.3945 819.611C78.9219 819.611 79.332 819.463 79.625 819.166C79.9219 818.869 80.0703 818.451 80.0703 817.912V817.367C79.6367 817.867 79.0449 818.117 78.2949 818.117C77.5527 818.117 76.9512 817.818 76.4902 817.221C76.0332 816.623 75.8047 815.809 75.8047 814.777ZM76.8945 814.9C76.8945 815.615 77.041 816.178 77.334 816.588C77.627 816.994 78.0371 817.197 78.5645 817.197C79.248 817.197 79.75 816.887 80.0703 816.266V813.371C79.7383 812.766 79.2402 812.463 78.5762 812.463C78.0488 812.463 77.6367 812.668 77.3398 813.078C77.043 813.488 76.8945 814.096 76.8945 814.9ZM92.5098 814.01C92.5098 814.846 92.3691 815.576 92.0879 816.201C91.8066 816.822 91.4082 817.297 90.8926 817.625C90.377 817.953 89.7754 818.117 89.0879 818.117C88.416 818.117 87.8203 817.953 87.3008 817.625C86.7812 817.293 86.377 816.822 86.0879 816.213C85.8027 815.6 85.6562 814.891 85.6484 814.086V813.471C85.6484 812.65 85.791 811.926 86.0762 811.297C86.3613 810.668 86.7637 810.188 87.2832 809.855C87.8066 809.52 88.4043 809.352 89.0762 809.352C89.7598 809.352 90.3613 809.518 90.8809 809.85C91.4043 810.178 91.8066 810.656 92.0879 811.285C92.3691 811.91 92.5098 812.639 92.5098 813.471V814.01ZM91.3906 813.459C91.3906 812.447 91.1875 811.672 90.7812 811.133C90.375 810.59 89.8066 810.318 89.0762 810.318C88.3652 810.318 87.8047 810.59 87.3945 811.133C86.9883 811.672 86.7793 812.422 86.7676 813.383V814.01C86.7676 814.99 86.9727 815.762 87.3828 816.324C87.7969 816.883 88.3652 817.162 89.0879 817.162C89.8145 817.162 90.377 816.898 90.7754 816.371C91.1738 815.84 91.3789 815.08 91.3906 814.092V813.459ZM97.9414 817.373C97.5195 817.869 96.9004 818.117 96.084 818.117C95.4082 818.117 94.8926 817.922 94.5371 817.531C94.1855 817.137 94.0078 816.555 94.0039 815.785V811.66H95.0879V815.756C95.0879 816.717 95.4785 817.197 96.2598 817.197C97.0879 817.197 97.6387 816.889 97.9121 816.271V811.66H98.9961V818H97.9648L97.9414 817.373ZM102.119 810.125V811.66H103.303V812.498H102.119V816.43C102.119 816.684 102.172 816.875 102.277 817.004C102.383 817.129 102.562 817.191 102.816 817.191C102.941 817.191 103.113 817.168 103.332 817.121V818C103.047 818.078 102.77 818.117 102.5 818.117C102.016 818.117 101.65 817.971 101.404 817.678C101.158 817.385 101.035 816.969 101.035 816.43V812.498H99.8809V811.66H101.035V810.125H102.119Z" fill="black"/>
<g filter="url(#filter7_d)">
<rect x="4" y="896" width="134" height="134" fill="#EEE380"/>
</g>
<path d="M29.4277 964.293C29.3223 965.195 28.9883 965.893 28.4258 966.385C27.8672 966.873 27.123 967.117 26.1934 967.117C25.1855 967.117 24.377 966.756 23.7676 966.033C23.1621 965.311 22.8594 964.344 22.8594 963.133V962.312C22.8594 961.52 23 960.822 23.2812 960.221C23.5664 959.619 23.9688 959.158 24.4883 958.838C25.0078 958.514 25.6094 958.352 26.293 958.352C27.1992 958.352 27.9258 958.605 28.4727 959.113C29.0195 959.617 29.3379 960.316 29.4277 961.211H28.2969C28.1992 960.531 27.9863 960.039 27.6582 959.734C27.334 959.43 26.8789 959.277 26.293 959.277C25.5742 959.277 25.0098 959.543 24.5996 960.074C24.1934 960.605 23.9902 961.361 23.9902 962.342V963.168C23.9902 964.094 24.1836 964.83 24.5703 965.377C24.957 965.924 25.498 966.197 26.1934 966.197C26.8184 966.197 27.2969 966.057 27.6289 965.775C27.9648 965.49 28.1875 964.996 28.2969 964.293H29.4277ZM34.7129 967C34.6504 966.875 34.5996 966.652 34.5605 966.332C34.0566 966.855 33.4551 967.117 32.7559 967.117C32.1309 967.117 31.6172 966.941 31.2148 966.59C30.8164 966.234 30.6172 965.785 30.6172 965.242C30.6172 964.582 30.8672 964.07 31.3672 963.707C31.8711 963.34 32.5781 963.156 33.4883 963.156H34.543V962.658C34.543 962.279 34.4297 961.979 34.2031 961.756C33.9766 961.529 33.6426 961.416 33.2012 961.416C32.8145 961.416 32.4902 961.514 32.2285 961.709C31.9668 961.904 31.8359 962.141 31.8359 962.418H30.7461C30.7461 962.102 30.8574 961.797 31.0801 961.504C31.3066 961.207 31.6113 960.973 31.9941 960.801C32.3809 960.629 32.8047 960.543 33.2656 960.543C33.9961 960.543 34.5684 960.727 34.9824 961.094C35.3965 961.457 35.6113 961.959 35.627 962.6V965.518C35.627 966.1 35.7012 966.562 35.8496 966.906V967H34.7129ZM32.9141 966.174C33.2539 966.174 33.5762 966.086 33.8809 965.91C34.1855 965.734 34.4062 965.506 34.543 965.225V963.924H33.6934C32.3652 963.924 31.7012 964.312 31.7012 965.09C31.7012 965.43 31.8145 965.695 32.041 965.887C32.2676 966.078 32.5586 966.174 32.9141 966.174ZM38.3457 960.66L38.375 961.363C38.8398 960.816 39.4668 960.543 40.2559 960.543C41.1426 960.543 41.7461 960.883 42.0664 961.562C42.2773 961.258 42.5508 961.012 42.8867 960.824C43.2266 960.637 43.627 960.543 44.0879 960.543C45.4785 960.543 46.1855 961.279 46.209 962.752V967H45.125V962.816C45.125 962.363 45.0215 962.025 44.8145 961.803C44.6074 961.576 44.2598 961.463 43.7715 961.463C43.3691 961.463 43.0352 961.584 42.7695 961.826C42.5039 962.064 42.3496 962.387 42.3066 962.793V967H41.2168V962.846C41.2168 961.924 40.7656 961.463 39.8633 961.463C39.1523 961.463 38.666 961.766 38.4043 962.371V967H37.3203V960.66H38.3457ZM53.2051 963.9C53.2051 964.865 52.9844 965.643 52.543 966.232C52.1016 966.822 51.5039 967.117 50.75 967.117C49.9805 967.117 49.375 966.873 48.9336 966.385V969.438H47.8496V960.66H48.8398L48.8926 961.363C49.334 960.816 49.9473 960.543 50.7324 960.543C51.4941 960.543 52.0957 960.83 52.5371 961.404C52.9824 961.979 53.2051 962.777 53.2051 963.801V963.9ZM52.1211 963.777C52.1211 963.062 51.9688 962.498 51.6641 962.084C51.3594 961.67 50.9414 961.463 50.4102 961.463C49.7539 961.463 49.2617 961.754 48.9336 962.336V965.365C49.2578 965.943 49.7539 966.232 50.4219 966.232C50.9414 966.232 51.3535 966.027 51.6582 965.617C51.9668 965.203 52.1211 964.59 52.1211 963.777ZM54.9512 967V961.498H53.9492V960.66H54.9512V960.121C54.9512 959.414 55.1523 958.863 55.5547 958.469C55.9609 958.074 56.5332 957.877 57.2715 957.877C57.709 957.877 58.2617 957.996 58.9297 958.234L58.748 959.148C58.2598 958.953 57.7949 958.855 57.3535 958.855C56.8887 958.855 56.5527 958.961 56.3457 959.172C56.1426 959.379 56.041 959.691 56.041 960.109V960.66H57.3359V961.498H56.041V967H54.9512ZM59.4688 967H58.3789V960.66H59.4688V967ZM64.2969 961.633C64.1328 961.605 63.9551 961.592 63.7637 961.592C63.0527 961.592 62.5703 961.895 62.3164 962.5V967H61.2324V960.66H62.2871L62.3047 961.393C62.6602 960.826 63.1641 960.543 63.8164 960.543C64.0273 960.543 64.1875 960.57 64.2969 960.625V961.633ZM67.8125 967.117C66.9531 967.117 66.2539 966.836 65.7148 966.273C65.1758 965.707 64.9062 964.951 64.9062 964.006V963.807C64.9062 963.178 65.0254 962.617 65.2637 962.125C65.5059 961.629 65.8418 961.242 66.2715 960.965C66.7051 960.684 67.1738 960.543 67.6777 960.543C68.502 960.543 69.1426 960.814 69.5996 961.357C70.0566 961.9 70.2852 962.678 70.2852 963.689V964.141H65.9902C66.0059 964.766 66.1875 965.271 66.5352 965.658C66.8867 966.041 67.332 966.232 67.8711 966.232C68.2539 966.232 68.5781 966.154 68.8438 965.998C69.1094 965.842 69.3418 965.635 69.541 965.377L70.2031 965.893C69.6719 966.709 68.875 967.117 67.8125 967.117ZM67.6777 961.434C67.2402 961.434 66.873 961.594 66.5762 961.914C66.2793 962.23 66.0957 962.676 66.0254 963.25H69.2012V963.168C69.1699 962.617 69.0215 962.191 68.7559 961.891C68.4902 961.586 68.1309 961.434 67.6777 961.434ZM75.2363 965.318C75.2363 965.025 75.125 964.799 74.9023 964.639C74.6836 964.475 74.2988 964.334 73.748 964.217C73.2012 964.1 72.7656 963.959 72.4414 963.795C72.1211 963.631 71.8828 963.436 71.7266 963.209C71.5742 962.982 71.498 962.713 71.498 962.4C71.498 961.881 71.7168 961.441 72.1543 961.082C72.5957 960.723 73.1582 960.543 73.8418 960.543C74.5605 960.543 75.1426 960.729 75.5879 961.1C76.0371 961.471 76.2617 961.945 76.2617 962.523H75.1719C75.1719 962.227 75.0449 961.971 74.791 961.756C74.541 961.541 74.2246 961.434 73.8418 961.434C73.4473 961.434 73.1387 961.52 72.916 961.691C72.6934 961.863 72.582 962.088 72.582 962.365C72.582 962.627 72.6855 962.824 72.8926 962.957C73.0996 963.09 73.4727 963.217 74.0117 963.338C74.5547 963.459 74.9941 963.604 75.3301 963.771C75.666 963.939 75.9141 964.143 76.0742 964.381C76.2383 964.615 76.3203 964.902 76.3203 965.242C76.3203 965.809 76.0938 966.264 75.6406 966.607C75.1875 966.947 74.5996 967.117 73.877 967.117C73.3691 967.117 72.9199 967.027 72.5293 966.848C72.1387 966.668 71.832 966.418 71.6094 966.098C71.3906 965.773 71.2812 965.424 71.2812 965.049H72.3652C72.3848 965.412 72.5293 965.701 72.7988 965.916C73.0723 966.127 73.4316 966.232 73.877 966.232C74.2871 966.232 74.6152 966.15 74.8613 965.986C75.1113 965.818 75.2363 965.596 75.2363 965.318ZM80.668 963.537C80.668 962.654 80.7852 961.807 81.0195 960.994C81.2578 960.182 81.6113 959.443 82.0801 958.779C82.5488 958.115 83.0352 957.646 83.5391 957.373L83.7617 958.088C83.1914 958.525 82.7227 959.193 82.3555 960.092C81.9922 960.99 81.793 961.996 81.7578 963.109L81.752 963.607C81.752 965.115 82.0273 966.424 82.5781 967.533C82.9102 968.197 83.3047 968.717 83.7617 969.092L83.5391 969.754C83.0195 969.465 82.5234 968.98 82.0508 968.301C81.1289 966.973 80.668 965.385 80.668 963.537ZM88.502 965.318C88.502 965.025 88.3906 964.799 88.168 964.639C87.9492 964.475 87.5645 964.334 87.0137 964.217C86.4668 964.1 86.0312 963.959 85.707 963.795C85.3867 963.631 85.1484 963.436 84.9922 963.209C84.8398 962.982 84.7637 962.713 84.7637 962.4C84.7637 961.881 84.9824 961.441 85.4199 961.082C85.8613 960.723 86.4238 960.543 87.1074 960.543C87.8262 960.543 88.4082 960.729 88.8535 961.1C89.3027 961.471 89.5273 961.945 89.5273 962.523H88.4375C88.4375 962.227 88.3105 961.971 88.0566 961.756C87.8066 961.541 87.4902 961.434 87.1074 961.434C86.7129 961.434 86.4043 961.52 86.1816 961.691C85.959 961.863 85.8477 962.088 85.8477 962.365C85.8477 962.627 85.9512 962.824 86.1582 962.957C86.3652 963.09 86.7383 963.217 87.2773 963.338C87.8203 963.459 88.2598 963.604 88.5957 963.771C88.9316 963.939 89.1797 964.143 89.3398 964.381C89.5039 964.615 89.5859 964.902 89.5859 965.242C89.5859 965.809 89.3594 966.264 88.9062 966.607C88.4531 966.947 87.8652 967.117 87.1426 967.117C86.6348 967.117 86.1855 967.027 85.7949 966.848C85.4043 966.668 85.0977 966.418 84.875 966.098C84.6562 965.773 84.5469 965.424 84.5469 965.049H85.6309C85.6504 965.412 85.7949 965.701 86.0645 965.916C86.3379 966.127 86.6973 966.232 87.1426 966.232C87.5527 966.232 87.8809 966.15 88.127 965.986C88.377 965.818 88.502 965.596 88.502 965.318ZM90.7109 963.771C90.7109 963.15 90.832 962.592 91.0742 962.096C91.3203 961.6 91.6602 961.217 92.0938 960.947C92.5312 960.678 93.0293 960.543 93.5879 960.543C94.4512 960.543 95.1484 960.842 95.6797 961.439C96.2148 962.037 96.4824 962.832 96.4824 963.824V963.9C96.4824 964.518 96.3633 965.072 96.125 965.564C95.8906 966.053 95.5527 966.434 95.1113 966.707C94.6738 966.98 94.1699 967.117 93.5996 967.117C92.7402 967.117 92.043 966.818 91.5078 966.221C90.9766 965.623 90.7109 964.832 90.7109 963.848V963.771ZM91.8008 963.9C91.8008 964.604 91.9629 965.168 92.2871 965.594C92.6152 966.02 93.0527 966.232 93.5996 966.232C94.1504 966.232 94.5879 966.018 94.9121 965.588C95.2363 965.154 95.3984 964.549 95.3984 963.771C95.3984 963.076 95.2324 962.514 94.9004 962.084C94.5723 961.65 94.1348 961.434 93.5879 961.434C93.0527 961.434 92.6211 961.646 92.293 962.072C91.9648 962.498 91.8008 963.107 91.8008 963.9ZM100.385 966.232C100.771 966.232 101.109 966.115 101.398 965.881C101.688 965.646 101.848 965.354 101.879 965.002H102.904C102.885 965.365 102.76 965.711 102.529 966.039C102.299 966.367 101.99 966.629 101.604 966.824C101.221 967.02 100.814 967.117 100.385 967.117C99.5215 967.117 98.834 966.83 98.3223 966.256C97.8145 965.678 97.5605 964.889 97.5605 963.889V963.707C97.5605 963.09 97.6738 962.541 97.9004 962.061C98.127 961.58 98.4512 961.207 98.873 960.941C99.2988 960.676 99.8008 960.543 100.379 960.543C101.09 960.543 101.68 960.756 102.148 961.182C102.621 961.607 102.873 962.16 102.904 962.84H101.879C101.848 962.43 101.691 962.094 101.41 961.832C101.133 961.566 100.789 961.434 100.379 961.434C99.8281 961.434 99.4004 961.633 99.0957 962.031C98.7949 962.426 98.6445 962.998 98.6445 963.748V963.953C98.6445 964.684 98.7949 965.246 99.0957 965.641C99.3965 966.035 99.8262 966.232 100.385 966.232ZM105.301 967H104.217V960.66H105.301V967ZM104.129 958.979C104.129 958.803 104.182 958.654 104.287 958.533C104.396 958.412 104.557 958.352 104.768 958.352C104.979 958.352 105.139 958.412 105.248 958.533C105.357 958.654 105.412 958.803 105.412 958.979C105.412 959.154 105.357 959.301 105.248 959.418C105.139 959.535 104.979 959.594 104.768 959.594C104.557 959.594 104.396 959.535 104.287 959.418C104.182 959.301 104.129 959.154 104.129 958.979ZM110.955 967C110.893 966.875 110.842 966.652 110.803 966.332C110.299 966.855 109.697 967.117 108.998 967.117C108.373 967.117 107.859 966.941 107.457 966.59C107.059 966.234 106.859 965.785 106.859 965.242C106.859 964.582 107.109 964.07 107.609 963.707C108.113 963.34 108.82 963.156 109.73 963.156H110.785V962.658C110.785 962.279 110.672 961.979 110.445 961.756C110.219 961.529 109.885 961.416 109.443 961.416C109.057 961.416 108.732 961.514 108.471 961.709C108.209 961.904 108.078 962.141 108.078 962.418H106.988C106.988 962.102 107.1 961.797 107.322 961.504C107.549 961.207 107.854 960.973 108.236 960.801C108.623 960.629 109.047 960.543 109.508 960.543C110.238 960.543 110.811 960.727 111.225 961.094C111.639 961.457 111.854 961.959 111.869 962.6V965.518C111.869 966.1 111.943 966.562 112.092 966.906V967H110.955ZM109.156 966.174C109.496 966.174 109.818 966.086 110.123 965.91C110.428 965.734 110.648 965.506 110.785 965.225V963.924H109.936C108.607 963.924 107.943 964.312 107.943 965.09C107.943 965.43 108.057 965.695 108.283 965.887C108.51 966.078 108.801 966.174 109.156 966.174ZM114.746 967H113.662V958H114.746V967ZM118.988 963.596C118.988 964.467 118.873 965.303 118.643 966.104C118.416 966.9 118.066 967.637 117.594 968.312C117.125 968.988 116.633 969.469 116.117 969.754L115.889 969.092C116.49 968.631 116.973 967.916 117.336 966.947C117.703 965.975 117.891 964.896 117.898 963.713V963.525C117.898 962.705 117.812 961.943 117.641 961.24C117.469 960.533 117.229 959.9 116.92 959.342C116.615 958.783 116.271 958.348 115.889 958.035L116.117 957.373C116.633 957.658 117.123 958.135 117.588 958.803C118.057 959.471 118.406 960.207 118.637 961.012C118.871 961.816 118.988 962.678 118.988 963.596Z" fill="black"/>
<g filter="url(#filter8_d)">
<rect x="155" y="151" width="134" height="134" fill="#EEE380"/>
</g>
<path d="M185.877 219.311L186.041 220.436L186.281 219.422L187.969 213.469H188.918L190.564 219.422L190.799 220.453L190.98 219.305L192.305 213.469H193.436L191.367 222H190.342L188.584 215.783L188.449 215.133L188.314 215.783L186.492 222H185.467L183.404 213.469H184.529L185.877 219.311ZM195.604 216.428C196.084 215.838 196.709 215.543 197.479 215.543C198.818 215.543 199.494 216.299 199.506 217.811V222H198.422V217.805C198.418 217.348 198.312 217.01 198.105 216.791C197.902 216.572 197.584 216.463 197.15 216.463C196.799 216.463 196.49 216.557 196.225 216.744C195.959 216.932 195.752 217.178 195.604 217.482V222H194.52V213H195.604V216.428ZM202.307 222H201.223V215.66H202.307V222ZM201.135 213.979C201.135 213.803 201.188 213.654 201.293 213.533C201.402 213.412 201.562 213.352 201.773 213.352C201.984 213.352 202.145 213.412 202.254 213.533C202.363 213.654 202.418 213.803 202.418 213.979C202.418 214.154 202.363 214.301 202.254 214.418C202.145 214.535 201.984 214.594 201.773 214.594C201.562 214.594 201.402 214.535 201.293 214.418C201.188 214.301 201.135 214.154 201.135 213.979ZM205.225 222H204.141V213H205.225V222ZM209.596 222.117C208.736 222.117 208.037 221.836 207.498 221.273C206.959 220.707 206.689 219.951 206.689 219.006V218.807C206.689 218.178 206.809 217.617 207.047 217.125C207.289 216.629 207.625 216.242 208.055 215.965C208.488 215.684 208.957 215.543 209.461 215.543C210.285 215.543 210.926 215.814 211.383 216.357C211.84 216.9 212.068 217.678 212.068 218.689V219.141H207.773C207.789 219.766 207.971 220.271 208.318 220.658C208.67 221.041 209.115 221.232 209.654 221.232C210.037 221.232 210.361 221.154 210.627 220.998C210.893 220.842 211.125 220.635 211.324 220.377L211.986 220.893C211.455 221.709 210.658 222.117 209.596 222.117ZM209.461 216.434C209.023 216.434 208.656 216.594 208.359 216.914C208.062 217.23 207.879 217.676 207.809 218.25H210.984V218.168C210.953 217.617 210.805 217.191 210.539 216.891C210.273 216.586 209.914 216.434 209.461 216.434ZM219.996 220.318C219.996 220.025 219.885 219.799 219.662 219.639C219.443 219.475 219.059 219.334 218.508 219.217C217.961 219.1 217.525 218.959 217.201 218.795C216.881 218.631 216.643 218.436 216.486 218.209C216.334 217.982 216.258 217.713 216.258 217.4C216.258 216.881 216.477 216.441 216.914 216.082C217.355 215.723 217.918 215.543 218.602 215.543C219.32 215.543 219.902 215.729 220.348 216.1C220.797 216.471 221.021 216.945 221.021 217.523H219.932C219.932 217.227 219.805 216.971 219.551 216.756C219.301 216.541 218.984 216.434 218.602 216.434C218.207 216.434 217.898 216.52 217.676 216.691C217.453 216.863 217.342 217.088 217.342 217.365C217.342 217.627 217.445 217.824 217.652 217.957C217.859 218.09 218.232 218.217 218.771 218.338C219.314 218.459 219.754 218.604 220.09 218.771C220.426 218.939 220.674 219.143 220.834 219.381C220.998 219.615 221.08 219.902 221.08 220.242C221.08 220.809 220.854 221.264 220.4 221.607C219.947 221.947 219.359 222.117 218.637 222.117C218.129 222.117 217.68 222.027 217.289 221.848C216.898 221.668 216.592 221.418 216.369 221.098C216.15 220.773 216.041 220.424 216.041 220.049H217.125C217.145 220.412 217.289 220.701 217.559 220.916C217.832 221.127 218.191 221.232 218.637 221.232C219.047 221.232 219.375 221.15 219.621 220.986C219.871 220.818 219.996 220.596 219.996 220.318ZM223.963 214.125V215.66H225.146V216.498H223.963V220.43C223.963 220.684 224.016 220.875 224.121 221.004C224.227 221.129 224.406 221.191 224.66 221.191C224.785 221.191 224.957 221.168 225.176 221.121V222C224.891 222.078 224.613 222.117 224.344 222.117C223.859 222.117 223.494 221.971 223.248 221.678C223.002 221.385 222.879 220.969 222.879 220.43V216.498H221.725V215.66H222.879V214.125H223.963ZM230.332 221.373C229.91 221.869 229.291 222.117 228.475 222.117C227.799 222.117 227.283 221.922 226.928 221.531C226.576 221.137 226.398 220.555 226.395 219.785V215.66H227.479V219.756C227.479 220.717 227.869 221.197 228.65 221.197C229.479 221.197 230.029 220.889 230.303 220.271V215.66H231.387V222H230.355L230.332 221.373ZM232.775 218.777C232.775 217.805 233.006 217.023 233.467 216.434C233.928 215.84 234.531 215.543 235.277 215.543C236.02 215.543 236.607 215.797 237.041 216.305V213H238.125V222H237.129L237.076 221.32C236.643 221.852 236.039 222.117 235.266 222.117C234.531 222.117 233.932 221.816 233.467 221.215C233.006 220.613 232.775 219.828 232.775 218.859V218.777ZM233.859 218.9C233.859 219.619 234.008 220.182 234.305 220.588C234.602 220.994 235.012 221.197 235.535 221.197C236.223 221.197 236.725 220.889 237.041 220.271V217.359C236.717 216.762 236.219 216.463 235.547 216.463C235.016 216.463 234.602 216.668 234.305 217.078C234.008 217.488 233.859 218.096 233.859 218.9ZM241.887 220.412L243.363 215.66H244.523L241.975 222.979C241.58 224.033 240.953 224.561 240.094 224.561L239.889 224.543L239.484 224.467V223.588L239.777 223.611C240.145 223.611 240.43 223.537 240.633 223.389C240.84 223.24 241.01 222.969 241.143 222.574L241.383 221.93L239.121 215.66H240.305L241.887 220.412ZM246.674 222H245.59V215.66H246.674V222ZM245.502 213.979C245.502 213.803 245.555 213.654 245.66 213.533C245.77 213.412 245.93 213.352 246.141 213.352C246.352 213.352 246.512 213.412 246.621 213.533C246.73 213.654 246.785 213.803 246.785 213.979C246.785 214.154 246.73 214.301 246.621 214.418C246.512 214.535 246.352 214.594 246.141 214.594C245.93 214.594 245.77 214.535 245.66 214.418C245.555 214.301 245.502 214.154 245.502 213.979ZM249.439 215.66L249.475 216.457C249.959 215.848 250.592 215.543 251.373 215.543C252.713 215.543 253.389 216.299 253.4 217.811V222H252.316V217.805C252.312 217.348 252.207 217.01 252 216.791C251.797 216.572 251.479 216.463 251.045 216.463C250.693 216.463 250.385 216.557 250.119 216.744C249.854 216.932 249.646 217.178 249.498 217.482V222H248.414V215.66H249.439ZM254.777 218.777C254.777 217.789 255.006 217.004 255.463 216.422C255.92 215.836 256.525 215.543 257.279 215.543C258.053 215.543 258.656 215.816 259.09 216.363L259.143 215.66H260.133V221.848C260.133 222.668 259.889 223.314 259.4 223.787C258.916 224.26 258.264 224.496 257.443 224.496C256.986 224.496 256.539 224.398 256.102 224.203C255.664 224.008 255.33 223.74 255.1 223.4L255.662 222.75C256.127 223.324 256.695 223.611 257.367 223.611C257.895 223.611 258.305 223.463 258.598 223.166C258.895 222.869 259.043 222.451 259.043 221.912V221.367C258.609 221.867 258.018 222.117 257.268 222.117C256.525 222.117 255.924 221.818 255.463 221.221C255.006 220.623 254.777 219.809 254.777 218.777ZM255.867 218.9C255.867 219.615 256.014 220.178 256.307 220.588C256.6 220.994 257.01 221.197 257.537 221.197C258.221 221.197 258.723 220.887 259.043 220.266V217.371C258.711 216.766 258.213 216.463 257.549 216.463C257.021 216.463 256.609 216.668 256.312 217.078C256.016 217.488 255.867 218.096 255.867 218.9Z" fill="black"/>
<g filter="url(#filter9_d)">
<rect x="155" y="300" width="134" height="134" fill="#EEE380"/>
</g>
<path d="M187.67 364H186.539V360.057H182.238V364H181.113V355.469H182.238V359.137H186.539V355.469H187.67V364ZM189.211 360.771C189.211 360.15 189.332 359.592 189.574 359.096C189.82 358.6 190.16 358.217 190.594 357.947C191.031 357.678 191.529 357.543 192.088 357.543C192.951 357.543 193.648 357.842 194.18 358.439C194.715 359.037 194.982 359.832 194.982 360.824V360.9C194.982 361.518 194.863 362.072 194.625 362.564C194.391 363.053 194.053 363.434 193.611 363.707C193.174 363.98 192.67 364.117 192.1 364.117C191.24 364.117 190.543 363.818 190.008 363.221C189.477 362.623 189.211 361.832 189.211 360.848V360.771ZM190.301 360.9C190.301 361.604 190.463 362.168 190.787 362.594C191.115 363.02 191.553 363.232 192.1 363.232C192.65 363.232 193.088 363.018 193.412 362.588C193.736 362.154 193.898 361.549 193.898 360.771C193.898 360.076 193.732 359.514 193.4 359.084C193.072 358.65 192.635 358.434 192.088 358.434C191.553 358.434 191.121 358.646 190.793 359.072C190.465 359.498 190.301 360.107 190.301 360.9ZM197.361 357.66L197.391 358.363C197.855 357.816 198.482 357.543 199.271 357.543C200.158 357.543 200.762 357.883 201.082 358.562C201.293 358.258 201.566 358.012 201.902 357.824C202.242 357.637 202.643 357.543 203.104 357.543C204.494 357.543 205.201 358.279 205.225 359.752V364H204.141V359.816C204.141 359.363 204.037 359.025 203.83 358.803C203.623 358.576 203.275 358.463 202.787 358.463C202.385 358.463 202.051 358.584 201.785 358.826C201.52 359.064 201.365 359.387 201.322 359.793V364H200.232V359.846C200.232 358.924 199.781 358.463 198.879 358.463C198.168 358.463 197.682 358.766 197.42 359.371V364H196.336V357.66H197.361ZM209.496 364.117C208.637 364.117 207.938 363.836 207.398 363.273C206.859 362.707 206.59 361.951 206.59 361.006V360.807C206.59 360.178 206.709 359.617 206.947 359.125C207.189 358.629 207.525 358.242 207.955 357.965C208.389 357.684 208.857 357.543 209.361 357.543C210.186 357.543 210.826 357.814 211.283 358.357C211.74 358.9 211.969 359.678 211.969 360.689V361.141H207.674C207.689 361.766 207.871 362.271 208.219 362.658C208.57 363.041 209.016 363.232 209.555 363.232C209.938 363.232 210.262 363.154 210.527 362.998C210.793 362.842 211.025 362.635 211.225 362.377L211.887 362.893C211.355 363.709 210.559 364.117 209.496 364.117ZM209.361 358.434C208.924 358.434 208.557 358.594 208.26 358.914C207.963 359.23 207.779 359.676 207.709 360.25H210.885V360.168C210.854 359.617 210.705 359.191 210.439 358.891C210.174 358.586 209.814 358.434 209.361 358.434ZM218.842 362.506L220.061 357.66H221.145L219.299 364H218.42L216.879 359.195L215.379 364H214.5L212.66 357.66H213.738L214.986 362.406L216.463 357.66H217.336L218.842 362.506ZM221.965 360.771C221.965 360.15 222.086 359.592 222.328 359.096C222.574 358.6 222.914 358.217 223.348 357.947C223.785 357.678 224.283 357.543 224.842 357.543C225.705 357.543 226.402 357.842 226.934 358.439C227.469 359.037 227.736 359.832 227.736 360.824V360.9C227.736 361.518 227.617 362.072 227.379 362.564C227.145 363.053 226.807 363.434 226.365 363.707C225.928 363.98 225.424 364.117 224.854 364.117C223.994 364.117 223.297 363.818 222.762 363.221C222.23 362.623 221.965 361.832 221.965 360.848V360.771ZM223.055 360.9C223.055 361.604 223.217 362.168 223.541 362.594C223.869 363.02 224.307 363.232 224.854 363.232C225.404 363.232 225.842 363.018 226.166 362.588C226.49 362.154 226.652 361.549 226.652 360.771C226.652 360.076 226.486 359.514 226.154 359.084C225.826 358.65 225.389 358.434 224.842 358.434C224.307 358.434 223.875 358.646 223.547 359.072C223.219 359.498 223.055 360.107 223.055 360.9ZM232.16 358.633C231.996 358.605 231.818 358.592 231.627 358.592C230.916 358.592 230.434 358.895 230.18 359.5V364H229.096V357.66H230.15L230.168 358.393C230.523 357.826 231.027 357.543 231.68 357.543C231.891 357.543 232.051 357.57 232.16 357.625V358.633ZM234.932 361.064L234.252 361.773V364H233.168V355H234.252V360.443L234.832 359.746L236.807 357.66H238.125L235.658 360.309L238.412 364H237.141L234.932 361.064ZM247.834 362.506L249.053 357.66H250.137L248.291 364H247.412L245.871 359.195L244.371 364H243.492L241.652 357.66H242.73L243.979 362.406L245.455 357.66H246.328L247.834 362.506ZM252.422 364H251.338V357.66H252.422V364ZM251.25 355.979C251.25 355.803 251.303 355.654 251.408 355.533C251.518 355.412 251.678 355.352 251.889 355.352C252.1 355.352 252.26 355.412 252.369 355.533C252.479 355.654 252.533 355.803 252.533 355.979C252.533 356.154 252.479 356.301 252.369 356.418C252.26 356.535 252.1 356.594 251.889 356.594C251.678 356.594 251.518 356.535 251.408 356.418C251.303 356.301 251.25 356.154 251.25 355.979ZM255.633 356.125V357.66H256.816V358.498H255.633V362.43C255.633 362.684 255.686 362.875 255.791 363.004C255.896 363.129 256.076 363.191 256.33 363.191C256.455 363.191 256.627 363.168 256.846 363.121V364C256.561 364.078 256.283 364.117 256.014 364.117C255.529 364.117 255.164 363.971 254.918 363.678C254.672 363.385 254.549 362.969 254.549 362.43V358.498H253.395V357.66H254.549V356.125H255.633ZM259.172 358.428C259.652 357.838 260.277 357.543 261.047 357.543C262.387 357.543 263.062 358.299 263.074 359.811V364H261.99V359.805C261.986 359.348 261.881 359.01 261.674 358.791C261.471 358.572 261.152 358.463 260.719 358.463C260.367 358.463 260.059 358.557 259.793 358.744C259.527 358.932 259.32 359.178 259.172 359.482V364H258.088V355H259.172V358.428ZM189.158 374.771C189.158 374.15 189.279 373.592 189.521 373.096C189.768 372.6 190.107 372.217 190.541 371.947C190.979 371.678 191.477 371.543 192.035 371.543C192.898 371.543 193.596 371.842 194.127 372.439C194.662 373.037 194.93 373.832 194.93 374.824V374.9C194.93 375.518 194.811 376.072 194.572 376.564C194.338 377.053 194 377.434 193.559 377.707C193.121 377.98 192.617 378.117 192.047 378.117C191.188 378.117 190.49 377.818 189.955 377.221C189.424 376.623 189.158 375.832 189.158 374.848V374.771ZM190.248 374.9C190.248 375.604 190.41 376.168 190.734 376.594C191.062 377.02 191.5 377.232 192.047 377.232C192.598 377.232 193.035 377.018 193.359 376.588C193.684 376.154 193.846 375.549 193.846 374.771C193.846 374.076 193.68 373.514 193.348 373.084C193.02 372.65 192.582 372.434 192.035 372.434C191.5 372.434 191.068 372.646 190.74 373.072C190.412 373.498 190.248 374.107 190.248 374.9ZM197.76 370.125V371.66H198.943V372.498H197.76V376.43C197.76 376.684 197.812 376.875 197.918 377.004C198.023 377.129 198.203 377.191 198.457 377.191C198.582 377.191 198.754 377.168 198.973 377.121V378C198.688 378.078 198.41 378.117 198.141 378.117C197.656 378.117 197.291 377.971 197.045 377.678C196.799 377.385 196.676 376.969 196.676 376.43V372.498H195.521V371.66H196.676V370.125H197.76ZM201.299 372.428C201.779 371.838 202.404 371.543 203.174 371.543C204.514 371.543 205.189 372.299 205.201 373.811V378H204.117V373.805C204.113 373.348 204.008 373.01 203.801 372.791C203.598 372.572 203.279 372.463 202.846 372.463C202.494 372.463 202.186 372.557 201.92 372.744C201.654 372.932 201.447 373.178 201.299 373.482V378H200.215V369H201.299V372.428ZM209.455 378.117C208.596 378.117 207.896 377.836 207.357 377.273C206.818 376.707 206.549 375.951 206.549 375.006V374.807C206.549 374.178 206.668 373.617 206.906 373.125C207.148 372.629 207.484 372.242 207.914 371.965C208.348 371.684 208.816 371.543 209.32 371.543C210.145 371.543 210.785 371.814 211.242 372.357C211.699 372.9 211.928 373.678 211.928 374.689V375.141H207.633C207.648 375.766 207.83 376.271 208.178 376.658C208.529 377.041 208.975 377.232 209.514 377.232C209.896 377.232 210.221 377.154 210.486 376.998C210.752 376.842 210.984 376.635 211.184 376.377L211.846 376.893C211.314 377.709 210.518 378.117 209.455 378.117ZM209.32 372.434C208.883 372.434 208.516 372.594 208.219 372.914C207.922 373.23 207.738 373.676 207.668 374.25H210.844V374.168C210.812 373.617 210.664 373.191 210.398 372.891C210.133 372.586 209.773 372.434 209.32 372.434ZM216.252 372.633C216.088 372.605 215.91 372.592 215.719 372.592C215.008 372.592 214.525 372.895 214.271 373.5V378H213.188V371.66H214.242L214.26 372.393C214.615 371.826 215.119 371.543 215.771 371.543C215.982 371.543 216.143 371.57 216.252 371.625V372.633ZM225.586 374.9C225.586 375.865 225.365 376.643 224.924 377.232C224.482 377.822 223.885 378.117 223.131 378.117C222.361 378.117 221.756 377.873 221.314 377.385V380.438H220.23V371.66H221.221L221.273 372.363C221.715 371.816 222.328 371.543 223.113 371.543C223.875 371.543 224.477 371.83 224.918 372.404C225.363 372.979 225.586 373.777 225.586 374.801V374.9ZM224.502 374.777C224.502 374.062 224.35 373.498 224.045 373.084C223.74 372.67 223.322 372.463 222.791 372.463C222.135 372.463 221.643 372.754 221.314 373.336V376.365C221.639 376.943 222.135 377.232 222.803 377.232C223.322 377.232 223.734 377.027 224.039 376.617C224.348 376.203 224.502 375.59 224.502 374.777ZM229.6 378.117C228.74 378.117 228.041 377.836 227.502 377.273C226.963 376.707 226.693 375.951 226.693 375.006V374.807C226.693 374.178 226.812 373.617 227.051 373.125C227.293 372.629 227.629 372.242 228.059 371.965C228.492 371.684 228.961 371.543 229.465 371.543C230.289 371.543 230.93 371.814 231.387 372.357C231.844 372.9 232.072 373.678 232.072 374.689V375.141H227.777C227.793 375.766 227.975 376.271 228.322 376.658C228.674 377.041 229.119 377.232 229.658 377.232C230.041 377.232 230.365 377.154 230.631 376.998C230.896 376.842 231.129 376.635 231.328 376.377L231.99 376.893C231.459 377.709 230.662 378.117 229.6 378.117ZM229.465 372.434C229.027 372.434 228.66 372.594 228.363 372.914C228.066 373.23 227.883 373.676 227.812 374.25H230.988V374.168C230.957 373.617 230.809 373.191 230.543 372.891C230.277 372.586 229.918 372.434 229.465 372.434ZM233.045 374.771C233.045 374.15 233.166 373.592 233.408 373.096C233.654 372.6 233.994 372.217 234.428 371.947C234.865 371.678 235.363 371.543 235.922 371.543C236.785 371.543 237.482 371.842 238.014 372.439C238.549 373.037 238.816 373.832 238.816 374.824V374.9C238.816 375.518 238.697 376.072 238.459 376.564C238.225 377.053 237.887 377.434 237.445 377.707C237.008 377.98 236.504 378.117 235.934 378.117C235.074 378.117 234.377 377.818 233.842 377.221C233.311 376.623 233.045 375.832 233.045 374.848V374.771ZM234.135 374.9C234.135 375.604 234.297 376.168 234.621 376.594C234.949 377.02 235.387 377.232 235.934 377.232C236.484 377.232 236.922 377.018 237.246 376.588C237.57 376.154 237.732 375.549 237.732 374.771C237.732 374.076 237.566 373.514 237.234 373.084C236.906 372.65 236.469 372.434 235.922 372.434C235.387 372.434 234.955 372.646 234.627 373.072C234.299 373.498 234.135 374.107 234.135 374.9ZM245.531 374.9C245.531 375.865 245.311 376.643 244.869 377.232C244.428 377.822 243.83 378.117 243.076 378.117C242.307 378.117 241.701 377.873 241.26 377.385V380.438H240.176V371.66H241.166L241.219 372.363C241.66 371.816 242.273 371.543 243.059 371.543C243.82 371.543 244.422 371.83 244.863 372.404C245.309 372.979 245.531 373.777 245.531 374.801V374.9ZM244.447 374.777C244.447 374.062 244.295 373.498 243.99 373.084C243.686 372.67 243.268 372.463 242.736 372.463C242.08 372.463 241.588 372.754 241.26 373.336V376.365C241.584 376.943 242.08 377.232 242.748 377.232C243.268 377.232 243.68 377.027 243.984 376.617C244.293 376.203 244.447 375.59 244.447 374.777ZM248.092 378H247.008V369H248.092V378ZM252.463 378.117C251.604 378.117 250.904 377.836 250.365 377.273C249.826 376.707 249.557 375.951 249.557 375.006V374.807C249.557 374.178 249.676 373.617 249.914 373.125C250.156 372.629 250.492 372.242 250.922 371.965C251.355 371.684 251.824 371.543 252.328 371.543C253.152 371.543 253.793 371.814 254.25 372.357C254.707 372.9 254.936 373.678 254.936 374.689V375.141H250.641C250.656 375.766 250.838 376.271 251.186 376.658C251.537 377.041 251.982 377.232 252.521 377.232C252.904 377.232 253.229 377.154 253.494 376.998C253.76 376.842 253.992 376.635 254.191 376.377L254.854 376.893C254.322 377.709 253.525 378.117 252.463 378.117ZM252.328 372.434C251.891 372.434 251.523 372.594 251.227 372.914C250.93 373.23 250.746 373.676 250.676 374.25H253.852V374.168C253.82 373.617 253.672 373.191 253.406 372.891C253.141 372.586 252.781 372.434 252.328 372.434Z" fill="black"/>
<g filter="url(#filter10_d)">
<rect x="155" y="449" width="134" height="134" fill="#EEE380"/>
</g>
<path d="M194.291 517.311L194.455 518.436L194.695 517.422L196.383 511.469H197.332L198.979 517.422L199.213 518.453L199.395 517.305L200.719 511.469H201.85L199.781 520H198.756L196.998 513.783L196.863 513.133L196.729 513.783L194.906 520H193.881L191.818 511.469H192.943L194.291 517.311ZM204.111 520H203.027V513.66H204.111V520ZM202.939 511.979C202.939 511.803 202.992 511.654 203.098 511.533C203.207 511.412 203.367 511.352 203.578 511.352C203.789 511.352 203.949 511.412 204.059 511.533C204.168 511.654 204.223 511.803 204.223 511.979C204.223 512.154 204.168 512.301 204.059 512.418C203.949 512.535 203.789 512.594 203.578 512.594C203.367 512.594 203.207 512.535 203.098 512.418C202.992 512.301 202.939 512.154 202.939 511.979ZM207.322 512.125V513.66H208.506V514.498H207.322V518.43C207.322 518.684 207.375 518.875 207.48 519.004C207.586 519.129 207.766 519.191 208.02 519.191C208.145 519.191 208.316 519.168 208.535 519.121V520C208.25 520.078 207.973 520.117 207.703 520.117C207.219 520.117 206.854 519.971 206.607 519.678C206.361 519.385 206.238 518.969 206.238 518.43V514.498H205.084V513.66H206.238V512.125H207.322ZM210.861 514.428C211.342 513.838 211.967 513.543 212.736 513.543C214.076 513.543 214.752 514.299 214.764 515.811V520H213.68V515.805C213.676 515.348 213.57 515.01 213.363 514.791C213.16 514.572 212.842 514.463 212.408 514.463C212.057 514.463 211.748 514.557 211.482 514.744C211.217 514.932 211.01 515.178 210.861 515.482V520H209.777V511H210.861V514.428ZM219.076 516.771C219.076 516.15 219.197 515.592 219.439 515.096C219.686 514.6 220.025 514.217 220.459 513.947C220.896 513.678 221.395 513.543 221.953 513.543C222.816 513.543 223.514 513.842 224.045 514.439C224.58 515.037 224.848 515.832 224.848 516.824V516.9C224.848 517.518 224.729 518.072 224.49 518.564C224.256 519.053 223.918 519.434 223.477 519.707C223.039 519.98 222.535 520.117 221.965 520.117C221.105 520.117 220.408 519.818 219.873 519.221C219.342 518.623 219.076 517.832 219.076 516.848V516.771ZM220.166 516.9C220.166 517.604 220.328 518.168 220.652 518.594C220.98 519.02 221.418 519.232 221.965 519.232C222.516 519.232 222.953 519.018 223.277 518.588C223.602 518.154 223.764 517.549 223.764 516.771C223.764 516.076 223.598 515.514 223.266 515.084C222.938 514.65 222.5 514.434 221.953 514.434C221.418 514.434 220.986 514.646 220.658 515.072C220.33 515.498 220.166 516.107 220.166 516.9ZM227.678 512.125V513.66H228.861V514.498H227.678V518.43C227.678 518.684 227.73 518.875 227.836 519.004C227.941 519.129 228.121 519.191 228.375 519.191C228.5 519.191 228.672 519.168 228.891 519.121V520C228.605 520.078 228.328 520.117 228.059 520.117C227.574 520.117 227.209 519.971 226.963 519.678C226.717 519.385 226.594 518.969 226.594 518.43V514.498H225.439V513.66H226.594V512.125H227.678ZM231.217 514.428C231.697 513.838 232.322 513.543 233.092 513.543C234.432 513.543 235.107 514.299 235.119 515.811V520H234.035V515.805C234.031 515.348 233.926 515.01 233.719 514.791C233.516 514.572 233.197 514.463 232.764 514.463C232.412 514.463 232.104 514.557 231.838 514.744C231.572 514.932 231.365 515.178 231.217 515.482V520H230.133V511H231.217V514.428ZM239.373 520.117C238.514 520.117 237.814 519.836 237.275 519.273C236.736 518.707 236.467 517.951 236.467 517.006V516.807C236.467 516.178 236.586 515.617 236.824 515.125C237.066 514.629 237.402 514.242 237.832 513.965C238.266 513.684 238.734 513.543 239.238 513.543C240.062 513.543 240.703 513.814 241.16 514.357C241.617 514.9 241.846 515.678 241.846 516.689V517.141H237.551C237.566 517.766 237.748 518.271 238.096 518.658C238.447 519.041 238.893 519.232 239.432 519.232C239.814 519.232 240.139 519.154 240.404 518.998C240.67 518.842 240.902 518.635 241.102 518.377L241.764 518.893C241.232 519.709 240.436 520.117 239.373 520.117ZM239.238 514.434C238.801 514.434 238.434 514.594 238.137 514.914C237.84 515.23 237.656 515.676 237.586 516.25H240.762V516.168C240.73 515.617 240.582 515.191 240.316 514.891C240.051 514.586 239.691 514.434 239.238 514.434ZM246.17 514.633C246.006 514.605 245.828 514.592 245.637 514.592C244.926 514.592 244.443 514.895 244.189 515.5V520H243.105V513.66H244.16L244.178 514.393C244.533 513.826 245.037 513.543 245.689 513.543C245.9 513.543 246.061 513.57 246.17 513.625V514.633ZM250.863 518.318C250.863 518.025 250.752 517.799 250.529 517.639C250.311 517.475 249.926 517.334 249.375 517.217C248.828 517.1 248.393 516.959 248.068 516.795C247.748 516.631 247.51 516.436 247.354 516.209C247.201 515.982 247.125 515.713 247.125 515.4C247.125 514.881 247.344 514.441 247.781 514.082C248.223 513.723 248.785 513.543 249.469 513.543C250.188 513.543 250.77 513.729 251.215 514.1C251.664 514.471 251.889 514.945 251.889 515.523H250.799C250.799 515.227 250.672 514.971 250.418 514.756C250.168 514.541 249.852 514.434 249.469 514.434C249.074 514.434 248.766 514.52 248.543 514.691C248.32 514.863 248.209 515.088 248.209 515.365C248.209 515.627 248.312 515.824 248.52 515.957C248.727 516.09 249.1 516.217 249.639 516.338C250.182 516.459 250.621 516.604 250.957 516.771C251.293 516.939 251.541 517.143 251.701 517.381C251.865 517.615 251.947 517.902 251.947 518.242C251.947 518.809 251.721 519.264 251.268 519.607C250.814 519.947 250.227 520.117 249.504 520.117C248.996 520.117 248.547 520.027 248.156 519.848C247.766 519.668 247.459 519.418 247.236 519.098C247.018 518.773 246.908 518.424 246.908 518.049H247.992C248.012 518.412 248.156 518.701 248.426 518.916C248.699 519.127 249.059 519.232 249.504 519.232C249.914 519.232 250.242 519.15 250.488 518.986C250.738 518.818 250.863 518.596 250.863 518.318Z" fill="black"/>
<g filter="url(#filter11_d)">
<rect x="4" y="2" width="134" height="134" fill="#80D4EE"/>
</g>
<path d="M31.3379 57.4688L34.127 64.4297L36.916 57.4688H38.375V66H37.25V62.6777L37.3555 59.0918L34.5547 66H33.6934L30.8984 59.1094L31.0098 62.6777V66H29.8848V57.4688H31.3379ZM44.1055 65.373C43.6836 65.8691 43.0645 66.1172 42.248 66.1172C41.5723 66.1172 41.0566 65.9219 40.7012 65.5312C40.3496 65.1367 40.1719 64.5547 40.168 63.7852V59.6602H41.252V63.7559C41.252 64.7168 41.6426 65.1973 42.4238 65.1973C43.252 65.1973 43.8027 64.8887 44.0762 64.2715V59.6602H45.1602V66H44.1289L44.1055 65.373ZM50.5039 64.3184C50.5039 64.0254 50.3926 63.7988 50.1699 63.6387C49.9512 63.4746 49.5664 63.334 49.0156 63.2168C48.4688 63.0996 48.0332 62.959 47.709 62.7949C47.3887 62.6309 47.1504 62.4355 46.9941 62.209C46.8418 61.9824 46.7656 61.7129 46.7656 61.4004C46.7656 60.8809 46.9844 60.4414 47.4219 60.082C47.8633 59.7227 48.4258 59.543 49.1094 59.543C49.8281 59.543 50.4102 59.7285 50.8555 60.0996C51.3047 60.4707 51.5293 60.9453 51.5293 61.5234H50.4395C50.4395 61.2266 50.3125 60.9707 50.0586 60.7559C49.8086 60.541 49.4922 60.4336 49.1094 60.4336C48.7148 60.4336 48.4062 60.5195 48.1836 60.6914C47.9609 60.8633 47.8496 61.0879 47.8496 61.3652C47.8496 61.627 47.9531 61.8242 48.1602 61.957C48.3672 62.0898 48.7402 62.2168 49.2793 62.3379C49.8223 62.459 50.2617 62.6035 50.5977 62.7715C50.9336 62.9395 51.1816 63.1426 51.3418 63.3809C51.5059 63.6152 51.5879 63.9023 51.5879 64.2422C51.5879 64.8086 51.3613 65.2637 50.9082 65.6074C50.4551 65.9473 49.8672 66.1172 49.1445 66.1172C48.6367 66.1172 48.1875 66.0273 47.7969 65.8477C47.4062 65.668 47.0996 65.418 46.877 65.0977C46.6582 64.7734 46.5488 64.4238 46.5488 64.0488H47.6328C47.6523 64.4121 47.7969 64.7012 48.0664 64.916C48.3398 65.127 48.6992 65.2324 49.1445 65.2324C49.5547 65.2324 49.8828 65.1504 50.1289 64.9863C50.3789 64.8184 50.5039 64.5957 50.5039 64.3184ZM54.1777 66H53.0938V59.6602H54.1777V66ZM53.0059 57.9785C53.0059 57.8027 53.0586 57.6543 53.1641 57.5332C53.2734 57.4121 53.4336 57.3516 53.6445 57.3516C53.8555 57.3516 54.0156 57.4121 54.125 57.5332C54.2344 57.6543 54.2891 57.8027 54.2891 57.9785C54.2891 58.1543 54.2344 58.3008 54.125 58.418C54.0156 58.5352 53.8555 58.5938 53.6445 58.5938C53.4336 58.5938 53.2734 58.5352 53.1641 58.418C53.0586 58.3008 53.0059 58.1543 53.0059 57.9785ZM58.4609 65.2324C58.8477 65.2324 59.1855 65.1152 59.4746 64.8809C59.7637 64.6465 59.9238 64.3535 59.9551 64.002H60.9805C60.9609 64.3652 60.8359 64.7109 60.6055 65.0391C60.375 65.3672 60.0664 65.6289 59.6797 65.8242C59.2969 66.0195 58.8906 66.1172 58.4609 66.1172C57.5977 66.1172 56.9102 65.8301 56.3984 65.2559C55.8906 64.6777 55.6367 63.8887 55.6367 62.8887V62.707C55.6367 62.0898 55.75 61.541 55.9766 61.0605C56.2031 60.5801 56.5273 60.207 56.9492 59.9414C57.375 59.6758 57.877 59.543 58.4551 59.543C59.166 59.543 59.7559 59.7559 60.2246 60.1816C60.6973 60.6074 60.9492 61.1602 60.9805 61.8398H59.9551C59.9238 61.4297 59.7676 61.0938 59.4863 60.832C59.209 60.5664 58.8652 60.4336 58.4551 60.4336C57.9043 60.4336 57.4766 60.6328 57.1719 61.0312C56.8711 61.4258 56.7207 61.998 56.7207 62.748V62.9531C56.7207 63.6836 56.8711 64.2461 57.1719 64.6406C57.4727 65.0352 57.9023 65.2324 58.4609 65.2324ZM66.4766 65.0801H70.5195V66H65.3457V57.4688H66.4766V65.0801ZM72.8105 66H71.7266V59.6602H72.8105V66ZM71.6387 57.9785C71.6387 57.8027 71.6914 57.6543 71.7969 57.5332C71.9062 57.4121 72.0664 57.3516 72.2773 57.3516C72.4883 57.3516 72.6484 57.4121 72.7578 57.5332C72.8672 57.6543 72.9219 57.8027 72.9219 57.9785C72.9219 58.1543 72.8672 58.3008 72.7578 58.418C72.6484 58.5352 72.4883 58.5938 72.2773 58.5938C72.0664 58.5938 71.9062 58.5352 71.7969 58.418C71.6914 58.3008 71.6387 58.1543 71.6387 57.9785ZM78.2422 64.3184C78.2422 64.0254 78.1309 63.7988 77.9082 63.6387C77.6895 63.4746 77.3047 63.334 76.7539 63.2168C76.207 63.0996 75.7715 62.959 75.4473 62.7949C75.127 62.6309 74.8887 62.4355 74.7324 62.209C74.5801 61.9824 74.5039 61.7129 74.5039 61.4004C74.5039 60.8809 74.7227 60.4414 75.1602 60.082C75.6016 59.7227 76.1641 59.543 76.8477 59.543C77.5664 59.543 78.1484 59.7285 78.5938 60.0996C79.043 60.4707 79.2676 60.9453 79.2676 61.5234H78.1777C78.1777 61.2266 78.0508 60.9707 77.7969 60.7559C77.5469 60.541 77.2305 60.4336 76.8477 60.4336C76.4531 60.4336 76.1445 60.5195 75.9219 60.6914C75.6992 60.8633 75.5879 61.0879 75.5879 61.3652C75.5879 61.627 75.6914 61.8242 75.8984 61.957C76.1055 62.0898 76.4785 62.2168 77.0176 62.3379C77.5605 62.459 78 62.6035 78.3359 62.7715C78.6719 62.9395 78.9199 63.1426 79.0801 63.3809C79.2441 63.6152 79.3262 63.9023 79.3262 64.2422C79.3262 64.8086 79.0996 65.2637 78.6465 65.6074C78.1934 65.9473 77.6055 66.1172 76.8828 66.1172C76.375 66.1172 75.9258 66.0273 75.5352 65.8477C75.1445 65.668 74.8379 65.418 74.6152 65.0977C74.3965 64.7734 74.2871 64.4238 74.2871 64.0488H75.3711C75.3906 64.4121 75.5352 64.7012 75.8047 64.916C76.0781 65.127 76.4375 65.2324 76.8828 65.2324C77.293 65.2324 77.6211 65.1504 77.8672 64.9863C78.1172 64.8184 78.2422 64.5957 78.2422 64.3184ZM82.209 58.125V59.6602H83.3926V60.498H82.209V64.4297C82.209 64.6836 82.2617 64.875 82.3672 65.0039C82.4727 65.1289 82.6523 65.1914 82.9062 65.1914C83.0312 65.1914 83.2031 65.168 83.4219 65.1211V66C83.1367 66.0781 82.8594 66.1172 82.5898 66.1172C82.1055 66.1172 81.7402 65.9707 81.4941 65.6777C81.248 65.3848 81.125 64.9688 81.125 64.4297V60.498H79.9707V59.6602H81.125V58.125H82.209ZM87.2949 66.1172C86.4355 66.1172 85.7363 65.8359 85.1973 65.2734C84.6582 64.707 84.3887 63.9512 84.3887 63.0059V62.8066C84.3887 62.1777 84.5078 61.6172 84.7461 61.125C84.9883 60.6289 85.3242 60.2422 85.7539 59.9648C86.1875 59.6836 86.6562 59.543 87.1602 59.543C87.9844 59.543 88.625 59.8145 89.082 60.3574C89.5391 60.9004 89.7676 61.6777 89.7676 62.6895V63.1406H85.4727C85.4883 63.7656 85.6699 64.2715 86.0176 64.6582C86.3691 65.041 86.8145 65.2324 87.3535 65.2324C87.7363 65.2324 88.0605 65.1543 88.3262 64.998C88.5918 64.8418 88.8242 64.6348 89.0234 64.377L89.6855 64.8926C89.1543 65.709 88.3574 66.1172 87.2949 66.1172ZM87.1602 60.4336C86.7227 60.4336 86.3555 60.5938 86.0586 60.9141C85.7617 61.2305 85.5781 61.6758 85.5078 62.25H88.6836V62.168C88.6523 61.6172 88.5039 61.1914 88.2383 60.8906C87.9727 60.5859 87.6133 60.4336 87.1602 60.4336ZM92.0527 59.6602L92.0879 60.457C92.5723 59.8477 93.2051 59.543 93.9863 59.543C95.3262 59.543 96.002 60.2988 96.0137 61.8105V66H94.9297V61.8047C94.9258 61.3477 94.8203 61.0098 94.6133 60.791C94.4102 60.5723 94.0918 60.4629 93.6582 60.4629C93.3066 60.4629 92.998 60.5566 92.7324 60.7441C92.4668 60.9316 92.2598 61.1777 92.1113 61.4824V66H91.0273V59.6602H92.0527ZM98.8262 66H97.7422V59.6602H98.8262V66ZM97.6543 57.9785C97.6543 57.8027 97.707 57.6543 97.8125 57.5332C97.9219 57.4121 98.082 57.3516 98.293 57.3516C98.5039 57.3516 98.6641 57.4121 98.7734 57.5332C98.8828 57.6543 98.9375 57.8027 98.9375 57.9785C98.9375 58.1543 98.8828 58.3008 98.7734 58.418C98.6641 58.5352 98.5039 58.5938 98.293 58.5938C98.082 58.5938 97.9219 58.5352 97.8125 58.418C97.707 58.3008 97.6543 58.1543 97.6543 57.9785ZM101.592 59.6602L101.627 60.457C102.111 59.8477 102.744 59.543 103.525 59.543C104.865 59.543 105.541 60.2988 105.553 61.8105V66H104.469V61.8047C104.465 61.3477 104.359 61.0098 104.152 60.791C103.949 60.5723 103.631 60.4629 103.197 60.4629C102.846 60.4629 102.537 60.5566 102.271 60.7441C102.006 60.9316 101.799 61.1777 101.65 61.4824V66H100.566V59.6602H101.592ZM106.93 62.7773C106.93 61.7891 107.158 61.0039 107.615 60.4219C108.072 59.8359 108.678 59.543 109.432 59.543C110.205 59.543 110.809 59.8164 111.242 60.3633L111.295 59.6602H112.285V65.8477C112.285 66.668 112.041 67.3145 111.553 67.7871C111.068 68.2598 110.416 68.4961 109.596 68.4961C109.139 68.4961 108.691 68.3984 108.254 68.2031C107.816 68.0078 107.482 67.7402 107.252 67.4004L107.814 66.75C108.279 67.3242 108.848 67.6113 109.52 67.6113C110.047 67.6113 110.457 67.4629 110.75 67.166C111.047 66.8691 111.195 66.4512 111.195 65.9121V65.3672C110.762 65.8672 110.17 66.1172 109.42 66.1172C108.678 66.1172 108.076 65.8184 107.615 65.2207C107.158 64.623 106.93 63.8086 106.93 62.7773ZM108.02 62.9004C108.02 63.6152 108.166 64.1777 108.459 64.5879C108.752 64.9941 109.162 65.1973 109.689 65.1973C110.373 65.1973 110.875 64.8867 111.195 64.2656V61.3711C110.863 60.7656 110.365 60.4629 109.701 60.4629C109.174 60.4629 108.762 60.668 108.465 61.0781C108.168 61.4883 108.02 62.0957 108.02 62.9004ZM54.4473 77.293C54.3418 78.1953 54.0078 78.8926 53.4453 79.3848C52.8867 79.873 52.1426 80.1172 51.2129 80.1172C50.2051 80.1172 49.3965 79.7559 48.7871 79.0332C48.1816 78.3105 47.8789 77.3438 47.8789 76.1328V75.3125C47.8789 74.5195 48.0195 73.8223 48.3008 73.2207C48.5859 72.6191 48.9883 72.1582 49.5078 71.8379C50.0273 71.5137 50.6289 71.3516 51.3125 71.3516C52.2188 71.3516 52.9453 71.6055 53.4922 72.1133C54.0391 72.6172 54.3574 73.3164 54.4473 74.2109H53.3164C53.2188 73.5312 53.0059 73.0391 52.6777 72.7344C52.3535 72.4297 51.8984 72.2773 51.3125 72.2773C50.5938 72.2773 50.0293 72.543 49.6191 73.0742C49.2129 73.6055 49.0098 74.3613 49.0098 75.3418V76.168C49.0098 77.0938 49.2031 77.8301 49.5898 78.377C49.9766 78.9238 50.5176 79.1973 51.2129 79.1973C51.8379 79.1973 52.3164 79.0566 52.6484 78.7754C52.9844 78.4902 53.207 77.9961 53.3164 77.293H54.4473ZM55.5312 76.7715C55.5312 76.1504 55.6523 75.5918 55.8945 75.0957C56.1406 74.5996 56.4805 74.2168 56.9141 73.9473C57.3516 73.6777 57.8496 73.543 58.4082 73.543C59.2715 73.543 59.9688 73.8418 60.5 74.4395C61.0352 75.0371 61.3027 75.832 61.3027 76.8242V76.9004C61.3027 77.5176 61.1836 78.0723 60.9453 78.5645C60.7109 79.0527 60.373 79.4336 59.9316 79.707C59.4941 79.9805 58.9902 80.1172 58.4199 80.1172C57.5605 80.1172 56.8633 79.8184 56.3281 79.2207C55.7969 78.623 55.5312 77.832 55.5312 76.8477V76.7715ZM56.6211 76.9004C56.6211 77.6035 56.7832 78.168 57.1074 78.5938C57.4355 79.0195 57.873 79.2324 58.4199 79.2324C58.9707 79.2324 59.4082 79.0176 59.7324 78.5879C60.0566 78.1543 60.2188 77.5488 60.2188 76.7715C60.2188 76.0762 60.0527 75.5137 59.7207 75.084C59.3926 74.6504 58.9551 74.4336 58.4082 74.4336C57.873 74.4336 57.4414 74.6465 57.1133 75.0723C56.7852 75.498 56.6211 76.1074 56.6211 76.9004ZM63.6875 73.6602L63.7227 74.457C64.207 73.8477 64.8398 73.543 65.6211 73.543C66.9609 73.543 67.6367 74.2988 67.6484 75.8105V80H66.5645V75.8047C66.5605 75.3477 66.4551 75.0098 66.248 74.791C66.0449 74.5723 65.7266 74.4629 65.293 74.4629C64.9414 74.4629 64.6328 74.5566 64.3672 74.7441C64.1016 74.9316 63.8945 75.1777 63.7461 75.4824V80H62.6621V73.6602H63.6875ZM70.7539 72.125V73.6602H71.9375V74.498H70.7539V78.4297C70.7539 78.6836 70.8066 78.875 70.9121 79.0039C71.0176 79.1289 71.1973 79.1914 71.4512 79.1914C71.5762 79.1914 71.748 79.168 71.9668 79.1211V80C71.6816 80.0781 71.4043 80.1172 71.1348 80.1172C70.6504 80.1172 70.2852 79.9707 70.0391 79.6777C69.793 79.3848 69.6699 78.9688 69.6699 78.4297V74.498H68.5156V73.6602H69.6699V72.125H70.7539ZM75.8398 80.1172C74.9805 80.1172 74.2812 79.8359 73.7422 79.2734C73.2031 78.707 72.9336 77.9512 72.9336 77.0059V76.8066C72.9336 76.1777 73.0527 75.6172 73.291 75.125C73.5332 74.6289 73.8691 74.2422 74.2988 73.9648C74.7324 73.6836 75.2012 73.543 75.7051 73.543C76.5293 73.543 77.1699 73.8145 77.627 74.3574C78.084 74.9004 78.3125 75.6777 78.3125 76.6895V77.1406H74.0176C74.0332 77.7656 74.2148 78.2715 74.5625 78.6582C74.9141 79.041 75.3594 79.2324 75.8984 79.2324C76.2812 79.2324 76.6055 79.1543 76.8711 78.998C77.1367 78.8418 77.3691 78.6348 77.5684 78.377L78.2305 78.8926C77.6992 79.709 76.9023 80.1172 75.8398 80.1172ZM75.7051 74.4336C75.2676 74.4336 74.9004 74.5938 74.6035 74.9141C74.3066 75.2305 74.123 75.6758 74.0527 76.25H77.2285V76.168C77.1973 75.6172 77.0488 75.1914 76.7832 74.8906C76.5176 74.5859 76.1582 74.4336 75.7051 74.4336ZM81.6992 75.9746L83.1055 73.6602H84.3711L82.2969 76.7949L84.4355 80H83.1816L81.7168 77.627L80.252 80H78.9922L81.1309 76.7949L79.0566 73.6602H80.3105L81.6992 75.9746ZM86.9961 72.125V73.6602H88.1797V74.498H86.9961V78.4297C86.9961 78.6836 87.0488 78.875 87.1543 79.0039C87.2598 79.1289 87.4395 79.1914 87.6934 79.1914C87.8184 79.1914 87.9902 79.168 88.209 79.1211V80C87.9238 80.0781 87.6465 80.1172 87.377 80.1172C86.8926 80.1172 86.5273 79.9707 86.2812 79.6777C86.0352 79.3848 85.9121 78.9688 85.9121 78.4297V74.498H84.7578V73.6602H85.9121V72.125H86.9961ZM93.1426 78.3184C93.1426 78.0254 93.0312 77.7988 92.8086 77.6387C92.5898 77.4746 92.2051 77.334 91.6543 77.2168C91.1074 77.0996 90.6719 76.959 90.3477 76.7949C90.0273 76.6309 89.7891 76.4355 89.6328 76.209C89.4805 75.9824 89.4043 75.7129 89.4043 75.4004C89.4043 74.8809 89.623 74.4414 90.0605 74.082C90.502 73.7227 91.0645 73.543 91.748 73.543C92.4668 73.543 93.0488 73.7285 93.4941 74.0996C93.9434 74.4707 94.168 74.9453 94.168 75.5234H93.0781C93.0781 75.2266 92.9512 74.9707 92.6973 74.7559C92.4473 74.541 92.1309 74.4336 91.748 74.4336C91.3535 74.4336 91.0449 74.5195 90.8223 74.6914C90.5996 74.8633 90.4883 75.0879 90.4883 75.3652C90.4883 75.627 90.5918 75.8242 90.7988 75.957C91.0059 76.0898 91.3789 76.2168 91.918 76.3379C92.4609 76.459 92.9004 76.6035 93.2363 76.7715C93.5723 76.9395 93.8203 77.1426 93.9805 77.3809C94.1445 77.6152 94.2266 77.9023 94.2266 78.2422C94.2266 78.8086 94 79.2637 93.5469 79.6074C93.0938 79.9473 92.5059 80.1172 91.7832 80.1172C91.2754 80.1172 90.8262 80.0273 90.4355 79.8477C90.0449 79.668 89.7383 79.418 89.5156 79.0977C89.2969 78.7734 89.1875 78.4238 89.1875 78.0488H90.2715C90.291 78.4121 90.4355 78.7012 90.7051 78.916C90.9785 79.127 91.3379 79.2324 91.7832 79.2324C92.1934 79.2324 92.5215 79.1504 92.7676 78.9863C93.0176 78.8184 93.1426 78.5957 93.1426 78.3184Z" fill="black"/>
<defs>
<filter id="filter0_d" x="0" y="149" width="142" height="142" filterUnits="userSpaceOnUse" color-interpolation-filters="sRGB">
<feFlood flood-opacity="0" result="BackgroundImageFix"/>
<feColorMatrix in="SourceAlpha" type="matrix" values="0 0 0 0 0 0 0 0 0 0 0 0 0 0 0 0 0 0 127 0"/>
<feOffset dy="2"/>
<feGaussianBlur stdDeviation="2"/>
<feColorMatrix type="matrix" values="0 0 0 0 0 0 0 0 0 0 0 0 0 0 0 0 0 0 0.25 0"/>
<feBlend mode="normal" in2="BackgroundImageFix" result="effect1_dropShadow"/>
<feBlend mode="normal" in="SourceGraphic" in2="effect1_dropShadow" result="shape"/>
</filter>
<filter id="filter1_d" x="0" y="298" width="142" height="142" filterUnits="userSpaceOnUse" color-interpolation-filters="sRGB">
<feFlood flood-opacity="0" result="BackgroundImageFix"/>
<feColorMatrix in="SourceAlpha" type="matrix" values="0 0 0 0 0 0 0 0 0 0 0 0 0 0 0 0 0 0 127 0"/>
<feOffset dy="2"/>
<feGaussianBlur stdDeviation="2"/>
<feColorMatrix type="matrix" values="0 0 0 0 0 0 0 0 0 0 0 0 0 0 0 0 0 0 0.25 0"/>
<feBlend mode="normal" in2="BackgroundImageFix" result="effect1_dropShadow"/>
<feBlend mode="normal" in="SourceGraphic" in2="effect1_dropShadow" result="shape"/>
</filter>
<filter id="filter2_d" x="0" y="447" width="142" height="142" filterUnits="userSpaceOnUse" color-interpolation-filters="sRGB">
<feFlood flood-opacity="0" result="BackgroundImageFix"/>
<feColorMatrix in="SourceAlpha" type="matrix" values="0 0 0 0 0 0 0 0 0 0 0 0 0 0 0 0 0 0 127 0"/>
<feOffset dy="2"/>
<feGaussianBlur stdDeviation="2"/>
<feColorMatrix type="matrix" values="0 0 0 0 0 0 0 0 0 0 0 0 0 0 0 0 0 0 0.25 0"/>
<feBlend mode="normal" in2="BackgroundImageFix" result="effect1_dropShadow"/>
<feBlend mode="normal" in="SourceGraphic" in2="effect1_dropShadow" result="shape"/>
</filter>
<filter id="filter3_d" x="151" y="596" width="142" height="142" filterUnits="userSpaceOnUse" color-interpolation-filters="sRGB">
<feFlood flood-opacity="0" result="BackgroundImageFix"/>
<feColorMatrix in="SourceAlpha" type="matrix" values="0 0 0 0 0 0 0 0 0 0 0 0 0 0 0 0 0 0 127 0"/>
<feOffset dy="2"/>
<feGaussianBlur stdDeviation="2"/>
<feColorMatrix type="matrix" values="0 0 0 0 0 0 0 0 0 0 0 0 0 0 0 0 0 0 0.25 0"/>
<feBlend mode="normal" in2="BackgroundImageFix" result="effect1_dropShadow"/>
<feBlend mode="normal" in="SourceGraphic" in2="effect1_dropShadow" result="shape"/>
</filter>
<filter id="filter4_d" x="151" y="745" width="142" height="142" filterUnits="userSpaceOnUse" color-interpolation-filters="sRGB">
<feFlood flood-opacity="0" result="BackgroundImageFix"/>
<feColorMatrix in="SourceAlpha" type="matrix" values="0 0 0 0 0 0 0 0 0 0 0 0 0 0 0 0 0 0 127 0"/>
<feOffset dy="2"/>
<feGaussianBlur stdDeviation="2"/>
<feColorMatrix type="matrix" values="0 0 0 0 0 0 0 0 0 0 0 0 0 0 0 0 0 0 0.25 0"/>
<feBlend mode="normal" in2="BackgroundImageFix" result="effect1_dropShadow"/>
<feBlend mode="normal" in="SourceGraphic" in2="effect1_dropShadow" result="shape"/>
</filter>
<filter id="filter5_d" x="0" y="596" width="142" height="142" filterUnits="userSpaceOnUse" color-interpolation-filters="sRGB">
<feFlood flood-opacity="0" result="BackgroundImageFix"/>
<feColorMatrix in="SourceAlpha" type="matrix" values="0 0 0 0 0 0 0 0 0 0 0 0 0 0 0 0 0 0 127 0"/>
<feOffset dy="2"/>
<feGaussianBlur stdDeviation="2"/>
<feColorMatrix type="matrix" values="0 0 0 0 0 0 0 0 0 0 0 0 0 0 0 0 0 0 0.25 0"/>
<feBlend mode="normal" in2="BackgroundImageFix" result="effect1_dropShadow"/>
<feBlend mode="normal" in="SourceGraphic" in2="effect1_dropShadow" result="shape"/>
</filter>
<filter id="filter6_d" x="0" y="745" width="142" height="142" filterUnits="userSpaceOnUse" color-interpolation-filters="sRGB">
<feFlood flood-opacity="0" result="BackgroundImageFix"/>
<feColorMatrix in="SourceAlpha" type="matrix" values="0 0 0 0 0 0 0 0 0 0 0 0 0 0 0 0 0 0 127 0"/>
<feOffset dy="2"/>
<feGaussianBlur stdDeviation="2"/>
<feColorMatrix type="matrix" values="0 0 0 0 0 0 0 0 0 0 0 0 0 0 0 0 0 0 0.25 0"/>
<feBlend mode="normal" in2="BackgroundImageFix" result="effect1_dropShadow"/>
<feBlend mode="normal" in="SourceGraphic" in2="effect1_dropShadow" result="shape"/>
</filter>
<filter id="filter7_d" x="0" y="894" width="142" height="142" filterUnits="userSpaceOnUse" color-interpolation-filters="sRGB">
<feFlood flood-opacity="0" result="BackgroundImageFix"/>
<feColorMatrix in="SourceAlpha" type="matrix" values="0 0 0 0 0 0 0 0 0 0 0 0 0 0 0 0 0 0 127 0"/>
<feOffset dy="2"/>
<feGaussianBlur stdDeviation="2"/>
<feColorMatrix type="matrix" values="0 0 0 0 0 0 0 0 0 0 0 0 0 0 0 0 0 0 0.25 0"/>
<feBlend mode="normal" in2="BackgroundImageFix" result="effect1_dropShadow"/>
<feBlend mode="normal" in="SourceGraphic" in2="effect1_dropShadow" result="shape"/>
</filter>
<filter id="filter8_d" x="151" y="149" width="142" height="142" filterUnits="userSpaceOnUse" color-interpolation-filters="sRGB">
<feFlood flood-opacity="0" result="BackgroundImageFix"/>
<feColorMatrix in="SourceAlpha" type="matrix" values="0 0 0 0 0 0 0 0 0 0 0 0 0 0 0 0 0 0 127 0"/>
<feOffset dy="2"/>
<feGaussianBlur stdDeviation="2"/>
<feColorMatrix type="matrix" values="0 0 0 0 0 0 0 0 0 0 0 0 0 0 0 0 0 0 0.25 0"/>
<feBlend mode="normal" in2="BackgroundImageFix" result="effect1_dropShadow"/>
<feBlend mode="normal" in="SourceGraphic" in2="effect1_dropShadow" result="shape"/>
</filter>
<filter id="filter9_d" x="151" y="298" width="142" height="142" filterUnits="userSpaceOnUse" color-interpolation-filters="sRGB">
<feFlood flood-opacity="0" result="BackgroundImageFix"/>
<feColorMatrix in="SourceAlpha" type="matrix" values="0 0 0 0 0 0 0 0 0 0 0 0 0 0 0 0 0 0 127 0"/>
<feOffset dy="2"/>
<feGaussianBlur stdDeviation="2"/>
<feColorMatrix type="matrix" values="0 0 0 0 0 0 0 0 0 0 0 0 0 0 0 0 0 0 0.25 0"/>
<feBlend mode="normal" in2="BackgroundImageFix" result="effect1_dropShadow"/>
<feBlend mode="normal" in="SourceGraphic" in2="effect1_dropShadow" result="shape"/>
</filter>
<filter id="filter10_d" x="151" y="447" width="142" height="142" filterUnits="userSpaceOnUse" color-interpolation-filters="sRGB">
<feFlood flood-opacity="0" result="BackgroundImageFix"/>
<feColorMatrix in="SourceAlpha" type="matrix" values="0 0 0 0 0 0 0 0 0 0 0 0 0 0 0 0 0 0 127 0"/>
<feOffset dy="2"/>
<feGaussianBlur stdDeviation="2"/>
<feColorMatrix type="matrix" values="0 0 0 0 0 0 0 0 0 0 0 0 0 0 0 0 0 0 0.25 0"/>
<feBlend mode="normal" in2="BackgroundImageFix" result="effect1_dropShadow"/>
<feBlend mode="normal" in="SourceGraphic" in2="effect1_dropShadow" result="shape"/>
</filter>
<filter id="filter11_d" x="0" y="0" width="142" height="142" filterUnits="userSpaceOnUse" color-interpolation-filters="sRGB">
<feFlood flood-opacity="0" result="BackgroundImageFix"/>
<feColorMatrix in="SourceAlpha" type="matrix" values="0 0 0 0 0 0 0 0 0 0 0 0 0 0 0 0 0 0 127 0"/>
<feOffset dy="2"/>
<feGaussianBlur stdDeviation="2"/>
<feColorMatrix type="matrix" values="0 0 0 0 0 0 0 0 0 0 0 0 0 0 0 0 0 0 0.25 0"/>
<feBlend mode="normal" in2="BackgroundImageFix" result="effect1_dropShadow"/>
<feBlend mode="normal" in="SourceGraphic" in2="effect1_dropShadow" result="shape"/>
</filter>
</defs>
</svg>
